<?xml version="1.0" encoding="utf-8"?>
<!-- Generator: Adobe Illustrator 16.0.0, SVG Export Plug-In . SVG Version: 6.00 Build 0)  -->
<!DOCTYPE svg PUBLIC "-//W3C//DTD SVG 1.1//EN" "http://www.w3.org/Graphics/SVG/1.1/DTD/svg11.dtd">
<svg version="1.1" id="Capa_1" xmlns="http://www.w3.org/2000/svg" xmlns:xlink="http://www.w3.org/1999/xlink" x="0px" y="0px"
	 width="2026.5px" height="741px" viewBox="0 0 2026.5 741" enable-background="new 0 0 2026.5 741" xml:space="preserve">
<g transform="scale(4.00216 4.0011)">
	<path fill="#FFFFFF" d="M503.329,163.329c0,9.795-6.43,17.736-14.36,17.736c-0.005,0-0.01,0-0.015,0H18.515
		c-7.94,0.01-14.383-7.93-14.394-17.736V21.889c0.011-9.81,6.451-17.757,14.394-17.759H488.95c7.94,0,14.376,7.949,14.376,17.755
		c0,0.002,0,0.003,0,0.005L503.329,163.329L503.329,163.329z"/>
	<path d="M503.329,163.329c0,9.795-6.43,17.736-14.36,17.736c-0.005,0-0.01,0-0.015,0H18.515c-7.94,0.01-14.383-7.93-14.394-17.736
		V21.889c0.011-9.81,6.451-17.757,14.394-17.759H488.95c7.94,0,14.376,7.949,14.376,17.755c0,0.002,0,0.003,0,0.005L503.329,163.329
		L503.329,163.329z"/>
</g>
<g>
	<path fill="#FFFFFF" d="M266.063,267.231c-16.004,0-28.979,12.971-28.983,28.974l0,0v49.284v23.177v49.286l0,0
		c0.005,16.001,12.979,28.974,28.983,28.974c16.005,0,28.979-12.973,28.985-28.974l0,0v-49.286v-23.177v-49.284l0,0
		C295.042,280.202,282.068,267.231,266.063,267.231z"/>
	<path fill="#FFFFFF" d="M636.101,296.205c-0.005-16.003-12.981-28.974-28.984-28.974c-16.005,0-28.978,12.971-28.982,28.974h-0.001
		v49.284v23.177v49.286h0.001c0.005,16.001,12.979,28.974,28.982,28.974c16.003,0,28.979-12.973,28.984-28.974l0,0v-49.286v-23.177
		V296.205L636.101,296.205z"/>
	<path fill="#FFFFFF" d="M306.873,272.292h-1.439v191.069c0,15.941,13.043,28.985,28.985,28.985h24.427v17.308v49.287l0,0
		c0.005,16.001,12.979,28.975,28.983,28.975c16.006,0,28.979-12.974,28.984-28.975l0,0v-49.287v-17.308h39.549v17.308v49.287
		c0.008,16.001,12.981,28.975,28.986,28.975c16.003,0,28.978-12.974,28.983-28.975v-49.287v-17.308h24.428
		c15.94,0,28.983-13.044,28.983-28.985V272.292h-0.473H306.873z"/>
	<path fill="#FFFFFF" d="M567.505,262.146v-13.97c-0.38-3.965-0.979-7.872-1.789-11.714c-7.178-33.989-30.892-62.781-63.417-79.5
		l20.01-36.914c1.24-2.287,0.39-5.146-1.896-6.385c-2.287-1.241-5.146-0.39-6.385,1.896l-20.264,37.383
		c-17.219-7.401-36.529-11.554-56.932-11.554c-20.557,0-40.008,4.212-57.325,11.719l-20.354-37.548
		c-1.24-2.286-4.098-3.137-6.385-1.896c-2.287,1.239-3.136,4.098-1.896,6.385l20.114,37.109
		c-31.005,16.06-53.945,43.11-62.08,75.161c-2.11,8.316-3.23,16.969-3.23,25.854c0,1.33,0.034,2.654,0.084,3.973L567.505,262.146
		L567.505,262.146z M496.25,191.134c6.804,0,12.318,5.515,12.318,12.319c0,6.803-5.515,12.318-12.318,12.318
		c-6.803,0-12.317-5.515-12.317-12.318C483.933,196.649,489.448,191.134,496.25,191.134z M376.929,191.134
		c6.803,0,12.317,5.515,12.317,12.319c0,6.803-5.515,12.318-12.317,12.318c-6.804,0-12.319-5.515-12.319-12.318
		C364.611,196.649,370.125,191.134,376.929,191.134z"/>
</g>
<g>
	<path fill="#FFFFFF" d="M708.096,299.628v-106.5h36.15c8.499,0,15.923,1.401,22.275,4.2c6.349,2.801,11.648,6.6,15.9,11.4
		c4.25,4.8,7.449,10.425,9.6,16.875c2.149,6.45,3.225,13.327,3.225,20.625c0,8.1-1.2,15.426-3.6,21.975
		c-2.4,6.551-5.827,12.15-10.275,16.8c-4.451,4.65-9.802,8.25-16.05,10.8c-6.251,2.55-13.275,3.825-21.075,3.825H708.096z
		 M784.746,246.228c0-6.398-0.9-12.274-2.7-17.625c-1.8-5.349-4.425-9.975-7.875-13.875c-3.45-3.9-7.676-6.923-12.675-9.075
		c-5.001-2.149-10.751-3.225-17.25-3.225h-25.65v87.9h25.65c6.6,0,12.424-1.125,17.475-3.375c5.048-2.25,9.274-5.349,12.675-9.3
		c3.398-3.949,5.974-8.599,7.725-13.95C783.87,258.354,784.746,252.527,784.746,246.228z"/>
	<path fill="#FFFFFF" d="M846.996,301.128c-5.7,0-10.927-1.076-15.675-3.225c-4.751-2.149-8.876-5.1-12.375-8.85
		c-3.502-3.75-6.225-8.074-8.175-12.975c-1.95-4.898-2.925-10.148-2.925-15.75c0-5.499,0.975-10.674,2.925-15.525
		c1.95-4.849,4.65-9.098,8.1-12.75c3.45-3.649,7.575-6.548,12.375-8.7c4.8-2.149,9.999-3.225,15.6-3.225
		c5.7,0,10.924,1.076,15.675,3.225c4.749,2.151,8.824,5.077,12.225,8.775c3.398,3.701,6.049,7.95,7.95,12.75
		c1.898,4.8,2.85,9.9,2.85,15.3c0,0.802,0,1.601,0,2.4c0,0.801-0.051,1.35-0.15,1.65h-66.9c0.3,4.2,1.275,8.077,2.925,11.625
		c1.65,3.551,3.773,6.625,6.375,9.225c2.6,2.602,5.574,4.626,8.925,6.075c3.349,1.451,6.923,2.175,10.725,2.175
		c2.498,0,4.999-0.35,7.5-1.05c2.498-0.698,4.8-1.65,6.9-2.85c2.1-1.2,3.999-2.674,5.7-4.425c1.699-1.749,3-3.675,3.9-5.775
		l8.85,2.4c-1.2,2.901-2.901,5.526-5.1,7.875c-2.201,2.351-4.751,4.401-7.65,6.15c-2.901,1.751-6.101,3.101-9.6,4.05
		C854.444,300.652,850.795,301.128,846.996,301.128z M875.796,256.427c-0.3-4.2-1.275-8.025-2.925-11.475
		c-1.65-3.45-3.75-6.424-6.3-8.925c-2.55-2.499-5.501-4.448-8.85-5.85c-3.352-1.399-6.926-2.1-10.725-2.1
		c-3.802,0-7.401,0.701-10.8,2.1c-3.401,1.402-6.375,3.352-8.925,5.85c-2.55,2.501-4.601,5.501-6.15,9
		c-1.552,3.501-2.475,7.301-2.775,11.4H875.796z"/>
	<path fill="#FFFFFF" d="M927.244,301.128c-6.101,0-12.052-1.001-17.85-3c-5.801-1.999-10.8-4.898-15-8.7l4.65-6.9
		c4.399,3.6,8.874,6.3,13.425,8.1c4.549,1.8,9.424,2.7,14.625,2.7c6.3,0,11.325-1.275,15.075-3.825s5.625-6.173,5.625-10.875
		c0-2.198-0.501-4.024-1.5-5.475c-1.001-1.448-2.476-2.723-4.425-3.825c-1.95-1.1-4.402-2.074-7.35-2.925
		c-2.951-0.848-6.375-1.725-10.275-2.625c-4.5-1.099-8.4-2.198-11.7-3.3c-3.3-1.099-6.026-2.349-8.175-3.75
		c-2.152-1.399-3.75-3.125-4.8-5.175c-1.05-2.048-1.575-4.624-1.575-7.725c0-3.9,0.773-7.35,2.325-10.35
		c1.549-3,3.649-5.475,6.3-7.425c2.648-1.95,5.749-3.424,9.3-4.425c3.548-0.999,7.324-1.5,11.325-1.5c6,0,11.449,0.975,16.35,2.925
		c4.898,1.95,8.85,4.526,11.85,7.725l-4.949,6c-2.902-3-6.427-5.25-10.575-6.75c-4.151-1.5-8.475-2.25-12.975-2.25
		c-2.7,0-5.201,0.277-7.5,0.825c-2.301,0.551-4.327,1.425-6.075,2.625c-1.751,1.2-3.127,2.726-4.125,4.575
		c-1.001,1.852-1.5,4.027-1.5,6.525c0,2.1,0.349,3.801,1.05,5.1c0.698,1.301,1.849,2.426,3.45,3.375
		c1.598,0.952,3.623,1.8,6.075,2.55c2.449,0.75,5.423,1.526,8.925,2.325c4.999,1.2,9.398,2.4,13.199,3.6
		c3.8,1.2,6.976,2.602,9.525,4.2c2.551,1.601,4.475,3.551,5.775,5.85c1.299,2.301,1.949,5.1,1.949,8.4c0,7.2-2.751,12.9-8.25,17.1
		C943.944,299.027,936.544,301.128,927.244,301.128z"/>
	<path fill="#FFFFFF" d="M968.944,260.328c0-5.499,0.949-10.699,2.851-15.6c1.898-4.898,4.575-9.173,8.024-12.825
		c3.45-3.649,7.575-6.525,12.375-8.625c4.801-2.1,10.1-3.15,15.9-3.15c7.399,0,13.85,1.676,19.35,5.025
		c5.499,3.352,9.649,7.875,12.45,13.575l-9.899,3.15c-2.201-3.999-5.276-7.125-9.226-9.375c-3.951-2.25-8.325-3.375-13.125-3.375
		c-4.001,0-7.725,0.802-11.175,2.4c-3.45,1.601-6.45,3.776-9,6.525c-2.55,2.752-4.552,6.026-6,9.825
		c-1.451,3.802-2.175,7.95-2.175,12.45c0,4.401,0.75,8.55,2.25,12.45s3.548,7.275,6.149,10.125c2.6,2.85,5.625,5.1,9.075,6.75
		s7.125,2.475,11.025,2.475c2.498,0,4.974-0.349,7.425-1.05c2.449-0.699,4.725-1.674,6.825-2.925c2.1-1.249,3.899-2.674,5.399-4.275
		c1.5-1.599,2.551-3.3,3.15-5.1l10.05,3c-1.102,2.801-2.7,5.376-4.8,7.725c-2.1,2.351-4.575,4.401-7.425,6.15
		c-2.851,1.751-6,3.101-9.45,4.05s-7.026,1.425-10.725,1.425c-5.7,0-10.95-1.076-15.75-3.225c-4.801-2.149-8.951-5.1-12.45-8.85
		c-3.502-3.75-6.226-8.074-8.175-12.975C969.919,271.179,968.944,265.929,968.944,260.328z"/>
	<path fill="#FFFFFF" d="M1076.344,301.128c-3.701,0-7.125-0.626-10.275-1.875s-5.901-2.974-8.25-5.175
		c-2.351-2.199-4.177-4.774-5.475-7.725c-1.301-2.949-1.95-6.125-1.95-9.525c0-3.398,0.799-6.549,2.399-9.45
		c1.599-2.899,3.849-5.4,6.75-7.5c2.899-2.1,6.35-3.724,10.351-4.875c3.998-1.148,8.399-1.725,13.2-1.725
		c3.998,0,8.048,0.352,12.149,1.05c4.1,0.701,7.749,1.701,10.95,3v-7.05c0-6.9-1.95-12.375-5.85-16.425
		c-3.9-4.05-9.301-6.075-16.2-6.075c-4.001,0-8.101,0.802-12.3,2.4c-4.2,1.601-8.452,3.9-12.75,6.9l-3.601-6.75
		c10.1-6.799,19.898-10.2,29.4-10.2c9.799,0,17.498,2.751,23.1,8.25c5.6,5.501,8.4,13.102,8.4,22.8v35.25
		c0,2.801,1.249,4.2,3.75,4.2v9c-1.702,0.3-3,0.45-3.9,0.45c-2.602,0-4.626-0.649-6.075-1.95c-1.45-1.298-2.227-3.099-2.324-5.4
		l-0.301-6.15c-3.6,4.701-8.125,8.301-13.574,10.8C1088.517,299.876,1082.644,301.128,1076.344,301.128z M1078.743,293.328
		c5.3,0,10.175-0.999,14.625-3c4.448-2,7.823-4.65,10.125-7.95c0.9-0.9,1.575-1.875,2.025-2.925c0.45-1.05,0.675-2.025,0.675-2.925
		v-12.75c-3.4-1.298-6.926-2.299-10.575-3c-3.651-0.698-7.376-1.05-11.175-1.05c-7.2,0-13.05,1.5-17.55,4.5s-6.75,6.952-6.75,11.85
		c0,2.4,0.474,4.65,1.425,6.75c0.949,2.1,2.25,3.926,3.9,5.475c1.649,1.552,3.623,2.775,5.925,3.675
		C1073.693,292.878,1076.142,293.328,1078.743,293.328z"/>
	<path fill="#FFFFFF" d="M1177.444,230.478c-6.9,0.202-12.9,2.1-18,5.7c-5.1,3.6-8.7,8.55-10.8,14.85v48.6h-10.2v-78.15h9.6v18.75
		c2.899-6,6.8-10.699,11.7-14.1c4.898-3.398,10.148-5.1,15.75-5.1c0.8,0,1.448,0.052,1.95,0.15V230.478z"/>
	<path fill="#FFFFFF" d="M1218.545,300.677c-5.399,0-10.326-1.125-14.774-3.375c-4.451-2.25-8.302-5.224-11.55-8.925
		c-3.251-3.698-5.775-7.95-7.575-12.75s-2.7-9.75-2.7-14.85c0-5.4,0.874-10.575,2.625-15.525c1.748-4.95,4.224-9.274,7.425-12.975
		c3.199-3.698,7.024-6.649,11.476-8.85c4.448-2.198,9.375-3.3,14.774-3.3c6.698,0,12.499,1.676,17.4,5.025
		c4.898,3.352,9.099,7.575,12.6,12.675v-16.35h9.15v78.45c0,5.4-1.026,10.174-3.075,14.325c-2.051,4.148-4.8,7.624-8.25,10.425
		c-3.45,2.799-7.5,4.898-12.15,6.3c-4.649,1.399-9.576,2.1-14.774,2.1c-9,0-16.252-1.601-21.75-4.8
		c-5.501-3.202-9.952-7.5-13.351-12.9l6.301-4.95c3.098,5,7.199,8.674,12.3,11.025c5.1,2.348,10.599,3.525,16.5,3.525
		c3.799,0,7.399-0.525,10.8-1.575c3.398-1.05,6.375-2.602,8.925-4.65c2.55-2.051,4.575-4.65,6.075-7.8
		c1.5-3.15,2.25-6.825,2.25-11.025v-15.45c-3,5.001-7.102,8.951-12.3,11.85C1229.695,299.229,1224.245,300.677,1218.545,300.677z
		 M1221.396,292.128c3,0,5.948-0.548,8.85-1.65c2.899-1.099,5.524-2.574,7.875-4.425c2.349-1.849,4.324-3.923,5.925-6.225
		c1.599-2.299,2.648-4.65,3.15-7.05v-24.15c-1.102-2.798-2.602-5.4-4.5-7.8c-1.9-2.4-4.05-4.449-6.45-6.15
		c-2.399-1.699-4.976-3.049-7.725-4.05c-2.752-0.999-5.526-1.5-8.325-1.5c-4.401,0-8.325,0.926-11.775,2.775
		c-3.449,1.852-6.375,4.275-8.774,7.275c-2.4,3-4.226,6.401-5.476,10.2c-1.251,3.802-1.875,7.65-1.875,11.55
		c0,4.2,0.75,8.201,2.25,12c1.5,3.802,3.574,7.125,6.226,9.975c2.648,2.85,5.724,5.1,9.225,6.75
		C1213.494,291.302,1217.294,292.128,1221.396,292.128z"/>
	<path fill="#FFFFFF" d="M1299.545,301.128c-3.701,0-7.125-0.626-10.275-1.875s-5.901-2.974-8.25-5.175
		c-2.351-2.199-4.177-4.774-5.475-7.725c-1.301-2.949-1.95-6.125-1.95-9.525c0-3.398,0.799-6.549,2.399-9.45
		c1.599-2.899,3.849-5.4,6.75-7.5c2.899-2.1,6.35-3.724,10.351-4.875c3.998-1.148,8.399-1.725,13.2-1.725
		c3.998,0,8.048,0.352,12.149,1.05c4.1,0.701,7.749,1.701,10.95,3v-7.05c0-6.9-1.95-12.375-5.85-16.425
		c-3.9-4.05-9.301-6.075-16.2-6.075c-4.001,0-8.101,0.802-12.3,2.4c-4.2,1.601-8.452,3.9-12.75,6.9l-3.601-6.75
		c10.1-6.799,19.898-10.2,29.4-10.2c9.799,0,17.498,2.751,23.1,8.25c5.6,5.501,8.4,13.102,8.4,22.8v35.25
		c0,2.801,1.249,4.2,3.75,4.2v9c-1.702,0.3-3,0.45-3.9,0.45c-2.602,0-4.626-0.649-6.075-1.95c-1.45-1.298-2.227-3.099-2.324-5.4
		l-0.301-6.15c-3.6,4.701-8.125,8.301-13.574,10.8C1311.718,299.876,1305.845,301.128,1299.545,301.128z M1301.945,293.328
		c5.3,0,10.175-0.999,14.625-3c4.448-2,7.823-4.65,10.125-7.95c0.9-0.9,1.575-1.875,2.025-2.925c0.45-1.05,0.675-2.025,0.675-2.925
		v-12.75c-3.4-1.298-6.926-2.299-10.575-3c-3.651-0.698-7.376-1.05-11.175-1.05c-7.2,0-13.05,1.5-17.55,4.5s-6.75,6.952-6.75,11.85
		c0,2.4,0.474,4.65,1.425,6.75c0.949,2.1,2.25,3.926,3.9,5.475c1.649,1.552,3.623,2.775,5.925,3.675
		C1296.894,292.878,1299.343,293.328,1301.945,293.328z"/>
	<path fill="#FFFFFF" d="M1400.645,230.478c-6.9,0.202-12.9,2.1-18,5.7c-5.1,3.6-8.7,8.55-10.8,14.85v48.6h-10.2v-78.15h9.6v18.75
		c2.899-6,6.8-10.699,11.7-14.1c4.898-3.398,10.148-5.1,15.75-5.1c0.8,0,1.448,0.052,1.95,0.15V230.478z"/>
	<path fill="#FFFFFF" d="M1482.694,301.128c-5.7,0-10.927-1.076-15.675-3.225c-4.751-2.149-8.876-5.1-12.375-8.85
		c-3.502-3.75-6.226-8.074-8.175-12.975c-1.95-4.898-2.926-10.148-2.926-15.75c0-5.499,0.976-10.674,2.926-15.525
		c1.949-4.849,4.649-9.098,8.1-12.75c3.45-3.649,7.575-6.548,12.375-8.7c4.8-2.149,9.998-3.225,15.6-3.225
		c5.7,0,10.925,1.076,15.676,3.225c4.748,2.151,8.824,5.077,12.225,8.775c3.398,3.701,6.049,7.95,7.95,12.75
		c1.898,4.8,2.85,9.9,2.85,15.3c0,0.802,0,1.601,0,2.4c0,0.801-0.052,1.35-0.149,1.65h-66.9c0.3,4.2,1.275,8.077,2.925,11.625
		c1.65,3.551,3.773,6.625,6.375,9.225c2.6,2.602,5.573,4.626,8.925,6.075c3.35,1.451,6.924,2.175,10.726,2.175
		c2.498,0,4.999-0.35,7.5-1.05c2.498-0.698,4.8-1.65,6.899-2.85c2.101-1.2,3.999-2.674,5.7-4.425c1.699-1.749,3-3.675,3.9-5.775
		l8.85,2.4c-1.2,2.901-2.901,5.526-5.1,7.875c-2.201,2.351-4.751,4.401-7.65,6.15c-2.901,1.751-6.101,3.101-9.6,4.05
		C1490.142,300.652,1486.492,301.128,1482.694,301.128z M1511.493,256.427c-0.3-4.2-1.274-8.025-2.925-11.475
		c-1.65-3.45-3.75-6.424-6.3-8.925c-2.55-2.499-5.501-4.448-8.851-5.85c-3.352-1.399-6.926-2.1-10.725-2.1
		c-3.802,0-7.401,0.701-10.8,2.1c-3.401,1.402-6.375,3.352-8.925,5.85c-2.551,2.501-4.602,5.501-6.15,9
		c-1.552,3.501-2.475,7.301-2.775,11.4H1511.493z"/>
	<path fill="#FFFFFF" d="M1602.693,299.628h-10.2v-43.65c0-9.3-1.376-16.05-4.125-20.25c-2.752-4.2-6.975-6.3-12.675-6.3
		c-3,0-6,0.551-9,1.65c-3,1.102-5.775,2.65-8.325,4.65c-2.55,2.001-4.826,4.375-6.825,7.125c-2.001,2.751-3.45,5.726-4.35,8.925
		v47.85h-10.2v-78.15h9.3v17.7c3.199-5.7,7.774-10.298,13.726-13.8c5.948-3.499,12.424-5.25,19.425-5.25
		c4.298,0,7.95,0.802,10.95,2.4c3,1.601,5.399,3.851,7.199,6.75c1.801,2.902,3.099,6.45,3.9,10.65c0.799,4.2,1.2,8.85,1.2,13.95
		V299.628z"/>
	<path fill="#FFFFFF" d="M1663.14,190.128h10.2v91.8c0,2.902,0.799,5.175,2.399,6.825c1.599,1.65,3.849,2.475,6.75,2.475
		c1.1,0,2.4-0.15,3.9-0.45c1.5-0.3,2.899-0.698,4.2-1.2l1.8,8.25c-1.901,0.801-4.226,1.451-6.976,1.95
		c-2.751,0.5-5.125,0.75-7.125,0.75c-4.701,0-8.399-1.324-11.1-3.975c-2.7-2.648-4.05-6.375-4.05-11.175V190.128z"/>
	<path fill="#FFFFFF" d="M1723.138,301.128c-3.701,0-7.125-0.626-10.275-1.875s-5.901-2.974-8.25-5.175
		c-2.351-2.199-4.177-4.774-5.475-7.725c-1.301-2.949-1.95-6.125-1.95-9.525c0-3.398,0.799-6.549,2.399-9.45
		c1.599-2.899,3.849-5.4,6.75-7.5c2.899-2.1,6.35-3.724,10.351-4.875c3.998-1.148,8.399-1.725,13.2-1.725
		c3.998,0,8.048,0.352,12.149,1.05c4.1,0.701,7.749,1.701,10.95,3v-7.05c0-6.9-1.95-12.375-5.85-16.425
		c-3.9-4.05-9.301-6.075-16.2-6.075c-4.001,0-8.101,0.802-12.3,2.4c-4.2,1.601-8.452,3.9-12.75,6.9l-3.601-6.75
		c10.1-6.799,19.898-10.2,29.4-10.2c9.799,0,17.498,2.751,23.1,8.25c5.6,5.501,8.4,13.102,8.4,22.8v35.25
		c0,2.801,1.249,4.2,3.75,4.2v9c-1.702,0.3-3,0.45-3.9,0.45c-2.602,0-4.626-0.649-6.075-1.95c-1.45-1.298-2.227-3.099-2.324-5.4
		l-0.301-6.15c-3.6,4.701-8.125,8.301-13.574,10.8C1735.311,299.876,1729.438,301.128,1723.138,301.128z M1725.537,293.328
		c5.3,0,10.175-0.999,14.625-3c4.448-2,7.823-4.65,10.125-7.95c0.9-0.9,1.575-1.875,2.025-2.925c0.45-1.05,0.675-2.025,0.675-2.925
		v-12.75c-3.4-1.298-6.926-2.299-10.575-3c-3.651-0.698-7.376-1.05-11.175-1.05c-7.2,0-13.05,1.5-17.55,4.5s-6.75,6.952-6.75,11.85
		c0,2.4,0.474,4.65,1.425,6.75c0.949,2.1,2.25,3.926,3.9,5.475c1.649,1.552,3.623,2.775,5.925,3.675
		C1720.487,292.878,1722.936,293.328,1725.537,293.328z"/>
	<path fill="#FFFFFF" d="M759.883,367.067h28.792l63.72,167.56h-33.512l-15.576-41.772h-58.528l-15.34,41.772h-33.512
		L759.883,367.067z M797.406,469.963l-23.128-65.844l-24.072,65.844H797.406z"/>
	<path fill="#FFFFFF" d="M941.838,536.987c-9.758,0-18.253-2.165-25.488-6.49c-7.239-4.325-12.903-10.185-16.992-17.582v71.979
		h-31.624V410.963h27.612v21.24c4.562-7.235,10.461-12.939,17.7-17.11c7.235-4.166,15.576-6.254,25.016-6.254
		c8.337,0,16.048,1.693,23.128,5.074c7.08,3.385,13.176,7.946,18.29,13.688c5.11,5.745,9.122,12.509,12.036,20.296
		c2.909,7.788,4.365,16.012,4.365,24.662c0,8.969-1.338,17.387-4.012,25.252c-2.677,7.869-6.412,14.714-11.21,20.532
		c-4.801,5.822-10.502,10.384-17.11,13.688C956.942,535.335,949.703,536.987,941.838,536.987z M931.218,510.083
		c4.72,0,9.085-1.021,13.098-3.068c4.013-2.043,7.435-4.797,10.267-8.26c2.832-3.459,5.033-7.471,6.607-12.036
		c1.57-4.562,2.359-9.281,2.359-14.16c0-5.191-0.866-10.029-2.596-14.514c-1.732-4.484-4.13-8.378-7.197-11.682
		c-3.068-3.305-6.689-5.9-10.856-7.788c-4.171-1.889-8.695-2.832-13.57-2.832c-2.991,0-6.059,0.513-9.204,1.534
		c-3.149,1.024-6.059,2.478-8.732,4.365c-2.677,1.889-5.074,4.094-7.198,6.608c-2.124,2.519-3.739,5.273-4.838,8.26v29.028
		c2.832,7.08,7.157,12.943,12.98,17.582C918.156,507.764,924.451,510.083,931.218,510.083z"/>
	<path fill="#FFFFFF" d="M1091.459,536.987c-9.758,0-18.254-2.165-25.488-6.49c-7.238-4.325-12.902-10.185-16.992-17.582v71.979
		h-31.624V410.963h27.612v21.24c4.561-7.235,10.461-12.939,17.699-17.11c7.236-4.166,15.576-6.254,25.016-6.254
		c8.338,0,16.049,1.693,23.129,5.074c7.08,3.385,13.176,7.946,18.289,13.688c5.111,5.745,9.123,12.509,12.037,20.296
		c2.91,7.788,4.365,16.012,4.365,24.662c0,8.969-1.338,17.387-4.012,25.252c-2.678,7.869-6.412,14.714-11.209,20.532
		c-4.803,5.822-10.502,10.384-17.111,13.688C1106.563,535.335,1099.324,536.987,1091.459,536.987z M1080.838,510.083
		c4.721,0,9.086-1.021,13.098-3.068c4.014-2.043,7.436-4.797,10.268-8.26c2.832-3.459,5.033-7.471,6.607-12.036
		c1.57-4.562,2.359-9.281,2.359-14.16c0-5.191-0.865-10.029-2.596-14.514c-1.732-4.484-4.129-8.378-7.197-11.682
		c-3.068-3.305-6.689-5.9-10.857-7.788c-4.17-1.889-8.693-2.832-13.568-2.832c-2.992,0-6.059,0.513-9.205,1.534
		c-3.148,1.024-6.059,2.478-8.732,4.365c-2.676,1.889-5.072,4.094-7.197,6.608c-2.123,2.519-3.738,5.273-4.838,8.26v29.028
		c2.832,7.08,7.158,12.943,12.98,17.582C1067.778,507.764,1074.073,510.083,1080.838,510.083z"/>
	<path fill="#FFFFFF" d="M1326.509,410.963c-1.103-1.099-3.108-2.596-6.018-4.483c-2.913-1.889-6.453-3.736-10.62-5.547
		c-4.171-1.807-8.695-3.34-13.57-4.602c-4.879-1.258-9.835-1.889-14.868-1.889c-8.968,0-15.657,1.652-20.06,4.957
		c-4.407,3.304-6.608,7.946-6.608,13.924c0,3.462,0.826,6.335,2.479,8.613c1.651,2.283,4.049,4.289,7.197,6.019
		c3.146,1.733,7.117,3.304,11.918,4.72c4.798,1.416,10.344,2.913,16.639,4.484c8.179,2.205,15.612,4.564,22.302,7.08
		c6.686,2.519,12.35,5.664,16.992,9.439c4.639,3.776,8.219,8.301,10.737,13.57c2.516,5.273,3.776,11.763,3.776,19.47
		c0,8.968-1.692,16.639-5.074,23.01c-3.385,6.372-7.946,11.527-13.688,15.458c-5.745,3.935-12.354,6.808-19.824,8.614
		c-7.475,1.807-15.303,2.714-23.482,2.714c-12.589,0-25.016-1.888-37.287-5.664c-12.272-3.775-23.287-9.122-33.04-16.048
		l14.396-28.084c1.416,1.416,3.972,3.268,7.67,5.546c3.695,2.283,8.062,4.565,13.099,6.845c5.033,2.282,10.619,4.211,16.756,5.781
		c6.136,1.575,12.427,2.36,18.88,2.36c17.936,0,26.904-5.741,26.904-17.228c0-3.618-1.025-6.686-3.068-9.204
		c-2.047-2.516-4.956-4.721-8.732-6.608c-3.775-1.888-8.341-3.617-13.688-5.192c-5.351-1.57-11.328-3.304-17.937-5.191
		c-8.023-2.201-14.985-4.603-20.886-7.198s-10.819-5.664-14.75-9.204c-3.935-3.54-6.885-7.629-8.85-12.271
		c-1.97-4.64-2.95-10.186-2.95-16.639c0-8.496,1.57-16.048,4.72-22.656c3.146-6.607,7.512-12.112,13.098-16.52
		c5.583-4.403,12.073-7.747,19.471-10.03c7.394-2.279,15.34-3.422,23.836-3.422c11.8,0,22.656,1.852,32.567,5.547
		c9.912,3.697,18.563,8.064,25.961,13.098L1326.509,410.963z"/>
	<path fill="#FFFFFF" d="M1440.968,528.255c-4.248,1.888-9.44,3.776-15.576,5.664s-12.589,2.832-19.352,2.832
		c-4.407,0-8.537-0.553-12.391-1.652c-3.856-1.099-7.238-2.868-10.147-5.31c-2.913-2.438-5.232-5.583-6.962-9.44
		c-1.733-3.854-2.597-8.532-2.597-14.042v-71.036h-16.283v-24.308h16.283v-40.12h31.624v40.12h25.96v24.308h-25.96v60.416
		c0,4.407,1.14,7.516,3.423,9.322c2.278,1.811,5.073,2.714,8.378,2.714c3.304,0,6.526-0.549,9.676-1.651
		c3.146-1.1,5.664-2.043,7.552-2.832L1440.968,528.255z"/>
	<path fill="#FFFFFF" d="M1511.532,536.987c-10.07,0-19.116-1.733-27.14-5.192c-8.024-3.459-14.831-8.142-20.414-14.042
		c-5.587-5.9-9.875-12.703-12.862-20.414c-2.99-7.707-4.483-15.812-4.483-24.308c0-8.651,1.493-16.834,4.483-24.544
		c2.987-7.707,7.275-14.515,12.862-20.414c5.583-5.9,12.39-10.58,20.414-14.043c8.023-3.458,17.069-5.191,27.14-5.191
		c10.067,0,19.075,1.733,27.022,5.191c7.942,3.463,14.709,8.143,20.296,14.043c5.583,5.899,9.871,12.707,12.862,20.414
		c2.986,7.71,4.483,15.893,4.483,24.544c0,8.496-1.497,16.601-4.483,24.308c-2.991,7.711-7.239,14.514-12.744,20.414
		c-5.51,5.9-12.272,10.583-20.296,14.042C1530.649,535.254,1521.6,536.987,1511.532,536.987z M1479.2,473.031
		c0,5.509,0.826,10.502,2.479,14.985c1.651,4.484,3.931,8.378,6.844,11.683c2.909,3.304,6.331,5.863,10.266,7.67
		c3.932,1.811,8.18,2.714,12.744,2.714c4.562,0,8.81-0.903,12.744-2.714c3.931-1.807,7.353-4.366,10.266-7.67
		c2.91-3.305,5.192-7.235,6.845-11.8c1.651-4.562,2.478-9.596,2.478-15.104c0-5.347-0.826-10.303-2.478-14.868
		c-1.652-4.562-3.935-8.496-6.845-11.8c-2.913-3.304-6.335-5.859-10.266-7.67c-3.935-1.807-8.183-2.714-12.744-2.714
		c-4.564,0-8.813,0.943-12.744,2.832c-3.935,1.888-7.356,4.483-10.266,7.788c-2.913,3.304-5.192,7.238-6.844,11.8
		C1480.027,462.729,1479.2,467.684,1479.2,473.031z"/>
	<path fill="#FFFFFF" d="M1671.066,438.339c-9.599,0.158-18.172,2.006-25.725,5.546c-7.552,3.54-12.979,8.851-16.284,15.931v74.812
		h-31.623V410.963h29.027v26.432c2.201-4.248,4.798-8.061,7.788-11.445c2.987-3.382,6.214-6.332,9.676-8.851
		c3.459-2.515,6.962-4.443,10.502-5.781c3.54-1.336,6.962-2.006,10.267-2.006c1.729,0,3.027,0,3.894,0
		c0.863,0,1.689,0.08,2.479,0.235V438.339z"/>
	<path fill="#FFFFFF" d="M1739.979,536.987c-9.912,0-18.88-1.693-26.904-5.074c-8.023-3.382-14.868-7.983-20.532-13.806
		c-5.664-5.819-10.029-12.586-13.098-20.297c-3.068-7.706-4.602-15.812-4.602-24.308c0-8.81,1.493-17.11,4.483-24.898
		c2.987-7.787,7.316-14.632,12.98-20.531c5.664-5.9,12.545-10.58,20.649-14.043c8.102-3.458,17.188-5.191,27.259-5.191
		c10.066,0,19.075,1.733,27.021,5.191c7.943,3.463,14.71,8.105,20.296,13.925c5.583,5.822,9.831,12.589,12.744,20.296
		c2.909,7.711,4.366,15.734,4.366,24.072c0,2.046-0.041,4.012-0.118,5.899c-0.081,1.889-0.276,3.463-0.59,4.721h-95.58
		c0.472,4.878,1.652,9.203,3.54,12.979s4.325,7.003,7.315,9.676c2.987,2.678,6.372,4.721,10.148,6.137s7.707,2.124,11.8,2.124
		c6.291,0,12.231-1.534,17.818-4.603c5.583-3.068,9.399-7.117,11.446-12.154l27.14,7.553c-4.565,9.439-11.841,17.19-21.83,23.246
		C1765.74,533.96,1753.822,536.987,1739.979,536.987z M1772.074,462.411c-0.789-9.281-4.211-16.716-10.266-22.302
		c-6.059-5.583-13.415-8.379-22.066-8.379c-4.248,0-8.223,0.749-11.918,2.242c-3.698,1.497-6.962,3.581-9.794,6.254
		c-2.832,2.678-5.155,5.9-6.962,9.677c-1.811,3.775-2.872,7.946-3.186,12.508H1772.074z"/>
</g>
</svg>
