<?xml version="1.0" encoding="utf-8"?>
<!-- Generator: Adobe Illustrator 16.0.0, SVG Export Plug-In . SVG Version: 6.00 Build 0)  -->
<!DOCTYPE svg PUBLIC "-//W3C//DTD SVG 1.1//EN" "http://www.w3.org/Graphics/SVG/1.1/DTD/svg11.dtd">
<svg version="1.1" id="Capa_1" xmlns="http://www.w3.org/2000/svg" xmlns:xlink="http://www.w3.org/1999/xlink" x="0px" y="0px"
	 width="2500px" height="741px" viewBox="0 0 2500 741" enable-background="new 0 0 2500 741" xml:space="preserve">
<g transform="scale(4.00216 4.0011)">
	<path fill="#FFFFFF" d="M620.684,163.329c0,9.795-7.941,17.736-17.736,17.736c-0.006,0-0.012,0-0.018,0H21.899
		c-9.806,0.01-17.765-7.93-17.778-17.736V21.889c0.013-9.81,7.968-17.757,17.778-17.759h581.025c9.806,0,17.755,7.949,17.755,17.755
		c0,0.002,0,0.003,0,0.005L620.684,163.329L620.684,163.329z"/>
	<path d="M620.684,163.329c0,9.795-7.941,17.736-17.736,17.736c-0.006,0-0.012,0-0.018,0H21.899
		c-9.806,0.01-17.765-7.93-17.778-17.736V21.889c0.013-9.81,7.968-17.757,17.778-17.759h581.025c9.806,0,17.755,7.949,17.755,17.755
		c0,0.002,0,0.003,0,0.005L620.684,163.329L620.684,163.329z"/>
	<path fill="#FFFFFF" d="M139.519,91.625c-0.134-14.925,12.221-22.186,12.786-22.524c-6.997-10.202-17.843-11.596-21.654-11.707
		c-9.109-0.959-17.944,5.451-22.585,5.451c-4.733,0-11.878-5.358-19.579-5.2c-9.91,0.153-19.181,5.89-24.266,14.8
		c-10.493,18.167-2.667,44.864,7.386,59.548c5.029,7.196,10.905,15.222,18.597,14.939c7.525-0.306,10.336-4.793,19.417-4.793
		c8.998,0,11.637,4.793,19.482,4.613c8.076-0.125,13.161-7.224,18.014-14.481c5.812-8.238,8.146-16.361,8.238-16.778
		C155.171,115.427,139.676,109.509,139.519,91.625L139.519,91.625z M124.7,47.733c4.047-5.062,6.817-11.948,6.048-18.936
		c-5.858,0.259-13.184,4.052-17.403,9.002c-3.733,4.362-7.067,11.512-6.205,18.236C113.72,56.527,120.477,52.716,124.7,47.733
		L124.7,47.733z"/>
	<g>
		<path fill="#FFFFFF" d="M248.515,145.898h-10.517l-5.761-18.102h-20.024l-5.488,18.102h-10.239l19.843-61.627h12.253
			L248.515,145.898z M230.501,120.202l-5.21-16.092c-0.551-1.644-1.588-5.515-3.107-11.61h-0.185
			c-0.611,2.621-1.588,6.492-2.927,11.61l-5.122,16.092H230.501z M299.446,123.133c0,7.557-2.051,13.531-6.159,17.917
			c-3.677,3.904-8.247,5.854-13.698,5.854c-5.886,0-10.118-2.098-12.688-6.303v23.316h-9.873v-47.851
			c0-4.747-0.125-9.614-0.366-14.606h8.683l0.551,7.043h0.185c3.292-5.307,8.289-7.961,14.995-7.961
			c5.242,0,9.618,2.07,13.119,6.215C297.69,110.912,299.446,116.367,299.446,123.133L299.446,123.133z M289.387,123.494
			c0-4.325-0.972-7.891-2.927-10.702c-2.135-2.922-5.001-4.386-8.595-4.386c-2.436,0-4.649,0.815-6.627,2.422
			c-1.982,1.621-3.279,3.737-3.885,6.358c-0.271,0.98-0.425,1.989-0.458,3.006v7.414c0,3.228,0.991,5.955,2.973,8.187
			c1.982,2.223,4.557,3.339,7.724,3.339c3.719,0,6.613-1.44,8.683-4.297C288.35,131.969,289.387,128.19,289.387,123.494z
			 M350.556,123.133c0,7.557-2.051,13.531-6.159,17.917c-3.682,3.904-8.247,5.854-13.703,5.854c-5.886,0-10.118-2.098-12.688-6.303
			v23.316h-9.873v-47.851c0-4.747-0.125-9.614-0.366-14.606h8.683l0.551,7.043h0.185c3.288-5.307,8.285-7.961,14.995-7.961
			c5.238,0,9.614,2.07,13.124,6.215C348.797,110.912,350.556,116.367,350.556,123.133L350.556,123.133z M340.493,123.494
			c0-4.325-0.977-7.891-2.931-10.702c-2.135-2.922-4.992-4.386-8.586-4.386c-2.436,0-4.649,0.815-6.636,2.422
			c-1.982,1.621-3.274,3.737-3.881,6.358c-0.301,1.223-0.463,2.218-0.463,3.006v7.414c0,3.228,0.996,5.955,2.968,8.187
			c1.982,2.218,4.557,3.339,7.734,3.339c3.723,0,6.618-1.44,8.683-4.297C339.456,131.969,340.493,128.19,340.493,123.494z
			 M407.701,128.611c0,5.247-1.834,9.512-5.479,12.804c-4.01,3.594-9.609,5.395-16.787,5.395c-6.631,0-11.948-1.278-15.958-3.839
			l2.283-8.229c4.33,2.565,9.086,3.844,14.263,3.844c3.723,0,6.617-0.843,8.683-2.515c2.07-1.676,3.116-3.918,3.116-6.715
			c0-2.505-0.866-4.603-2.565-6.312c-1.709-1.704-4.533-3.293-8.502-4.751c-10.79-4.024-16.19-9.91-16.19-17.653
			c0-5.057,1.908-9.197,5.714-12.434c3.807-3.232,8.854-4.849,15.134-4.849c5.608,0,10.281,0.977,13.99,2.927l-2.477,8.049
			c-3.492-1.889-7.432-2.834-11.841-2.834c-3.483,0-6.215,0.857-8.169,2.561c-1.644,1.523-2.478,3.38-2.478,5.585
			c0,2.431,0.949,4.45,2.839,6.034c1.639,1.459,4.631,3.047,8.956,4.751c5.307,2.14,9.206,4.631,11.702,7.493
			C406.451,120.785,407.701,124.356,407.701,128.611L407.701,128.611z M440.427,108.87h-10.883v21.575
			c0,5.488,1.917,8.224,5.761,8.224c1.764,0,3.228-0.148,4.386-0.458l0.273,7.497c-1.945,0.727-4.506,1.093-7.678,1.093
			c-3.899,0-6.946-1.19-9.146-3.57c-2.19-2.38-3.293-6.367-3.293-11.98v-22.399h-6.483v-7.409h6.483v-8.136l9.697-2.927v11.063
			h10.883V108.87L440.427,108.87z M489.431,123.314c0,6.831-1.954,12.438-5.853,16.824c-4.08,4.515-9.507,6.766-16.273,6.766
			c-6.529,0-11.721-2.163-15.592-6.483c-3.871-4.33-5.807-9.785-5.807-16.365c0-6.886,2-12.527,5.988-16.912
			c3.996-4.39,9.377-6.585,16.143-6.585c6.52,0,11.758,2.167,15.722,6.492C487.547,111.246,489.431,116.664,489.431,123.314
			L489.431,123.314z M479.197,123.541c0-4.071-0.88-7.562-2.644-10.484c-2.07-3.529-5.034-5.293-8.873-5.293
			c-3.955,0-6.988,1.764-9.053,5.293c-1.769,2.922-2.649,6.474-2.649,10.67c0,4.075,0.88,7.576,2.649,10.489
			c2.135,3.529,5.112,5.293,8.97,5.293c3.774,0,6.733-1.801,8.873-5.381C478.285,131.135,479.197,127.62,479.197,123.541
			L479.197,123.541z M521.537,110.144c-1.027-0.185-2.068-0.277-3.112-0.273c-3.473,0-6.159,1.306-8.048,3.936
			c-1.639,2.316-2.464,5.242-2.464,8.775v23.316h-9.873v-30.443c0.009-4.665-0.087-9.329-0.287-13.99h8.6l0.361,8.502h0.273
			c1.047-2.922,2.686-5.279,4.937-7.043c2.06-1.542,4.563-2.377,7.136-2.38c0.912,0,1.737,0.065,2.468,0.181L521.537,110.144
			L521.537,110.144z M565.692,121.577c0.025,1.501-0.096,3.001-0.361,4.478h-29.619c0.111,4.39,1.547,7.752,4.297,10.068
			c2.496,2.065,5.724,3.103,9.688,3.103c4.385,0,8.387-0.695,11.985-2.098l1.547,6.849c-4.205,1.834-9.169,2.746-14.897,2.746
			c-6.891,0-12.3-2.028-16.236-6.076c-3.927-4.052-5.895-9.498-5.895-16.319c0-6.696,1.829-12.276,5.492-16.727
			c3.834-4.751,9.016-7.127,15.537-7.127c6.404,0,11.253,2.376,14.546,7.127C564.382,111.366,565.692,116.034,565.692,121.577
			L565.692,121.577z M556.278,119.016c0.07-2.931-0.579-5.455-1.917-7.59c-1.709-2.751-4.339-4.121-7.863-4.121
			c-3.228,0-5.858,1.338-7.859,4.024c-1.644,2.135-2.621,4.7-2.922,7.678L556.278,119.016L556.278,119.016z"/>
	</g>
	<g>
		<path fill="#FFFFFF" d="M209.366,62.483c-2.746,0-5.122-0.134-7.099-0.361V32.327c2.766-0.427,5.56-0.638,8.359-0.63
			c11.322,0,16.537,5.571,16.537,14.652C227.162,56.824,221.003,62.483,209.366,62.483z M211.024,35.517
			c-1.528,0-2.83,0.093-3.909,0.315v22.65c0.584,0.093,1.704,0.134,3.279,0.134c7.419,0,11.642-4.223,11.642-12.133
			C222.036,39.43,218.215,35.517,211.024,35.517z M243.412,62.71c-6.381,0-10.517-4.765-10.517-11.234
			c0-6.743,4.223-11.549,10.878-11.549c6.289,0,10.517,4.538,10.517,11.193C254.29,57.945,249.932,62.71,243.412,62.71z
			 M243.597,43.473c-3.505,0-5.752,3.279-5.752,7.863c0,4.497,2.292,7.775,5.705,7.775s5.705-3.506,5.705-7.868
			C249.256,46.798,247.01,43.473,243.597,43.473L243.597,43.473z M290.679,40.375l-6.831,21.839h-4.45l-2.83-9.484
			c-0.703-2.32-1.289-4.674-1.755-7.053h-0.093c-0.356,2.38-1.033,4.765-1.751,7.053l-3.01,9.484h-4.497l-6.427-21.839h4.987
			l2.473,10.382c0.583,2.473,1.074,4.807,1.482,7.011h0.092c0.357-1.838,0.94-4.135,1.797-6.965l3.103-10.424h3.955l2.968,10.202
			c0.718,2.473,1.301,4.899,1.755,7.192h0.13c0.315-2.246,0.81-4.631,1.482-7.192l2.653-10.202L290.679,40.375L290.679,40.375z
			 M315.825,62.214h-4.853v-12.54c0-3.862-1.482-5.798-4.404-5.798c-2.876,0-4.853,2.473-4.853,5.349v12.99h-4.853V46.617
			c0-1.931-0.046-4.001-0.181-6.247h4.27l0.227,3.371h0.134c1.306-2.334,3.955-3.816,6.923-3.816c4.584,0,7.595,3.506,7.595,9.211
			L315.825,62.214L315.825,62.214z M329.208,62.214h-4.858v-31.86h4.858V62.214z M346.903,62.71
			c-6.377,0-10.517-4.765-10.517-11.234c0-6.743,4.224-11.549,10.874-11.549c6.293,0,10.517,4.538,10.517,11.193
			C357.78,57.945,353.418,62.71,346.903,62.71z M347.083,43.473c-3.505,0-5.751,3.279-5.751,7.863c0,4.497,2.297,7.775,5.701,7.775
			c3.418,0,5.705-3.506,5.705-7.868C352.742,46.798,350.501,43.473,347.083,43.473L347.083,43.473z M376.911,62.214l-0.352-2.515
			h-0.13c-1.482,2.024-3.645,3.01-6.386,3.01c-3.913,0-6.692-2.741-6.692-6.428c0-5.39,4.673-8.178,12.763-8.178v-0.403
			c0-2.876-1.524-4.316-4.533-4.316c-2.153,0-4.043,0.542-5.705,1.621l-0.986-3.191c2.019-1.26,4.538-1.889,7.497-1.889
			c5.705,0,8.585,3.01,8.585,9.035v8.044c0,2.204,0.097,3.913,0.315,5.214L376.911,62.214L376.911,62.214z M376.244,51.336
			c-5.39,0-8.095,1.306-8.095,4.404c0,2.292,1.394,3.413,3.33,3.413c2.468,0,4.765-1.885,4.765-4.446V51.336z M404.538,62.214
			l-0.227-3.506h-0.134c-1.394,2.649-3.737,4.001-7.011,4.001c-5.265,0-9.164-4.631-9.164-11.146c0-6.831,4.043-11.642,9.563-11.642
			c2.922,0,4.992,0.986,6.159,2.968h0.097V30.354h4.858v25.975c0,2.112,0.051,4.089,0.181,5.886H404.538L404.538,62.214z
			 M403.821,49.363c0-3.056-2.024-5.664-5.112-5.664c-3.598,0-5.798,3.191-5.798,7.683c0,4.404,2.283,7.419,5.701,7.419
			c3.052,0,5.21-2.654,5.21-5.798V49.363L403.821,49.363z M439.478,62.71c-6.377,0-10.512-4.765-10.512-11.234
			c0-6.743,4.223-11.549,10.873-11.549c6.293,0,10.517,4.538,10.517,11.193C450.361,57.945,446.003,62.71,439.478,62.71
			L439.478,62.71z M439.659,43.473c-3.501,0-5.747,3.279-5.747,7.863c0,4.497,2.292,7.775,5.701,7.775
			c3.418,0,5.705-3.506,5.705-7.868C445.327,46.798,443.081,43.473,439.659,43.473L439.659,43.473z M476.456,62.214h-4.858v-12.54
			c0-3.862-1.482-5.798-4.404-5.798c-2.876,0-4.849,2.473-4.849,5.349v12.99h-4.858V46.617c0-1.931-0.046-4.001-0.181-6.247h4.27
			l0.227,3.371h0.134c1.301-2.334,3.955-3.82,6.919-3.82c4.584,0,7.599,3.506,7.599,9.211V62.214z M509.108,44.015h-5.339v10.605
			c0,2.7,0.936,4.047,2.825,4.047c0.857,0,1.574-0.093,2.153-0.227l0.134,3.686c-0.94,0.361-2.2,0.542-3.765,0.542
			c-3.825,0-6.113-2.112-6.113-7.641V44.015h-3.186v-3.64h3.186v-4.001l4.765-1.44v5.437h5.339V44.015L509.108,44.015z
			 M534.8,62.214h-4.848V49.766c0-3.908-1.477-5.886-4.404-5.886c-2.514,0-4.858,1.709-4.858,5.168v13.166h-4.848v-31.86h4.848
			v13.119h0.097c1.528-2.38,3.742-3.552,6.567-3.552c4.622,0,7.446,3.593,7.446,9.303V62.214L534.8,62.214z M561.122,52.462h-14.564
			c0.092,4.135,2.829,6.469,6.881,6.469c2.154,0,4.135-0.361,5.886-1.033l0.755,3.371c-2.065,0.898-4.497,1.348-7.326,1.348
			c-6.831,0-10.873-4.316-10.873-11.008c0-6.696,4.14-11.73,10.327-11.73c5.581,0,9.081,4.135,9.081,10.382
			C561.32,50.999,561.264,51.737,561.122,52.462L561.122,52.462z M556.672,49.002c0-3.371-1.7-5.752-4.802-5.752
			c-2.788,0-4.992,2.427-5.307,5.752H556.672z"/>
	</g>
</g>
</svg>
