<?xml version="1.0" encoding="utf-8"?>
<!-- Generator: Adobe Illustrator 16.0.0, SVG Export Plug-In . SVG Version: 6.00 Build 0)  -->
<!DOCTYPE svg PUBLIC "-//W3C//DTD SVG 1.1//EN" "http://www.w3.org/Graphics/SVG/1.1/DTD/svg11.dtd">
<svg version="1.1" id="Capa_1" xmlns="http://www.w3.org/2000/svg" xmlns:xlink="http://www.w3.org/1999/xlink" x="0px" y="0px"
	 width="659px" height="187.355px" viewBox="12.5 105.145 659 187.355" enable-background="new 12.5 105.145 659 187.355"
	 xml:space="preserve">
<path fill="#222221" d="M19.122,119.004l8.86,21.199l8.857-21.199h1.772l-9.844,23.299h-1.543l-9.877-23.299H19.122z"/>
<path fill="#222221" d="M42.191,142.303v-23.299h1.674v23.299H42.191z"/>
<path fill="#222221" d="M49.18,119.004l8.859,21.199l8.859-21.199h1.771l-9.845,23.299h-1.542l-9.877-23.299H49.18z"/>
<path fill="#222221" d="M87.77,140.793v1.51H72.248v-23.299h15.228v1.51H73.921v9.155h11.847v1.444H73.921v9.68H87.77z"/>
<path fill="#222221" d="M96.809,142.303v-14.545h1.434v13.275h8.4v1.27H96.809z"/>
<path fill="#222221" d="M113.258,127.758h1.208l6.045,14.545h-1.518l-1.885-4.548h-6.534l-1.864,4.548h-1.537L113.258,127.758z
	 M116.782,136.628l-2.93-7.189l-2.971,7.189H116.782z"/>
<path fill="#222221" d="M63.023,182.001v6.886H34.969v-40.402H62.51v6.885H42.822v9.731h17.015v6.373H42.822v10.527H63.023z"/>
<path fill="#222221" d="M73.323,148.484l10.072,15.022l10.015-15.022h8.479L87.491,168.97l13.941,19.917h-8.479l-9.56-14.454
	l-9.617,14.454H65.24l13.942-19.917l-14.397-20.485L73.323,148.484L73.323,148.484z"/>
<path fill="#222221" d="M105.928,188.887v-40.402h17.129c1.856,0,3.574,0.39,5.148,1.166c1.573,0.778,2.932,1.803,4.069,3.073
	c1.138,1.271,2.028,2.713,2.674,4.324c0.646,1.613,0.968,3.235,0.968,4.865c0,1.708-0.304,3.368-0.91,4.979
	c-0.607,1.613-1.461,3.045-2.562,4.297c-1.101,1.251-2.428,2.257-3.981,3.016c-1.558,0.759-3.265,1.139-5.122,1.139h-9.561v13.543
	L105.928,188.887L105.928,188.887z M113.781,168.457h9.104c1.44,0,2.646-0.587,3.612-1.764c0.969-1.175,1.451-2.769,1.451-4.78
	c0-1.023-0.15-1.943-0.456-2.759c-0.303-0.815-0.701-1.509-1.193-2.078c-0.493-0.568-1.072-0.995-1.735-1.28
	c-0.664-0.284-1.338-0.427-2.021-0.427h-8.764L113.781,168.457L113.781,168.457z"/>
<path fill="#222221" d="M169.433,182.001v6.886h-28.054v-40.402h27.541v6.885h-19.688v9.731h17.015v6.373h-17.015v10.527H169.433z"
	/>
<path fill="#222221" d="M175.578,188.887v-40.402h17.868c1.858,0,3.575,0.39,5.149,1.166c1.574,0.778,2.932,1.803,4.067,3.073
	c1.14,1.271,2.029,2.713,2.677,4.324c0.645,1.613,0.967,3.235,0.967,4.865c0,2.618-0.654,4.999-1.963,7.143
	c-1.31,2.144-3.082,3.689-5.321,4.637l9.219,15.194h-8.819l-8.251-13.543h-7.738v13.543H175.578z M183.432,168.457h9.844
	c0.721,0,1.396-0.17,2.021-0.512c0.627-0.342,1.167-0.806,1.622-1.394c0.455-0.588,0.814-1.28,1.08-2.077
	c0.267-0.797,0.398-1.65,0.398-2.562c0-0.947-0.152-1.82-0.455-2.617c-0.304-0.797-0.711-1.488-1.223-2.077
	c-0.513-0.587-1.103-1.043-1.766-1.365c-0.664-0.322-1.337-0.484-2.021-0.484h-9.502L183.432,168.457L183.432,168.457z"/>
<path fill="#222221" d="M213.42,188.887v-40.402h7.852v40.402H213.42z"/>
<path fill="#222221" d="M257.748,182.001v6.886h-28.055v-40.402h27.542v6.885h-19.688v9.731h17.014v6.373h-17.014v10.527H257.748z"
	/>
<path fill="#222221" d="M271.746,162.995v25.892h-7.853v-40.402h6.089l21.055,26.518v-26.461h7.854v40.346h-6.374L271.746,162.995z"
	/>
<path fill="#222221" d="M304.864,168.4c0-2.465,0.446-4.902,1.338-7.312c0.892-2.409,2.191-4.562,3.898-6.459
	c1.707-1.896,3.793-3.433,6.259-4.609c2.466-1.175,5.271-1.765,8.422-1.765c3.718,0,6.933,0.816,9.646,2.448
	c2.713,1.631,4.732,3.755,6.062,6.372l-6.032,4.155c-0.531-1.139-1.176-2.097-1.935-2.874c-0.761-0.777-1.574-1.395-2.447-1.85
	s-1.783-0.787-2.731-0.996c-0.947-0.208-1.878-0.313-2.787-0.313c-1.974,0-3.689,0.397-5.149,1.195
	c-1.461,0.796-2.675,1.83-3.642,3.101c-0.97,1.271-1.699,2.713-2.191,4.325c-0.493,1.612-0.74,3.215-0.74,4.809
	c0,1.783,0.285,3.499,0.854,5.149c0.568,1.65,1.375,3.102,2.419,4.353c1.043,1.252,2.295,2.258,3.756,3.017
	c1.46,0.759,3.063,1.139,4.809,1.139c0.91,0,1.858-0.114,2.846-0.342c0.986-0.228,1.926-0.588,2.815-1.081
	c0.893-0.493,1.718-1.129,2.478-1.906c0.758-0.777,1.364-1.717,1.819-2.817l6.431,3.698c-0.646,1.519-1.564,2.855-2.761,4.013
	c-1.193,1.157-2.54,2.134-4.038,2.931c-1.5,0.797-3.103,1.404-4.81,1.82c-1.708,0.417-3.378,0.626-5.008,0.626
	c-2.884,0-5.521-0.606-7.91-1.82c-2.39-1.214-4.448-2.798-6.174-4.752c-1.728-1.953-3.073-4.173-4.041-6.658
	C305.348,173.514,304.864,170.98,304.864,168.4z"/>
<path fill="#222221" d="M346.346,188.887v-40.402h7.854v40.402H346.346z"/>
<path fill="#222221" d="M374.115,148.484h6.943l15.362,40.402h-8.08l-3.756-10.072h-14.11l-3.699,10.072h-8.08L374.115,148.484z
	 M383.164,173.294l-5.576-15.876l-5.805,15.876H383.164z"/>
<path fill="#222221" d="M105.639,208.193v1.271h-9.771V194.92h9.587v1.271h-8.152v5.245h7.107v1.209h-7.107v5.551h8.337V208.193z"/>
<path fill="#222221" d="M109.777,197.583v11.882h-1.434V194.92h1.105l9.628,12.107V194.94h1.435v14.524h-1.249L109.777,197.583z"/>
<path fill="#222221" d="M129.54,235.322V194.92h16.787c1.707,0,3.28,0.361,4.725,1.082c1.44,0.721,2.683,1.678,3.727,2.873
	c1.043,1.195,1.858,2.542,2.447,4.04c0.588,1.499,0.882,3.007,0.882,4.524c0,1.479-0.228,2.912-0.683,4.295
	c-0.455,1.387-1.103,2.629-1.937,3.729c-0.834,1.102-1.84,2.012-3.016,2.73c-1.176,0.722-2.467,1.195-3.869,1.424l10.072,15.705
	h-3.357l-9.788-15.25h-13.088v15.25H129.54z M132.443,217.396h14.169c1.289,0,2.466-0.283,3.528-0.854
	c1.062-0.568,1.972-1.316,2.73-2.248c0.759-0.929,1.338-1.99,1.736-3.188c0.397-1.194,0.597-2.418,0.597-3.67
	c0-1.289-0.236-2.531-0.712-3.728c-0.475-1.196-1.119-2.248-1.934-3.158c-0.816-0.909-1.766-1.641-2.846-2.19
	c-1.081-0.549-2.248-0.826-3.5-0.826h-13.771v19.86H132.443z"/>
<path fill="#222221" d="M193.387,232.705v2.617h-26.916V194.92h26.403v2.617h-23.502v15.877h20.542v2.504h-20.542v16.787H193.387z"
	/>
<path fill="#222221" d="M213.987,194.92h2.504l17.07,40.402h-3.072l-5.633-13.315h-19.291l-5.634,13.315h-3.13L213.987,194.92z
	 M224.059,219.617l-8.82-21.169l-8.991,21.169H224.059z"/>
<path fill="#222221" d="M239.706,235.322V194.92h2.903v37.785h24.127v2.617H239.706z"/>
<path fill="#222221" d="M272.768,235.322V194.92h2.902v40.402H272.768z"/>
<path fill="#222221" d="M286.254,235.322V194.92h13.43c3.188,0,5.983,0.532,8.395,1.594c2.408,1.063,4.409,2.503,6.002,4.325
	c1.594,1.82,2.789,3.954,3.586,6.401s1.194,5.056,1.194,7.824c0,3.071-0.446,5.853-1.337,8.336
	c-0.894,2.484-2.172,4.609-3.842,6.373c-1.671,1.765-3.689,3.131-6.062,4.098c-2.371,0.968-5.016,1.451-7.938,1.451H286.254z
	 M315.959,215.064c0-2.541-0.36-4.885-1.082-7.028c-0.721-2.144-1.772-3.992-3.158-5.548c-1.385-1.555-3.081-2.77-5.092-3.643
	c-2.012-0.872-4.325-1.31-6.942-1.31h-10.527v35.168h10.527c2.654,0,4.998-0.445,7.027-1.338c2.028-0.892,3.728-2.134,5.094-3.728
	c1.364-1.594,2.397-3.462,3.102-5.604C315.608,219.893,315.959,217.568,315.959,215.064z"/>
<path fill="#222221" d="M338.094,194.92h2.505l17.07,40.402h-3.071l-5.635-13.315h-19.291l-5.634,13.315h-3.129L338.094,194.92z
	 M348.167,219.617l-8.819-21.169l-8.991,21.169H348.167z"/>
<path fill="#222221" d="M363.815,235.322V194.92h13.431c3.188,0,5.983,0.532,8.395,1.594c2.407,1.063,4.409,2.503,6.003,4.325
	c1.593,1.82,2.787,3.954,3.585,6.401c0.797,2.447,1.194,5.056,1.194,7.824c0,3.071-0.446,5.853-1.338,8.336
	c-0.892,2.484-2.172,4.609-3.841,6.373c-1.67,1.765-3.69,3.131-6.061,4.098c-2.371,0.968-5.018,1.451-7.938,1.451H363.815z
	 M393.52,215.064c0-2.541-0.361-4.885-1.082-7.028c-0.722-2.144-1.773-3.992-3.158-5.548c-1.385-1.555-3.082-2.77-5.092-3.643
	c-2.013-0.872-4.325-1.31-6.942-1.31h-10.526v35.168h10.526c2.654,0,4.997-0.445,7.027-1.338c2.028-0.892,3.728-2.134,5.093-3.728
	s2.399-3.462,3.102-5.604C393.168,219.893,393.52,217.568,393.52,215.064z"/>
<g>
	<path fill="#222221" d="M134.39,241.67l3.398,9.508l3.364-9.508h2.566l-4.904,12.571h-2.054l-4.939-12.571H134.39z"/>
	<path fill="#222221" d="M176.315,254.241V241.67h2.443v12.571H176.315z"/>
	<path fill="#222221" d="M212.626,254.241V241.67h5.561c0.578,0,1.112,0.121,1.603,0.363c0.489,0.242,0.911,0.561,1.267,0.956
		c0.354,0.395,0.632,0.845,0.832,1.346s0.302,1.007,0.302,1.515c0,0.813-0.204,1.556-0.611,2.221
		c-0.406,0.669-0.96,1.148-1.654,1.443l2.867,4.729h-2.743l-2.568-4.215h-2.407v4.215L212.626,254.241L212.626,254.241z
		 M215.07,247.885h3.063c0.224,0,0.434-0.054,0.628-0.158c0.194-0.106,0.362-0.252,0.505-0.435c0.142-0.185,0.254-0.397,0.337-0.646
		c0.082-0.248,0.124-0.515,0.124-0.797c0-0.295-0.048-0.566-0.144-0.814c-0.094-0.248-0.221-0.463-0.38-0.646
		c-0.16-0.183-0.343-0.324-0.55-0.425c-0.206-0.1-0.416-0.149-0.629-0.149h-2.956L215.07,247.885L215.07,247.885z"/>
	<path fill="#222221" d="M264.856,243.813h-4.019v10.43h-2.427v-10.43h-4.02v-2.143h10.464L264.856,243.813L264.856,243.813z"/>
	<path fill="#222221" d="M302.974,252.17c0.579,0,1.064-0.118,1.461-0.354c0.396-0.235,0.715-0.543,0.956-0.922
		c0.242-0.377,0.413-0.811,0.514-1.301c0.102-0.49,0.151-0.994,0.151-1.514v-6.41h2.426v6.41c0,0.861-0.104,1.67-0.312,2.425
		c-0.206,0.756-0.53,1.417-0.974,1.983c-0.442,0.565-1.013,1.016-1.709,1.346c-0.696,0.331-1.528,0.496-2.496,0.496
		c-1.004,0-1.856-0.174-2.559-0.521c-0.702-0.349-1.272-0.81-1.709-1.382c-0.438-0.573-0.752-1.235-0.947-1.991
		c-0.194-0.756-0.292-1.541-0.292-2.354v-6.41h2.443v6.41c0,0.53,0.05,1.042,0.149,1.53c0.101,0.49,0.271,0.925,0.515,1.303
		c0.241,0.377,0.558,0.682,0.946,0.911C301.929,252.055,302.407,252.17,302.974,252.17z"/>
	<path fill="#222221" d="M345.237,241.67h2.16l4.781,12.571h-2.516l-1.169-3.134h-4.392l-1.15,3.134h-2.515L345.237,241.67z
		 M348.051,249.391l-1.734-4.94l-1.808,4.94H348.051z"/>
	<path fill="#222221" d="M384.807,254.241V241.67h2.442v10.43h6.41v2.143L384.807,254.241L384.807,254.241z"/>
</g>
<g>
	<g opacity="0.6">
		<path fill="#222221" d="M531.285,270.364c-0.054,0-0.105-0.019-0.151-0.052c-0.076-0.059-0.112-0.155-0.093-0.25l8.241-38.983
			l-130.3,38.981c-0.106,0.035-0.221-0.01-0.28-0.103s-0.053-0.214,0.02-0.299c0.189-0.226,19.079-22.989,19.079-68.66
			s-18.89-68.436-19.079-68.66c-0.071-0.085-0.079-0.206-0.02-0.299s0.173-0.138,0.28-0.103l130.3,38.982l-8.241-38.983
			c-0.021-0.095,0.017-0.192,0.093-0.251c0.078-0.058,0.182-0.066,0.268-0.022l132.626,69.114c0.083,0.043,0.135,0.129,0.135,0.222
			s-0.052,0.179-0.135,0.222l-132.626,69.114C531.365,270.354,531.324,270.364,531.285,270.364z M539.615,230.469
			c0.062,0,0.123,0.023,0.169,0.066c0.065,0.06,0.094,0.148,0.075,0.234l-8.219,38.877L663.37,201l-131.729-68.647l8.219,38.877
			c0.019,0.086-0.01,0.176-0.075,0.235c-0.063,0.06-0.157,0.08-0.24,0.056l-129.947-38.877c3.007,3.964,18.704,26.67,18.704,68.356
			c0,41.686-15.697,64.393-18.704,68.355l129.947-38.877C539.567,230.473,539.589,230.469,539.615,230.469z"/>
	</g>
	<g opacity="0.6">
		<path fill="#222221" d="M409.076,270.01l-0.33-0.375l68.378-60.322c0.066-0.061,0.163-0.08,0.245-0.049l61.848,21.057
			l-9.414-28.049c-0.029-0.088-0.008-0.188,0.059-0.254c0.066-0.065,0.167-0.091,0.254-0.063l81.762,25.963
			c0.116,0.037,0.189,0.151,0.174,0.272c-0.018,0.119-0.117,0.211-0.239,0.216l-71.793,2.55l14.06,27.284l-0.445,0.229
			l-14.191-27.545l-62.093-21.14L409.076,270.01z M530.433,202.58l9.358,27.882l70.559-2.505L530.433,202.58z"/>
	</g>
	<g opacity="0.6">
		<path fill="#222221" d="M611.8,228.405c-0.046,0-0.093-0.013-0.134-0.039l-63.134-40.085l-18.342,14.109
			c-0.034,0.025-0.075,0.043-0.118,0.049l-52.75,7.309c-0.018,0.001-0.034,0.004-0.051,0.001l-49.325-3.261
			c-0.102-0.006-0.188-0.074-0.221-0.172c-0.033-0.097-0.002-0.201,0.075-0.269l58.628-49.867l-46.495,12.061
			c-0.094,0.021-0.189-0.008-0.252-0.079l-30.961-35.822l0.379-0.326l30.858,35.704l47.399-12.295
			c0.021-0.005,0.045-0.006,0.066-0.008l0,0c0,0,0,0,0.002,0h0.001h0.001h0.001h0.001h0.001h0.001h0.001h0.001h0.001h0.001
			c0.031,0.002,0.063,0.011,0.093,0.024l0,0c0,0.001,0.001,0.001,0.001,0.001h0.001l0.001,0.001h0.001c0,0,0,0.001,0.001,0.001
			c0,0,0,0,0.001,0c0,0,0,0,0.001,0.001l0,0c0.001,0,0.001,0,0.001,0.001h0.001l60.376,31.929l-8.519-15.971
			c-0.012-0.021-0.021-0.041-0.025-0.063l0,0v-0.001c0-0.001,0-0.001,0-0.001l-0.001-0.001v-0.001l0,0
			c-0.002-0.008-0.003-0.016-0.004-0.023l0,0c0-0.001,0-0.001,0-0.002v-0.001l0,0c0-0.001,0-0.001-0.001-0.002l0,0
			c0-0.001,0-0.003,0-0.004l0,0c-0.005-0.05,0.006-0.101,0.032-0.146l0,0c0-0.001,0-0.001,0-0.001
			c0.001-0.001,0.001-0.001,0.001-0.001v-0.001c0.001,0,0.001,0,0.001,0c0-0.001,0-0.001,0.001-0.002l0,0v-0.001
			c0.001,0,0.001-0.001,0.001-0.001v-0.001c0.001,0,0.001,0,0.001-0.001l0,0c0.027-0.044,0.067-0.077,0.112-0.097
			c0.018-0.008,0.036-0.014,0.056-0.017h0.001h0.001l0.001-0.001c-0.002,0,0.019-0.002,0.029-0.003l60.334-3.612
			c0.082-0.001,0.157,0.03,0.209,0.093l37.979,46.871c0.072,0.09,0.074,0.217,0.004,0.309c-0.068,0.093-0.193,0.125-0.299,0.078
			l-96.515-42.467l70.641,55.656c0.105,0.082,0.127,0.232,0.05,0.341C611.956,228.368,611.878,228.405,611.8,228.405z
			 M548.709,187.801l59.075,37.508l-67.389-53.094L548.709,187.801z M540.662,171.469l96.424,42.428l-37.248-45.971L540.662,171.469
			z M428.594,206.03l48.489,3.206l9.962-52.922L428.594,206.03z M487.605,156.046l-10.006,53.159l52.341-7.251l18.119-13.938
			L487.605,156.046z"/>
	</g>
	<g opacity="0.6">
		
			<rect x="433.684" y="167.108" transform="matrix(-0.9546 -0.2979 0.2979 -0.9546 792.4038 495.0548)" fill="#222221" width="0.498" height="40.052"/>
	</g>
	<g opacity="0.6">
		
			<rect x="512.631" y="161.532" transform="matrix(-0.2889 -0.9574 0.9574 -0.2889 470.7729 747.1628)" fill="#222221" width="0.5" height="74.411"/>
	</g>
	<g opacity="0.6">
		<g>
			<circle fill="#222221" cx="531.377" cy="269.822" r="1.875"/>
		</g>
		<g>
			<circle fill="#222221" cx="539.539" cy="230.793" r="2.25"/>
		</g>
		<g>
			<circle fill="#222221" cx="553.539" cy="258.46" r="2.25"/>
		</g>
		<g>
			<circle fill="#222221" cx="530.024" cy="202.394" r="1.394"/>
		</g>
		<g>
			<circle fill="#222221" cx="439.872" cy="168" r="1.394"/>
		</g>
		<g>
			<circle fill="#222221" cx="637.93" cy="214.458" r="1.394"/>
		</g>
		<g>
			<circle fill="#222221" cx="548.52" cy="187.977" r="1.852"/>
		</g>
		<g>
			<circle fill="#222221" cx="599.951" cy="167.669" r="1.852"/>
		</g>
		<g>
			<circle fill="#222221" cx="611.292" cy="228.155" r="2.936"/>
		</g>
		<g>
			<circle fill="#222221" cx="539.539" cy="171.535" r="3.75"/>
		</g>
		<g>
			<circle fill="#222221" cx="409.664" cy="132.785" r="2.375"/>
		</g>
		<g>
			<circle fill="#222221" cx="427.963" cy="206.239" r="1.781"/>
		</g>
		<g>
			<circle fill="#222221" cx="487.591" cy="155.333" r="1.781"/>
		</g>
		<g>
			<circle fill="#222221" cx="477.289" cy="209.5" r="3.031"/>
		</g>
		<g>
			<circle fill="#222221" cx="663.911" cy="201" r="2.741"/>
		</g>
		<g>
			<circle fill="#222221" cx="408.911" cy="269.572" r="2.688"/>
		</g>
	</g>
</g>
<g opacity="0.3">
	<g opacity="0.6">
		<path fill="#222221" d="M528.101,275.27c-0.044,0-0.089-0.013-0.128-0.035c-0.074-0.045-0.121-0.125-0.122-0.211l-0.533-34.57
			l-121.522,34.515c-0.104,0.032-0.219-0.012-0.277-0.104c-0.061-0.092-0.053-0.213,0.02-0.297
			c0.19-0.226,19.079-22.989,19.079-68.66c0-45.671-18.889-68.437-19.079-68.66c-0.071-0.085-0.079-0.206-0.019-0.299
			c0.06-0.093,0.173-0.139,0.279-0.104l130.3,38.982l-8.24-38.983c-0.021-0.095,0.016-0.192,0.093-0.251
			c0.078-0.057,0.181-0.066,0.267-0.022l132.626,69.114c0.083,0.043,0.136,0.129,0.136,0.223c0,0.093-0.053,0.179-0.136,0.222
			L528.215,275.24C528.18,275.259,528.141,275.27,528.101,275.27z M527.563,239.873c0.053,0,0.104,0.018,0.148,0.05
			c0.063,0.046,0.101,0.119,0.102,0.196l0.531,34.49l131.842-68.705l-131.73-68.647l8.219,38.877c0.02,0.086-0.01,0.176-0.074,0.235
			c-0.063,0.061-0.157,0.079-0.24,0.056l-129.948-38.877c3.007,3.964,18.705,26.67,18.705,68.356
			c0,41.736-15.736,64.447-18.716,68.371l121.095-34.394C527.517,239.876,527.54,239.873,527.563,239.873z"/>
	</g>
	<g opacity="0.6">
		<path fill="#222221" d="M405.925,274.878l-0.397-0.303l56.367-74.2c0.076-0.102,0.219-0.129,0.328-0.063l65.281,39.482
			l17.842-22.186c0.062-0.076,0.159-0.111,0.254-0.086l63.074,15.291c0.119,0.029,0.2,0.141,0.19,0.263
			c-0.009,0.122-0.104,0.22-0.228,0.229l-80.521,7.018l22.728,22.756l-0.354,0.354l-23.085-23.113l-65.25-39.465L405.925,274.878z
			 M545.637,218.048l-17.513,21.775l78.949-6.88L545.637,218.048z"/>
	</g>
	<g opacity="0.6">
		<path fill="#222221" d="M608.616,233.311c-0.038,0-0.076-0.01-0.112-0.026l-97.422-49.097l34.633,33.401
			c0.08,0.077,0.101,0.198,0.047,0.296c-0.052,0.101-0.156,0.149-0.271,0.13l-83.387-17.229l-37.256,10.601
			c-0.113,0.035-0.233-0.019-0.289-0.121c-0.057-0.104-0.031-0.232,0.059-0.31l58.216-49.517l-34.203,14.485
			c-0.088,0.036-0.192,0.021-0.265-0.045l-42.806-38.609l0.334-0.371l42.688,38.503l35.557-15.058
			c0.016-0.008,0.032-0.013,0.051-0.017c0,0,0,0,0.001,0c0,0,0.001-0.001,0.003-0.001l0,0c0.024-0.005,0.051-0.005,0.074-0.002
			c0.001,0,0.001,0,0.001,0s0.001,0,0.002,0c0,0,0,0,0.001,0h0.001c0.001,0,0.001,0,0.002,0.001l0,0
			c0.044,0.006,0.087,0.023,0.123,0.054c0.004,0.003,0.007,0.006,0.01,0.008l25.38,22.559l26.581-7
			c0.032-0.007,0.068-0.009,0.098-0.006l60.288-3.614c0.079,0.004,0.158,0.03,0.209,0.093l37.979,46.871
			c0.072,0.09,0.074,0.217,0.004,0.31c-0.069,0.092-0.195,0.125-0.299,0.076l-96.516-42.466l70.642,55.656
			c0.102,0.079,0.126,0.223,0.057,0.331C608.78,233.27,608.699,233.311,608.616,233.311z M510.42,183.293l96.088,48.425
			l-70.141-55.263L510.42,183.293z M537.478,176.373l96.424,42.427l-37.248-45.97L537.478,176.373z M462.478,200.352l82.269,16.996
			l-35.196-33.944l-25.244-22.438L462.478,200.352z M483.353,161.651l-57.534,48.937l36.106-10.273L483.353,161.651z"/>
	</g>
	<g opacity="0.6">
		
			<rect x="436.427" y="172.09" transform="matrix(-0.8321 -0.5547 0.5547 -0.8321 692.7192 596.593)" fill="#222221" width="0.5" height="42.675"/>
	</g>
	<g opacity="0.6">
		
			<rect x="485.631" y="166.533" transform="matrix(-0.3399 -0.9405 0.9405 -0.3399 470.5639 714.0369)" fill="#222221" width="0.5" height="50.673"/>
	</g>
	<g opacity="0.6">
		<g>
			<circle fill="#222221" cx="528.194" cy="274.727" r="1.875"/>
		</g>
		<g>
			<circle fill="#222221" cx="527.488" cy="240.197" r="2.25"/>
		</g>
		<g>
			<circle fill="#222221" cx="550.355" cy="263.364" r="2.25"/>
		</g>
		<g>
			<circle fill="#222221" cx="545.526" cy="217.969" r="1.394"/>
		</g>
		<g>
			<circle fill="#222221" cx="448.532" cy="175.691" r="1.394"/>
		</g>
		<g>
			<circle fill="#222221" cx="634.745" cy="219.362" r="1.394"/>
		</g>
		<g>
			<circle fill="#222221" cx="509.719" cy="183.22" r="1.852"/>
		</g>
		<g>
			<circle fill="#222221" cx="596.767" cy="172.573" r="1.852"/>
		</g>
		<g>
			<circle fill="#222221" cx="608.108" cy="233.06" r="2.936"/>
		</g>
		<g>
			<circle fill="#222221" cx="536.355" cy="176.439" r="3.75"/>
		</g>
		<g>
			<circle fill="#222221" cx="406.48" cy="137.689" r="2.375"/>
		</g>
		<g>
			<circle fill="#222221" cx="424.78" cy="211.144" r="1.781"/>
		</g>
		<g>
			<circle fill="#222221" cx="484.407" cy="160.237" r="1.781"/>
		</g>
		<g>
			<circle fill="#222221" cx="462.093" cy="200.526" r="3.031"/>
		</g>
		<g>
			<circle fill="#222221" cx="660.727" cy="205.904" r="2.741"/>
		</g>
		<g>
			<circle fill="#222221" cx="405.727" cy="274.477" r="2.688"/>
		</g>
	</g>
</g>
</svg>
