<?xml version="1.0" encoding="utf-8"?>
<!-- Generator: Adobe Illustrator 16.0.0, SVG Export Plug-In . SVG Version: 6.00 Build 0)  -->
<!DOCTYPE svg PUBLIC "-//W3C//DTD SVG 1.1//EN" "http://www.w3.org/Graphics/SVG/1.1/DTD/svg11.dtd">
<svg version="1.1" id="Capa_1" xmlns="http://www.w3.org/2000/svg" xmlns:xlink="http://www.w3.org/1999/xlink" x="0px" y="0px"
	 width="682px" height="396px" viewBox="0 0 682 396" enable-background="new 0 0 682 396" xml:space="preserve">
<g>
	<g opacity="0.3">
		<g>
			<path fill="#FFFFFF" d="M162.513,330.238c-0.094,0-0.185-0.048-0.236-0.132l-17.042-27.414l-78.362-10.005
				c-0.146-0.019-0.252-0.146-0.243-0.294c0.009-0.146,0.131-0.261,0.278-0.261h376.884c0.149,0,0.272,0.118,0.278,0.268
				c0.006,0.15-0.108,0.277-0.258,0.288l-96.823,7.234l-54.385,21.692c-0.045,0.019-0.095,0.024-0.146,0.018l-67.429-10.564
				l-62.434,19.157C162.567,330.234,162.54,330.238,162.513,330.238z M71.285,292.689l74.151,9.467
				c0.083,0.011,0.157,0.06,0.201,0.13l16.999,27.346l62.291-19.113c0.039-0.014,0.082-0.016,0.125-0.01l67.417,10.563
				l54.354-21.681c0.026-0.01,0.055-0.018,0.083-0.02l89.426-6.682H71.285L71.285,292.689z"/>
		</g>
		<g>
			<path fill="#FFFFFF" d="M162.513,330.238c-0.07,0-0.14-0.025-0.193-0.078c-0.084-0.08-0.109-0.204-0.063-0.311l16.051-37
				l-32.828,9.85l-0.16-0.532l33.402-10.021c0.104-0.029,0.216,0.001,0.288,0.082c0.072,0.081,0.09,0.196,0.047,0.295
				l-15.992,36.864l77.41-37.226c0.117-0.057,0.26-0.023,0.341,0.081c0.081,0.104,0.077,0.25-0.008,0.35l-14.768,17.404
				l38.376-17.836c0.106-0.052,0.234-0.027,0.317,0.059l27.71,28.682l16.663-28.628c0.06-0.103,0.181-0.15,0.293-0.134l37.578,7.237
				l-0.105,0.547l-37.383-7.2l-16.748,28.774c-0.044,0.076-0.121,0.126-0.207,0.138c-0.086,0.007-0.173-0.021-0.234-0.083
				l-27.828-28.804l-39.347,18.287c-0.117,0.057-0.259,0.021-0.338-0.083c-0.08-0.104-0.076-0.249,0.009-0.349l14.741-17.374
				l-76.903,36.981C162.595,330.229,162.554,330.238,162.513,330.238z"/>
		</g>
	</g>
	<g opacity="0.3">
		<circle fill="#FFFFFF" cx="145.54" cy="302.572" r="1.253"/>
	</g>
	<g opacity="0.3">
		<circle fill="#FFFFFF" cx="162.466" cy="329.773" r="2.366"/>
	</g>
	<g opacity="0.3">
		<circle fill="#FFFFFF" cx="178.895" cy="292.411" r="1.253"/>
	</g>
	<g opacity="0.3">
		<circle fill="#FFFFFF" cx="225.101" cy="310.875" r="1.252"/>
	</g>
	<g opacity="0.3">
		<circle fill="#FFFFFF" cx="264.534" cy="292.411" r="1.252"/>
	</g>
	<g opacity="0.3">
		<circle fill="#FFFFFF" cx="346.578" cy="299.648" r="1.252"/>
	</g>
	<g opacity="0.3">
		<path fill="#FFFFFF" d="M445.044,292.411c0,0.69-0.562,1.253-1.253,1.253c-0.692,0-1.254-0.563-1.254-1.253
			c0-0.688,0.562-1.25,1.254-1.25C444.482,291.161,445.044,291.723,445.044,292.411z"/>
	</g>
	<g opacity="0.3">
		<circle fill="#FFFFFF" cx="67.602" cy="292.411" r="2.349"/>
	</g>
	<g opacity="0.3">
		<circle fill="#FFFFFF" cx="239.9" cy="292.411" r="2.348"/>
	</g>
	<g opacity="0.3">
		<circle fill="#FFFFFF" cx="292.639" cy="321.357" r="2.348"/>
	</g>
	<g opacity="0.3">
		<circle fill="#FFFFFF" cx="310.183" cy="292.411" r="2.348"/>
	</g>
	<g opacity="0.3">
		<g>
			<path fill="#FFFFFF" d="M162.513,330.238c-0.094,0-0.185-0.048-0.236-0.132l-17.042-27.414l-78.362-10.005
				c-0.146-0.019-0.252-0.146-0.243-0.294c0.009-0.146,0.131-0.261,0.278-0.261h376.884c0.149,0,0.272,0.118,0.278,0.268
				c0.006,0.15-0.108,0.277-0.258,0.288l-96.823,7.234l-54.385,21.692c-0.045,0.019-0.095,0.024-0.146,0.018l-67.429-10.564
				l-62.434,19.157C162.567,330.234,162.54,330.238,162.513,330.238z M71.285,292.689l74.151,9.467
				c0.083,0.011,0.157,0.06,0.201,0.13l16.999,27.346l62.291-19.113c0.039-0.014,0.082-0.016,0.125-0.01l67.417,10.563
				l54.354-21.681c0.026-0.01,0.055-0.018,0.083-0.02l89.426-6.682H71.285L71.285,292.689z"/>
		</g>
		<g>
			<path fill="#FFFFFF" d="M162.513,330.238c-0.07,0-0.14-0.025-0.193-0.078c-0.084-0.08-0.109-0.204-0.063-0.311l16.051-37
				l-32.828,9.85l-0.16-0.532l33.402-10.021c0.104-0.029,0.216,0.001,0.288,0.082c0.072,0.081,0.09,0.196,0.047,0.295
				l-15.992,36.864l77.41-37.226c0.117-0.057,0.26-0.023,0.341,0.081c0.081,0.104,0.077,0.25-0.008,0.35l-14.768,17.404
				l38.376-17.836c0.106-0.052,0.234-0.027,0.317,0.059l27.71,28.682l16.663-28.628c0.06-0.103,0.181-0.15,0.293-0.134l37.578,7.237
				l-0.105,0.547l-37.383-7.2l-16.748,28.774c-0.044,0.076-0.121,0.126-0.207,0.138c-0.086,0.007-0.173-0.021-0.234-0.083
				l-27.828-28.804l-39.347,18.287c-0.117,0.057-0.259,0.021-0.338-0.083c-0.08-0.104-0.076-0.249,0.009-0.349l14.741-17.374
				l-76.903,36.981C162.595,330.229,162.554,330.238,162.513,330.238z"/>
		</g>
	</g>
	<g opacity="0.3">
		<circle fill="#FFFFFF" cx="145.54" cy="302.572" r="1.253"/>
	</g>
	<g opacity="0.3">
		<circle fill="#FFFFFF" cx="162.466" cy="329.773" r="2.366"/>
	</g>
	<g opacity="0.3">
		<circle fill="#FFFFFF" cx="178.895" cy="292.411" r="1.253"/>
	</g>
	<g opacity="0.3">
		<circle fill="#FFFFFF" cx="225.101" cy="310.875" r="1.252"/>
	</g>
	<g opacity="0.3">
		<circle fill="#FFFFFF" cx="264.534" cy="292.411" r="1.252"/>
	</g>
	<g opacity="0.3">
		<circle fill="#FFFFFF" cx="346.578" cy="299.648" r="1.252"/>
	</g>
	<g opacity="0.3">
		<circle fill="#FFFFFF" cx="239.9" cy="292.411" r="2.348"/>
	</g>
	<g opacity="0.3">
		<circle fill="#FFFFFF" cx="292.639" cy="321.357" r="2.348"/>
	</g>
	<g opacity="0.3">
		<circle fill="#FFFFFF" cx="310.183" cy="292.411" r="2.348"/>
	</g>
</g>
<g>
	<g opacity="0.3">
		<g>
			<path fill="#FFFFFF" d="M327.013,350.455c-0.028,0-0.055-0.004-0.083-0.013c-0.079-0.023-0.143-0.083-0.175-0.159L307.2,302.887
				l-78.333-10.001c-0.146-0.019-0.252-0.147-0.243-0.294c0.009-0.147,0.131-0.261,0.278-0.261h376.883
				c0.148,0,0.271,0.118,0.278,0.268c0.006,0.15-0.108,0.277-0.259,0.288l-96.731,7.228l-20.612,29.817
				c-0.062,0.09-0.17,0.138-0.279,0.115l-101.119-18.771l-59.896,39.135C327.119,350.44,327.066,350.455,327.013,350.455z
				 M233.28,292.888l74.151,9.467c0.099,0.013,0.184,0.078,0.222,0.17l19.489,47.236l59.709-39.013
				c0.062-0.037,0.133-0.054,0.203-0.039l101.052,18.758l20.586-29.778c0.047-0.069,0.124-0.113,0.208-0.119l89.425-6.682H233.28
				L233.28,292.888z"/>
		</g>
		<g>
			<path fill="#FFFFFF" d="M327.013,350.455c-0.053,0-0.105-0.015-0.152-0.045c-0.099-0.063-0.146-0.184-0.119-0.298l13.672-57.099
				l-32.938,9.883l-0.16-0.533l33.402-10.021c0.096-0.028,0.198-0.004,0.271,0.063c0.072,0.068,0.103,0.171,0.079,0.268
				l-13.603,56.81l74.957-57.096c0.114-0.086,0.271-0.074,0.371,0.03c0.098,0.103,0.102,0.263,0.01,0.371l-14.767,17.405
				l38.377-17.838c0.083-0.039,0.182-0.033,0.261,0.015l60.936,36.7l-16.52-36.348c-0.043-0.095-0.029-0.206,0.035-0.287
				c0.064-0.083,0.17-0.118,0.271-0.102l37.575,7.236l-0.104,0.547l-37.047-7.136l16.665,36.674
				c0.051,0.111,0.022,0.242-0.067,0.323c-0.091,0.082-0.227,0.095-0.329,0.03l-61.575-37.088l-39.393,18.311
				c-0.116,0.056-0.26,0.021-0.339-0.083s-0.075-0.249,0.01-0.349l13.929-16.419l-73.54,56.016
				C327.132,350.437,327.072,350.455,327.013,350.455z"/>
		</g>
	</g>
	<g opacity="0.3">
		<circle fill="#FFFFFF" cx="307.535" cy="302.771" r="1.253"/>
	</g>
	<g opacity="0.3">
		<circle fill="#FFFFFF" cx="326.966" cy="349.992" r="2.366"/>
	</g>
	<g opacity="0.3">
		<path fill="#FFFFFF" d="M342.145,292.609c0,0.692-0.563,1.254-1.254,1.254c-0.691,0-1.252-0.562-1.252-1.254
			c0-0.688,0.562-1.251,1.252-1.251C341.582,291.358,342.145,291.92,342.145,292.609z"/>
	</g>
	<g opacity="0.3">
		<path fill="#FFFFFF" d="M388.35,311.073c0,0.692-0.561,1.254-1.252,1.254s-1.254-0.562-1.254-1.254
			c0-0.688,0.563-1.251,1.254-1.251S388.35,310.384,388.35,311.073z"/>
	</g>
	<g opacity="0.3">
		<path fill="#FFFFFF" d="M427.782,292.609c0,0.692-0.563,1.254-1.252,1.254c-0.691,0-1.253-0.562-1.253-1.254
			c0-0.688,0.562-1.251,1.253-1.251C427.221,291.358,427.782,291.92,427.782,292.609z"/>
	</g>
	<g opacity="0.3">
		<circle fill="#FFFFFF" cx="508.573" cy="299.847" r="1.253"/>
	</g>
	<g opacity="0.3">
		<path fill="#FFFFFF" d="M607.038,292.609c0,0.692-0.563,1.254-1.253,1.254c-0.692,0-1.252-0.562-1.252-1.254
			c0-0.688,0.56-1.25,1.252-1.25C606.477,291.359,607.038,291.921,607.038,292.609z"/>
	</g>
	<g opacity="0.3">
		<path fill="#FFFFFF" d="M231.946,292.609c0,1.297-1.052,2.352-2.348,2.352c-1.297,0-2.349-1.054-2.349-2.352
			c0-1.295,1.052-2.348,2.349-2.348C230.894,290.262,231.946,291.314,231.946,292.609z"/>
	</g>
	<g opacity="0.3">
		<path fill="#FFFFFF" d="M404.243,292.609c0,1.297-1.052,2.352-2.349,2.352s-2.35-1.054-2.35-2.352c0-1.295,1.053-2.348,2.35-2.348
			S404.243,291.314,404.243,292.609z"/>
	</g>
	<g opacity="0.3">
		<circle fill="#FFFFFF" cx="488.372" cy="329.773" r="2.348"/>
	</g>
	<g opacity="0.3">
		<path fill="#FFFFFF" d="M474.526,292.609c0,1.297-1.052,2.352-2.349,2.352s-2.349-1.054-2.349-2.352
			c0-1.295,1.052-2.348,2.349-2.348S474.526,291.314,474.526,292.609z"/>
	</g>
	<g opacity="0.3">
		<g>
			<path fill="#FFFFFF" d="M327.013,350.455c-0.028,0-0.055-0.004-0.083-0.013c-0.079-0.023-0.143-0.083-0.175-0.159L307.2,302.887
				l-78.333-10.001c-0.146-0.019-0.252-0.147-0.243-0.294c0.009-0.147,0.131-0.261,0.278-0.261h376.883
				c0.148,0,0.271,0.118,0.278,0.268c0.006,0.15-0.108,0.277-0.259,0.288l-96.731,7.228l-20.612,29.817
				c-0.062,0.09-0.17,0.138-0.279,0.115l-101.119-18.771l-59.896,39.135C327.119,350.44,327.066,350.455,327.013,350.455z
				 M233.28,292.888l74.151,9.467c0.099,0.013,0.184,0.078,0.222,0.17l19.489,47.236l59.709-39.013
				c0.062-0.037,0.133-0.054,0.203-0.039l101.052,18.758l20.586-29.778c0.047-0.069,0.124-0.113,0.208-0.119l89.425-6.682H233.28
				L233.28,292.888z"/>
		</g>
		<g>
			<path fill="#FFFFFF" d="M327.013,350.455c-0.053,0-0.105-0.015-0.152-0.045c-0.099-0.063-0.146-0.184-0.119-0.298l13.672-57.099
				l-32.938,9.883l-0.16-0.533l33.402-10.021c0.096-0.028,0.198-0.004,0.271,0.063c0.072,0.068,0.103,0.171,0.079,0.268
				l-13.603,56.81l74.957-57.096c0.114-0.086,0.271-0.074,0.371,0.03c0.098,0.103,0.102,0.263,0.01,0.371l-14.767,17.405
				l38.377-17.838c0.083-0.039,0.182-0.033,0.261,0.015l60.936,36.7l-16.52-36.348c-0.043-0.095-0.029-0.206,0.035-0.287
				c0.064-0.083,0.17-0.118,0.271-0.102l37.575,7.236l-0.104,0.547l-37.047-7.136l16.665,36.674
				c0.051,0.111,0.022,0.242-0.067,0.323c-0.091,0.082-0.227,0.095-0.329,0.03l-61.575-37.088l-39.393,18.311
				c-0.116,0.056-0.26,0.021-0.339-0.083s-0.075-0.249,0.01-0.349l13.929-16.419l-73.54,56.016
				C327.132,350.437,327.072,350.455,327.013,350.455z"/>
		</g>
	</g>
	<g opacity="0.3">
		<circle fill="#FFFFFF" cx="307.535" cy="302.771" r="1.253"/>
	</g>
	<g opacity="0.3">
		<circle fill="#FFFFFF" cx="326.966" cy="349.992" r="2.366"/>
	</g>
	<g opacity="0.3">
		<path fill="#FFFFFF" d="M342.145,292.609c0,0.692-0.563,1.254-1.254,1.254c-0.691,0-1.252-0.562-1.252-1.254
			c0-0.688,0.562-1.251,1.252-1.251C341.582,291.358,342.145,291.92,342.145,292.609z"/>
	</g>
	<g opacity="0.3">
		<path fill="#FFFFFF" d="M388.35,311.073c0,0.692-0.561,1.254-1.252,1.254s-1.254-0.562-1.254-1.254
			c0-0.688,0.563-1.251,1.254-1.251S388.35,310.384,388.35,311.073z"/>
	</g>
	<g opacity="0.3">
		<path fill="#FFFFFF" d="M427.782,292.609c0,0.692-0.563,1.254-1.252,1.254c-0.691,0-1.253-0.562-1.253-1.254
			c0-0.688,0.562-1.251,1.253-1.251C427.221,291.358,427.782,291.92,427.782,292.609z"/>
	</g>
	<g opacity="0.3">
		<circle fill="#FFFFFF" cx="508.573" cy="299.847" r="1.253"/>
	</g>
	<g opacity="0.3">
		<path fill="#FFFFFF" d="M404.243,292.609c0,1.297-1.052,2.352-2.349,2.352s-2.35-1.054-2.35-2.352c0-1.295,1.053-2.348,2.35-2.348
			S404.243,291.314,404.243,292.609z"/>
	</g>
	<g opacity="0.3">
		<circle fill="#FFFFFF" cx="488.372" cy="329.773" r="2.348"/>
	</g>
	<g opacity="0.3">
		<path fill="#FFFFFF" d="M474.526,292.609c0,1.297-1.052,2.352-2.349,2.352s-2.349-1.054-2.349-2.352
			c0-1.295,1.052-2.348,2.349-2.348S474.526,291.314,474.526,292.609z"/>
	</g>
</g>
<g>
	<path fill="#FFFFFF" d="M424.353,225.184h-4.497v11.646H417.7v-11.646h-4.517v-1.887h11.168L424.353,225.184L424.353,225.184z"/>
	<path fill="#FFFFFF" d="M430.718,223.297h1.868l5.337,13.532h-2.249l-1.43-3.68h-5.223l-1.41,3.68h-2.269L430.718,223.297z
		 M433.825,231.568l-2.173-5.813l-2.249,5.813H433.825z"/>
	<path fill="#FFFFFF" d="M441.505,236.829v-13.532h2.135v11.646h7.263v1.888L441.505,236.829L441.505,236.829z"/>
	<path fill="#FFFFFF" d="M458.525,223.297h1.867l5.338,13.532h-2.249l-1.431-3.68h-5.223l-1.41,3.68h-2.268L458.525,223.297z
		 M461.633,231.568l-2.173-5.813l-2.249,5.813H461.633z"/>
	<path fill="#FFFFFF" d="M469.01,223.297l4.078,10.845l4.061-10.845h2.269l-5.413,13.532h-1.83l-5.432-13.532H469.01z"/>
	<path fill="#FFFFFF" d="M492.262,234.942v1.888h-9.281v-13.532h9.11v1.887h-6.977v3.852h6.042v1.771h-6.042v4.136L492.262,234.942
		L492.262,234.942z"/>
	<path fill="#FFFFFF" d="M496.378,236.829v-13.532h5.89c0.61,0,1.173,0.127,1.688,0.381c0.515,0.255,0.956,0.588,1.325,1.001
		c0.368,0.413,0.657,0.883,0.867,1.41s0.313,1.063,0.313,1.61c0,0.457-0.063,0.896-0.189,1.314
		c-0.129,0.419-0.307,0.807-0.534,1.163c-0.229,0.354-0.508,0.664-0.839,0.924c-0.33,0.261-0.692,0.454-1.086,0.581l3.183,5.146
		h-2.42l-2.937-4.708h-3.126v4.708L496.378,236.829L496.378,236.829z M498.513,230.234h3.736c0.305,0,0.581-0.065,0.829-0.199
		c0.247-0.134,0.46-0.317,0.638-0.554c0.178-0.233,0.318-0.505,0.42-0.81c0.103-0.307,0.152-0.629,0.152-0.974
		c0-0.343-0.062-0.667-0.181-0.972c-0.121-0.305-0.28-0.572-0.478-0.801c-0.197-0.229-0.426-0.409-0.687-0.543
		c-0.262-0.134-0.53-0.2-0.811-0.2h-3.622v5.052H498.513z"/>
	<path fill="#FFFFFF" d="M514.656,223.297h1.868l5.337,13.532h-2.249l-1.431-3.68h-5.223l-1.41,3.68h-2.268L514.656,223.297z
		 M517.764,231.568l-2.173-5.813l-2.249,5.813H517.764z"/>
	<path fill="#FFFFFF" d="M531.467,236.829v-13.532h4.805c1.093,0,2.049,0.178,2.867,0.533c0.819,0.355,1.506,0.839,2.06,1.448
		c0.553,0.609,0.969,1.324,1.248,2.145c0.278,0.82,0.42,1.693,0.42,2.621c0,1.028-0.156,1.96-0.468,2.792
		c-0.313,0.833-0.754,1.544-1.324,2.135c-0.572,0.591-1.266,1.049-2.077,1.372c-0.813,0.324-1.724,0.486-2.727,0.486H531.467z
		 M540.692,230.044c0-0.712-0.1-1.366-0.296-1.963c-0.197-0.599-0.486-1.108-0.867-1.534s-0.846-0.76-1.393-1.001
		c-0.546-0.241-1.169-0.362-1.867-0.362h-2.669v9.759h2.669c0.711,0,1.345-0.124,1.896-0.372c0.553-0.246,1.016-0.591,1.391-1.028
		c0.375-0.438,0.658-0.956,0.85-1.554C540.597,231.391,540.692,230.743,540.692,230.044z"/>
	<path fill="#FFFFFF" d="M556.302,234.942v1.888h-9.282v-13.532h9.111v1.887h-6.977v3.852h6.042v1.771h-6.042v4.136L556.302,234.942
		L556.302,234.942z"/>
	<path fill="#FFFFFF" d="M567.032,236.829v-13.532h2.135v11.646h7.262v1.888L567.032,236.829L567.032,236.829z"/>
	<path fill="#FFFFFF" d="M584.053,223.297h1.868l5.337,13.532h-2.249l-1.43-3.68h-5.224l-1.409,3.68h-2.269L584.053,223.297z
		 M587.16,231.568l-2.173-5.813l-2.249,5.813H587.16z"/>
	<path fill="#FFFFFF" d="M600.865,236.829v-13.532h5.89c0.61,0,1.172,0.127,1.688,0.381c0.515,0.255,0.956,0.588,1.324,1.001
		s0.657,0.883,0.867,1.41s0.314,1.063,0.314,1.61c0,0.457-0.063,0.896-0.19,1.314c-0.128,0.419-0.306,0.807-0.534,1.163
		c-0.229,0.354-0.508,0.664-0.839,0.924c-0.33,0.261-0.691,0.454-1.086,0.581l3.184,5.146h-2.42l-2.937-4.708H603v4.708
		L600.865,236.829L600.865,236.829z M603,230.234h3.736c0.305,0,0.581-0.065,0.829-0.199c0.247-0.134,0.46-0.317,0.638-0.554
		c0.178-0.233,0.318-0.505,0.42-0.81c0.102-0.307,0.152-0.629,0.152-0.974c0-0.343-0.062-0.667-0.182-0.972
		c-0.121-0.305-0.28-0.572-0.477-0.801c-0.197-0.229-0.426-0.409-0.688-0.543c-0.261-0.134-0.529-0.2-0.81-0.2H603V230.234z"/>
	<path fill="#FFFFFF" d="M624.651,234.942v1.888h-9.282v-13.532h9.111v1.887h-6.978v3.852h6.042v1.771h-6.042v4.136L624.651,234.942
		L624.651,234.942z"/>
	<path fill="#FFFFFF" d="M628.769,236.829v-13.532h2.136v13.532H628.769z"/>
	<path fill="#FFFFFF" d="M637.993,227.299v9.53h-2.135v-13.532h1.678l7.737,9.759v-9.74h2.153v13.515h-1.771L637.993,227.299z"/>
	<path fill="#FFFFFF" d="M656.366,223.297h1.868l5.337,13.532h-2.249l-1.431-3.68h-5.223l-1.41,3.68h-2.268L656.366,223.297z
		 M659.474,231.568l-2.173-5.813l-2.249,5.813H659.474z"/>
</g>
<g>
	<path fill="#FFFFFF" d="M136.945,200.102v13.837H90.516v-13.837h16.239v-34.65c-0.686,0.915-1.772,1.85-3.259,2.802
		c-1.486,0.954-3.107,1.85-4.86,2.688c-1.755,0.84-3.565,1.526-5.432,2.06c-1.869,0.534-3.527,0.8-4.975,0.8v-14.294
		c1.372,0,3.048-0.438,5.032-1.315c1.981-0.875,3.926-1.924,5.832-3.145c1.905-1.219,3.563-2.419,4.975-3.604
		c1.41-1.181,2.305-2.115,2.688-2.802h15.667v51.461H136.945z"/>
	<path fill="#FFFFFF" d="M184.479,202.406v11.531h-38.691v-11.531h13.532v-28.875c-0.572,0.763-1.477,1.541-2.716,2.335
		c-1.239,0.795-2.589,1.542-4.05,2.239c-1.462,0.7-2.971,1.271-4.527,1.715c-1.557,0.445-2.939,0.667-4.146,0.667v-11.911
		c1.144,0,2.541-0.365,4.193-1.097c1.651-0.729,3.271-1.604,4.86-2.621c1.587-1.016,2.969-2.016,4.146-3.002
		c1.175-0.983,1.921-1.763,2.239-2.334h13.056v42.885L184.479,202.406L184.479,202.406z"/>
	<path fill="#FFFFFF" d="M193.055,190.616v-13.532h4.803c1.093,0,2.049,0.179,2.869,0.533c0.819,0.356,1.506,0.839,2.059,1.449
		c0.553,0.609,0.969,1.324,1.248,2.145c0.279,0.819,0.419,1.692,0.419,2.62c0,1.029-0.156,1.96-0.467,2.792
		c-0.312,0.833-0.753,1.544-1.325,2.136c-0.572,0.591-1.265,1.049-2.078,1.372s-1.722,0.485-2.726,0.485H193.055z M202.279,183.831
		c0-0.712-0.099-1.365-0.295-1.963c-0.197-0.598-0.486-1.107-0.867-1.534c-0.381-0.426-0.845-0.76-1.391-1.001
		c-0.547-0.24-1.169-0.361-1.868-0.361h-2.668v9.759h2.668c0.711,0,1.344-0.124,1.896-0.372c0.553-0.247,1.017-0.591,1.392-1.029
		c0.375-0.438,0.657-0.956,0.848-1.553C202.184,185.179,202.279,184.531,202.279,183.831z"/>
	<path fill="#FFFFFF" d="M215.983,188.731v1.887h-9.282v-13.532h9.11v1.888h-6.976v3.851h6.042v1.772h-6.042v4.136L215.983,188.731
		L215.983,188.731z"/>
</g>
<g>
	<path fill="#FFFFFF" d="M293.672,256.493c0-1.066,0.095-2.26,0.286-3.573c0.19-1.315,0.619-2.649,1.287-4.003
		c0.667-1.354,1.639-2.668,2.916-3.945c1.277-1.276,2.982-2.43,5.118-3.459c1.066-0.534,2.21-1.067,3.431-1.602
		c1.219-0.533,2.344-1.152,3.374-1.858c1.029-0.705,1.887-1.515,2.573-2.43c0.686-0.915,1.029-2.021,1.029-3.316
		c0-0.763-0.171-1.523-0.515-2.287c-0.343-0.763-0.849-1.448-1.515-2.059c-0.667-0.609-1.515-1.105-2.544-1.486
		c-1.029-0.381-2.23-0.572-3.602-0.572c-1.335,0-2.526,0.191-3.574,0.572c-1.049,0.381-1.964,0.839-2.745,1.372
		c-0.782,0.534-1.43,1.067-1.944,1.601c-0.514,0.534-0.886,0.953-1.115,1.259l-1.944-2.001c0.152-0.151,0.523-0.523,1.115-1.115
		c0.59-0.59,1.381-1.2,2.373-1.829c0.991-0.629,2.182-1.201,3.574-1.716c1.391-0.516,2.944-0.771,4.66-0.771
		c1.716,0,3.25,0.238,4.603,0.715c1.353,0.478,2.496,1.124,3.431,1.943c0.934,0.82,1.639,1.773,2.116,2.859
		c0.476,1.086,0.715,2.221,0.715,3.401c0,1.563-0.381,2.916-1.144,4.061c-0.763,1.144-1.697,2.145-2.802,3.002
		c-1.106,0.856-2.259,1.572-3.459,2.145c-1.201,0.571-2.24,1.049-3.116,1.43c-2.973,1.258-5.251,2.755-6.833,4.488
		c-1.582,1.734-2.411,3.916-2.487,6.547h20.47v2.631h-23.732V256.493z"/>
	<path fill="#FFFFFF" d="M351.822,239.74c0,2.516-0.354,4.83-1.059,6.945c-0.705,2.116-1.695,3.946-2.974,5.489
		c-1.276,1.544-2.783,2.745-4.517,3.603c-1.735,0.857-3.631,1.287-5.69,1.287c-2.058,0-3.955-0.43-5.689-1.287
		c-1.735-0.856-3.231-2.059-4.489-3.603c-1.258-1.543-2.24-3.373-2.945-5.489c-0.706-2.115-1.058-4.431-1.058-6.945
		c0-2.518,0.352-4.832,1.058-6.947c0.705-2.116,1.687-3.945,2.945-5.489c1.258-1.544,2.753-2.754,4.489-3.631
		c1.734-0.877,3.631-1.315,5.689-1.315c2.059,0,3.955,0.438,5.69,1.315c1.732,0.877,3.238,2.087,4.517,3.631
		s2.269,3.373,2.974,5.489C351.471,234.908,351.822,237.224,351.822,239.74z M348.906,239.74c0-2.174-0.277-4.165-0.829-5.977
		c-0.554-1.811-1.325-3.354-2.315-4.632c-0.992-1.276-2.183-2.277-3.574-3.002s-2.925-1.086-4.603-1.086
		c-1.678,0-3.212,0.361-4.603,1.086c-1.392,0.725-2.583,1.726-3.573,3.002c-0.992,1.278-1.764,2.821-2.316,4.632
		c-0.553,1.812-0.829,3.803-0.829,5.977c0,2.172,0.276,4.154,0.829,5.945c0.552,1.792,1.324,3.336,2.316,4.631
		c0.991,1.297,2.182,2.299,3.573,3.002c1.391,0.706,2.925,1.06,4.603,1.06c1.677,0,3.211-0.354,4.603-1.06
		c1.393-0.703,2.582-1.705,3.574-3.002c0.99-1.295,1.764-2.839,2.315-4.631C348.629,243.896,348.906,241.912,348.906,239.74z"/>
	<path fill="#FFFFFF" d="M377.21,253.863v2.631h-18.239v-2.631h8.118v-26.417c-0.343,0.457-0.877,0.953-1.601,1.486
		c-0.725,0.534-1.545,1.039-2.459,1.516c-0.916,0.478-1.851,0.878-2.803,1.201c-0.953,0.324-1.812,0.485-2.572,0.485v-2.858
		c0.951,0,1.963-0.258,3.029-0.771c1.067-0.515,2.067-1.095,3.002-1.744c0.935-0.647,1.717-1.267,2.346-1.857
		c0.629-0.59,0.979-0.943,1.058-1.059h2.859v30.02L377.21,253.863L377.21,253.863z"/>
	<path fill="#FFFFFF" d="M402.482,225.846h-22.813v-2.688h27.39l-20.644,40.597h-3.258L402.482,225.846z"/>
</g>
<g>
	<path fill="#FFFFFF" d="M237.908,197.882v43.361h-13.151v-67.662h10.197l35.26,44.408v-44.313h13.151v67.566h-10.673
		L237.908,197.882z"/>
	<path fill="#FFFFFF" d="M312.087,214.585c-3.012,0-5.756-0.59-8.234-1.772c-2.479-1.181-4.594-2.733-6.347-4.66
		c-1.754-1.924-3.116-4.126-4.088-6.604c-0.972-2.479-1.458-5.032-1.458-7.662c0-2.668,0.505-5.241,1.515-7.719
		c1.01-2.479,2.42-4.66,4.231-6.547c1.81-1.888,3.954-3.394,6.433-4.518c2.477-1.124,5.184-1.687,8.119-1.687
		c3.011,0,5.755,0.591,8.234,1.771c2.478,1.183,4.593,2.745,6.347,4.689c1.753,1.943,3.106,4.155,4.06,6.632
		c0.953,2.479,1.43,4.995,1.43,7.548c0,2.668-0.506,5.242-1.515,7.719c-1.011,2.479-2.412,4.66-4.203,6.548
		c-1.792,1.887-3.927,3.401-6.404,4.546C317.728,214.014,315.021,214.585,312.087,214.585z M301.509,194.001
		c0,1.563,0.229,3.079,0.686,4.545c0.458,1.468,1.134,2.772,2.03,3.917c0.896,1.144,2.01,2.059,3.345,2.745
		c1.333,0.687,2.859,1.028,4.574,1.028c1.791,0,3.354-0.361,4.688-1.087c1.334-0.724,2.439-1.667,3.316-2.83
		c0.876-1.161,1.534-2.478,1.973-3.944c0.438-1.467,0.658-2.963,0.658-4.488c0-1.563-0.229-3.078-0.686-4.546
		c-0.458-1.467-1.144-2.763-2.059-3.888c-0.915-1.124-2.03-2.021-3.345-2.688c-1.315-0.667-2.83-1-4.545-1
		c-1.792,0-3.345,0.354-4.66,1.058c-1.315,0.706-2.421,1.631-3.316,2.773c-0.896,1.144-1.563,2.45-2.001,3.917
		C301.728,190.98,301.509,192.477,301.509,194.001z"/>
	<path fill="#FFFFFF" d="M342.163,173.645l9.55,28.818l9.434-28.818h9.894l-15.381,40.598h-7.892l-15.553-40.598H342.163z"/>
	<path fill="#FFFFFF" d="M374.813,214.242v-40.598h9.379v40.598H374.813z"/>
	<path fill="#FFFFFF" d="M420.497,206.009v8.233h-28.532v-40.598h28.02v8.234h-18.642v7.891h16.011v7.605h-16.011v8.634H420.497z"/>
	<path fill="#FFFFFF" d="M458.236,214.242v-24.302l-8.807,17.668h-5.03l-8.807-17.668v24.302h-9.378v-40.598h10.179l10.521,21.213
		l10.578-21.213h10.12v40.598H458.236z"/>
	<path fill="#FFFFFF" d="M508.953,203.836c0,1.754-0.362,3.277-1.086,4.574c-0.726,1.296-1.716,2.373-2.975,3.229
		c-1.258,0.857-2.726,1.506-4.402,1.944c-1.678,0.438-3.45,0.657-5.317,0.657h-19.784v-40.598h22.586
		c1.41,0,2.688,0.307,3.831,0.915c1.145,0.61,2.115,1.401,2.916,2.373c0.802,0.972,1.42,2.078,1.858,3.316
		c0.438,1.238,0.657,2.507,0.657,3.802c0,1.944-0.485,3.773-1.458,5.489c-0.973,1.715-2.431,3.012-4.374,3.888
		c2.325,0.686,4.164,1.906,5.518,3.659C508.276,198.842,508.953,201.091,508.953,203.836z M484.767,181.65v8.405h9.206
		c1.029,0,1.943-0.343,2.744-1.029c0.801-0.686,1.201-1.753,1.201-3.202c0-1.334-0.354-2.362-1.059-3.087
		c-0.705-0.724-1.555-1.086-2.544-1.086L484.767,181.65L484.767,181.65z M499.404,201.949c0-1.26-0.362-2.325-1.087-3.203
		c-0.725-0.876-1.64-1.315-2.744-1.315h-10.808v8.862h10.406c1.22,0,2.23-0.399,3.03-1.2
		C499.004,204.293,499.404,203.245,499.404,201.949z"/>
	<path fill="#FFFFFF" d="M514.498,214.242v-40.598h18.298c1.905,0,3.668,0.4,5.289,1.201c1.619,0.8,3.021,1.849,4.202,3.146
		c1.182,1.296,2.105,2.764,2.772,4.402c0.667,1.641,1.001,3.298,1.001,4.976c0,1.258-0.152,2.468-0.458,3.631
		s-0.742,2.258-1.313,3.288c-0.572,1.028-1.27,1.954-2.088,2.772c-0.819,0.82-1.743,1.516-2.772,2.086l8.92,15.097h-10.578
		l-7.775-13.095h-6.118v13.095L514.498,214.242L514.498,214.242z M523.876,192.972h8.577c1.104,0,2.058-0.522,2.857-1.572
		c0.802-1.048,1.201-2.392,1.201-4.03c0-1.678-0.458-3.012-1.373-4.002c-0.914-0.991-1.905-1.487-2.973-1.487h-8.291
		L523.876,192.972L523.876,192.972z"/>
	<path fill="#FFFFFF" d="M581.34,206.009v8.233h-28.532v-40.598h28.02v8.234h-18.642v7.891h16.011v7.605h-16.011v8.634H581.34z"/>
</g>
<g opacity="0.6">
	<g>
		<g>
			<path fill="#FFFFFF" d="M373.359,344.674c-0.039,0-0.076-0.006-0.113-0.018l-77.718-23.147l-49.148,20.05
				c-0.108,0.046-0.228,0.039-0.332-0.014l-66.582-34.209L67.562,293.05c-0.208-0.026-0.359-0.21-0.346-0.419
				c0.014-0.209,0.187-0.372,0.396-0.372h537.639c0.214,0,0.389,0.169,0.396,0.383c0.009,0.213-0.153,0.396-0.366,0.411
				L467.167,303.37l-93.647,41.27C373.469,344.661,373.414,344.674,373.359,344.674z M295.507,320.69
				c0.038,0,0.076,0.006,0.113,0.017l77.712,23.147l93.576-41.237c0.041-0.019,0.086-0.028,0.131-0.032l127.566-9.53H73.857
				l105.779,13.504c0.046,0.006,0.09,0.02,0.131,0.04l66.481,34.157l49.108-20.035C295.405,320.699,295.456,320.69,295.507,320.69z"
				/>
		</g>
		<g>
			<path fill="#FFFFFF" d="M373.359,344.674c-0.016,0-0.03-0.001-0.045-0.003c-0.139-0.017-0.258-0.104-0.315-0.229l-23.649-51.239
				l-53.657,28.236c-0.161,0.083-0.359,0.049-0.48-0.087c-0.122-0.135-0.136-0.336-0.034-0.486l17.53-25.998l-63.879,48.861
				c-0.098,0.075-0.223,0.1-0.343,0.068c-0.119-0.031-0.216-0.116-0.264-0.229l-21.213-50.43l-47.307,14.191l-0.229-0.76
				l47.649-14.295c0.196-0.062,0.401,0.039,0.48,0.227l21.153,50.283l65.397-50.022c0.154-0.118,0.372-0.106,0.514,0.026
				c0.142,0.134,0.166,0.35,0.057,0.511L296.721,320l52.632-27.696c0.097-0.051,0.207-0.059,0.313-0.024
				c0.104,0.035,0.188,0.11,0.232,0.21l23.551,51.027l39.703-51.104c0.094-0.119,0.242-0.176,0.39-0.146l53.604,10.324l-0.149,0.778
				l-53.366-10.277l-39.955,51.428C373.598,344.616,373.48,344.674,373.359,344.674z"/>
		</g>
	</g>
	<g>
		<circle fill="#FFFFFF" cx="179.785" cy="307.149" r="1.787"/>
	</g>
	<g>
		<circle fill="#FFFFFF" cx="246.163" cy="340.926" r="3.375"/>
	</g>
	<g>
		<circle fill="#FFFFFF" cx="227.367" cy="292.656" r="1.787"/>
	</g>
	<g>
		<circle fill="#FFFFFF" cx="295.64" cy="321.22" r="1.787"/>
	</g>
	<g>
		<circle fill="#FFFFFF" cx="349.535" cy="292.656" r="1.787"/>
	</g>
	<g>
		<circle fill="#FFFFFF" cx="466.573" cy="302.98" r="1.787"/>
	</g>
	<g>
		<circle fill="#FFFFFF" cx="605.251" cy="292.656" r="1.787"/>
	</g>
	<g>
		<circle fill="#FFFFFF" cx="68.604" cy="292.656" r="3.35"/>
	</g>
	<g>
		<circle fill="#FFFFFF" cx="314.393" cy="292.656" r="3.35"/>
	</g>
	<g>
		<circle fill="#FFFFFF" cx="373.559" cy="344.276" r="3.35"/>
	</g>
	<g>
		<circle fill="#FFFFFF" cx="414.654" cy="292.656" r="3.351"/>
	</g>
	<g>
		<g>
			<path fill="#FFFFFF" d="M373.359,344.674c-0.039,0-0.076-0.006-0.113-0.018l-77.718-23.147l-49.148,20.05
				c-0.108,0.046-0.228,0.039-0.332-0.014l-66.582-34.209L67.562,293.05c-0.208-0.026-0.359-0.21-0.346-0.419
				c0.014-0.209,0.187-0.372,0.396-0.372h537.639c0.214,0,0.389,0.169,0.396,0.383c0.009,0.213-0.153,0.396-0.366,0.411
				L467.167,303.37l-93.647,41.27C373.469,344.661,373.414,344.674,373.359,344.674z M295.507,320.69
				c0.038,0,0.076,0.006,0.113,0.017l77.712,23.147l93.576-41.237c0.041-0.019,0.086-0.028,0.131-0.032l127.566-9.53H73.857
				l105.779,13.504c0.046,0.006,0.09,0.02,0.131,0.04l66.481,34.157l49.108-20.035C295.405,320.699,295.456,320.69,295.507,320.69z"
				/>
		</g>
		<g>
			<path fill="#FFFFFF" d="M373.359,344.674c-0.016,0-0.03-0.001-0.045-0.003c-0.139-0.017-0.258-0.104-0.315-0.229l-23.649-51.239
				l-53.657,28.236c-0.161,0.081-0.356,0.05-0.478-0.084c-0.122-0.133-0.139-0.332-0.041-0.483l16.924-26.15l-63.268,49.007
				c-0.097,0.075-0.223,0.103-0.344,0.07c-0.119-0.031-0.217-0.116-0.265-0.229l-21.213-50.43l-47.307,14.191l-0.229-0.76
				l47.649-14.295c0.196-0.062,0.401,0.039,0.48,0.227l21.151,50.28l64.702-50.117c0.152-0.118,0.369-0.111,0.512,0.021
				c0.143,0.131,0.17,0.345,0.065,0.508l-17.367,26.836l52.686-27.726c0.098-0.051,0.209-0.059,0.313-0.024
				c0.103,0.035,0.187,0.11,0.231,0.21l23.551,51.027l39.705-51.104c0.093-0.119,0.242-0.176,0.389-0.146l53.604,10.324
				l-0.149,0.778l-53.366-10.277l-39.955,51.428C373.598,344.616,373.48,344.674,373.359,344.674z"/>
		</g>
	</g>
	<g>
		<circle fill="#FFFFFF" cx="179.785" cy="307.149" r="1.787"/>
	</g>
	<g>
		<circle fill="#FFFFFF" cx="246.163" cy="340.926" r="3.375"/>
	</g>
	<g>
		<circle fill="#FFFFFF" cx="227.367" cy="292.656" r="1.787"/>
	</g>
	<g>
		<circle fill="#FFFFFF" cx="295.64" cy="321.22" r="1.787"/>
	</g>
	<g>
		<circle fill="#FFFFFF" cx="349.535" cy="292.656" r="1.787"/>
	</g>
	<g>
		<circle fill="#FFFFFF" cx="466.573" cy="302.98" r="1.787"/>
	</g>
	<g>
		<circle fill="#FFFFFF" cx="314.393" cy="292.656" r="3.35"/>
	</g>
	<g>
		<circle fill="#FFFFFF" cx="373.559" cy="344.276" r="3.35"/>
	</g>
	<g>
		<circle fill="#FFFFFF" cx="414.654" cy="292.656" r="3.351"/>
	</g>
</g>
<g>
	<g opacity="0.3">
		<g>
			<path fill="#FFFFFF" d="M605.385,112.033H228.501c-0.15,0-0.272-0.118-0.278-0.269c-0.005-0.148,0.108-0.277,0.257-0.288
				l96.83-7.234l56.749-19.474c0.041-0.014,0.086-0.02,0.127-0.013l65.094,8.345l48.946-8.343c0.062-0.011,0.124,0,0.181,0.03
				l30.572,16.676l78.441,10.014c0.146,0.02,0.252,0.147,0.242,0.293C605.653,111.919,605.531,112.033,605.385,112.033z
				 M235.962,111.477h365.045l-74.149-9.466c-0.034-0.004-0.067-0.015-0.099-0.032l-30.535-16.654l-48.893,8.334
				c-0.026,0.005-0.054,0.007-0.082,0.001l-65.07-8.343l-56.722,19.463c-0.022,0.009-0.046,0.014-0.07,0.015L235.962,111.477z"/>
		</g>
		<g>
			<path fill="#FFFFFF" d="M431.695,112.033c-0.087,0-0.171-0.041-0.226-0.114c-0.076-0.104-0.069-0.246,0.014-0.344l14.768-17.404
				l-38.376,17.837c-0.105,0.05-0.236,0.026-0.318-0.061L382.18,85.468l-19.01,26.45c-0.063,0.087-0.172,0.13-0.277,0.11
				l-37.579-7.236l0.105-0.547l37.403,7.204l19.102-26.577c0.049-0.067,0.123-0.109,0.206-0.115
				c0.081-0.009,0.163,0.025,0.222,0.085l25.471,26.578l39.346-18.288c0.116-0.055,0.258-0.021,0.339,0.083
				c0.079,0.104,0.075,0.25-0.01,0.349l-14.845,17.494l63.515-26.282c0.091-0.035,0.194-0.024,0.271,0.034
				c0.079,0.06,0.121,0.154,0.11,0.252l-2.738,26.307l33.001-9.9l0.16,0.533l-33.4,10.021c-0.091,0.027-0.187,0.008-0.259-0.052
				c-0.07-0.059-0.107-0.15-0.099-0.243l2.733-26.257l-64.146,26.543C431.768,112.026,431.731,112.033,431.695,112.033z"/>
		</g>
	</g>
	<g opacity="0.3">
		<circle fill="#FFFFFF" cx="526.751" cy="101.595" r="1.253"/>
	</g>
	<g opacity="0.3">
		<circle fill="#FFFFFF" cx="496.319" cy="85.219" r="2.367"/>
	</g>
	<g opacity="0.3">
		<circle fill="#FFFFFF" cx="493.397" cy="111.755" r="1.253"/>
	</g>
	<g opacity="0.3">
		<circle fill="#FFFFFF" cx="447.191" cy="93.291" r="1.253"/>
	</g>
	<g opacity="0.3">
		<circle fill="#FFFFFF" cx="407.758" cy="111.755" r="1.253"/>
	</g>
	<g opacity="0.3">
		<circle fill="#FFFFFF" cx="325.714" cy="104.518" r="1.252"/>
	</g>
	<g opacity="0.3">
		<circle fill="#FFFFFF" cx="228.501" cy="111.755" r="1.252"/>
	</g>
	<g opacity="0.3">
		<circle fill="#FFFFFF" cx="604.69" cy="111.755" r="2.348"/>
	</g>
	<g opacity="0.3">
		<circle fill="#FFFFFF" cx="432.392" cy="111.755" r="2.348"/>
	</g>
	<g opacity="0.3">
		<circle fill="#FFFFFF" cx="382.01" cy="85.033" r="2.349"/>
	</g>
	<g opacity="0.3">
		<circle fill="#FFFFFF" cx="362.109" cy="111.755" r="2.349"/>
	</g>
	<g opacity="0.3">
		<g>
			<path fill="#FFFFFF" d="M605.385,112.033H228.501c-0.15,0-0.272-0.118-0.278-0.269c-0.005-0.148,0.108-0.277,0.257-0.288
				l96.83-7.234l56.749-19.474c0.041-0.014,0.086-0.02,0.127-0.013l65.094,8.345l48.946-8.343c0.062-0.011,0.124,0,0.181,0.03
				l30.572,16.676l78.441,10.014c0.146,0.02,0.252,0.147,0.242,0.293C605.653,111.919,605.531,112.033,605.385,112.033z
				 M235.962,111.477h365.045l-74.149-9.466c-0.034-0.004-0.067-0.015-0.099-0.032l-30.535-16.654l-48.893,8.334
				c-0.026,0.005-0.054,0.007-0.082,0.001l-65.07-8.343l-56.722,19.463c-0.022,0.009-0.046,0.014-0.07,0.015L235.962,111.477z"/>
		</g>
		<g>
			<path fill="#FFFFFF" d="M431.695,112.033c-0.087,0-0.171-0.041-0.226-0.114c-0.076-0.104-0.069-0.246,0.014-0.344l14.768-17.404
				l-38.376,17.837c-0.105,0.05-0.236,0.026-0.318-0.061L382.18,85.468l-19.01,26.45c-0.063,0.087-0.172,0.13-0.277,0.11
				l-37.579-7.236l0.105-0.547l37.403,7.204l19.102-26.577c0.049-0.067,0.123-0.109,0.206-0.115
				c0.081-0.009,0.163,0.025,0.222,0.085l25.471,26.578l39.346-18.288c0.116-0.055,0.258-0.021,0.339,0.083
				c0.079,0.104,0.075,0.25-0.01,0.349l-14.845,17.494l63.515-26.282c0.091-0.035,0.194-0.024,0.271,0.034
				c0.079,0.06,0.121,0.154,0.11,0.252l-2.738,26.307l33.001-9.9l0.16,0.533l-33.4,10.021c-0.091,0.027-0.187,0.008-0.259-0.052
				c-0.07-0.059-0.107-0.15-0.099-0.243l2.733-26.257l-64.146,26.543C431.768,112.026,431.731,112.033,431.695,112.033z"/>
		</g>
	</g>
	<g opacity="0.3">
		<circle fill="#FFFFFF" cx="526.751" cy="101.595" r="1.253"/>
	</g>
	<g opacity="0.3">
		<circle fill="#FFFFFF" cx="496.319" cy="85.219" r="2.367"/>
	</g>
	<g opacity="0.3">
		<circle fill="#FFFFFF" cx="493.397" cy="111.755" r="1.253"/>
	</g>
	<g opacity="0.3">
		<circle fill="#FFFFFF" cx="447.191" cy="93.291" r="1.253"/>
	</g>
	<g opacity="0.3">
		<circle fill="#FFFFFF" cx="407.758" cy="111.755" r="1.253"/>
	</g>
	<g opacity="0.3">
		<circle fill="#FFFFFF" cx="325.714" cy="104.518" r="1.252"/>
	</g>
	<g opacity="0.3">
		<circle fill="#FFFFFF" cx="432.392" cy="111.755" r="2.348"/>
	</g>
	<g opacity="0.3">
		<circle fill="#FFFFFF" cx="382.01" cy="85.033" r="2.349"/>
	</g>
	<g opacity="0.3">
		<circle fill="#FFFFFF" cx="362.109" cy="111.755" r="2.349"/>
	</g>
</g>
<g>
	<g opacity="0.3">
		<g>
			<path fill="#FFFFFF" d="M443.391,111.835H66.506c-0.15,0-0.272-0.118-0.278-0.269c-0.005-0.148,0.108-0.276,0.257-0.288
				l96.762-7.229l27.001-27.503c0.063-0.065,0.156-0.093,0.246-0.08l94.795,16.436l48.942-8.343c0.063-0.01,0.126,0,0.18,0.03
				l30.571,16.676l78.443,10.015c0.146,0.02,0.252,0.147,0.242,0.294C443.659,111.721,443.537,111.835,443.391,111.835z
				 M73.967,111.278h365.046l-74.151-9.467c-0.034-0.004-0.067-0.015-0.1-0.032l-30.533-16.654l-48.894,8.334
				c-0.031,0.005-0.063,0.005-0.094,0L190.543,77.04l-26.972,27.473c-0.047,0.048-0.111,0.078-0.178,0.083L73.967,111.278z"/>
		</g>
		<g>
			<path fill="#FFFFFF" d="M269.701,111.835c-0.087,0-0.171-0.041-0.225-0.114c-0.076-0.104-0.07-0.246,0.013-0.344l14.767-17.404
				L245.88,111.81c-0.085,0.039-0.185,0.034-0.266-0.017l-54.686-34.418l10.287,34.103c0.028,0.093,0.005,0.195-0.06,0.268
				c-0.065,0.071-0.162,0.105-0.259,0.087l-37.577-7.237l0.105-0.547l37.125,7.149L190.18,76.822
				c-0.033-0.11,0.005-0.23,0.098-0.302c0.091-0.07,0.219-0.077,0.317-0.014l55.188,34.733l39.389-18.308
				c0.119-0.055,0.259-0.02,0.338,0.084c0.08,0.104,0.076,0.249-0.009,0.349l-14.843,17.495l63.514-26.282
				c0.089-0.038,0.194-0.025,0.273,0.033c0.079,0.06,0.121,0.154,0.11,0.252l-2.74,26.308l33.001-9.901l0.16,0.533l-33.402,10.021
				c-0.088,0.028-0.186,0.009-0.258-0.052c-0.071-0.06-0.109-0.149-0.099-0.243l2.735-26.257l-64.145,26.543
				C269.772,111.828,269.736,111.835,269.701,111.835z"/>
		</g>
	</g>
	<g opacity="0.3">
		<circle fill="#FFFFFF" cx="364.756" cy="101.396" r="1.252"/>
	</g>
	<g opacity="0.3">
		<circle fill="#FFFFFF" cx="334.324" cy="85.021" r="2.366"/>
	</g>
	<g opacity="0.3">
		<circle fill="#FFFFFF" cx="331.401" cy="111.557" r="1.253"/>
	</g>
	<g opacity="0.3">
		<circle fill="#FFFFFF" cx="285.195" cy="93.093" r="1.253"/>
	</g>
	<g opacity="0.3">
		<circle fill="#FFFFFF" cx="245.762" cy="111.557" r="1.252"/>
	</g>
	<g opacity="0.3">
		<circle fill="#FFFFFF" cx="163.719" cy="104.319" r="1.252"/>
	</g>
	<g opacity="0.3">
		<circle fill="#FFFFFF" cx="66.506" cy="111.557" r="1.252"/>
	</g>
	<g opacity="0.3">
		<circle fill="#FFFFFF" cx="442.695" cy="111.557" r="2.349"/>
	</g>
	<g opacity="0.3">
		<circle fill="#FFFFFF" cx="270.396" cy="111.557" r="2.348"/>
	</g>
	<g opacity="0.3">
		<circle fill="#FFFFFF" cx="190.307" cy="76.742" r="2.348"/>
	</g>
	<g opacity="0.3">
		<circle fill="#FFFFFF" cx="200.113" cy="111.557" r="2.348"/>
	</g>
	<g opacity="0.3">
		<g>
			<path fill="#FFFFFF" d="M443.391,111.835H66.506c-0.15,0-0.272-0.118-0.278-0.269c-0.005-0.148,0.108-0.276,0.257-0.288
				l96.762-7.229l27.001-27.503c0.063-0.065,0.156-0.093,0.246-0.08l94.795,16.436l48.942-8.343c0.063-0.01,0.126,0,0.18,0.03
				l30.571,16.676l78.443,10.015c0.146,0.02,0.252,0.147,0.242,0.294C443.659,111.721,443.537,111.835,443.391,111.835z
				 M73.967,111.278h365.046l-74.151-9.467c-0.034-0.004-0.067-0.015-0.1-0.032l-30.533-16.654l-48.894,8.334
				c-0.031,0.005-0.063,0.005-0.094,0L190.543,77.04l-26.972,27.473c-0.047,0.048-0.111,0.078-0.178,0.083L73.967,111.278z"/>
		</g>
		<g>
			<path fill="#FFFFFF" d="M269.701,111.835c-0.087,0-0.171-0.041-0.225-0.114c-0.076-0.104-0.07-0.246,0.013-0.344l14.767-17.404
				L245.88,111.81c-0.085,0.039-0.185,0.034-0.266-0.017l-54.686-34.418l10.287,34.103c0.028,0.093,0.005,0.195-0.06,0.268
				c-0.065,0.071-0.162,0.105-0.259,0.087l-37.577-7.237l0.105-0.547l37.125,7.149L190.18,76.822
				c-0.033-0.11,0.005-0.23,0.098-0.302c0.091-0.07,0.219-0.077,0.317-0.014l55.188,34.733l39.389-18.308
				c0.119-0.055,0.259-0.02,0.338,0.084c0.08,0.104,0.076,0.249-0.009,0.349l-14.843,17.495l63.514-26.282
				c0.089-0.038,0.194-0.025,0.273,0.033c0.079,0.06,0.121,0.154,0.11,0.252l-2.74,26.308l33.001-9.901l0.16,0.533l-33.402,10.021
				c-0.088,0.028-0.186,0.009-0.258-0.052c-0.071-0.06-0.109-0.149-0.099-0.243l2.735-26.257l-64.145,26.543
				C269.772,111.828,269.736,111.835,269.701,111.835z"/>
		</g>
	</g>
	<g opacity="0.3">
		<circle fill="#FFFFFF" cx="364.756" cy="101.396" r="1.252"/>
	</g>
	<g opacity="0.3">
		<circle fill="#FFFFFF" cx="334.324" cy="85.021" r="2.366"/>
	</g>
	<g opacity="0.3">
		<circle fill="#FFFFFF" cx="331.401" cy="111.557" r="1.253"/>
	</g>
	<g opacity="0.3">
		<circle fill="#FFFFFF" cx="285.195" cy="93.093" r="1.253"/>
	</g>
	<g opacity="0.3">
		<circle fill="#FFFFFF" cx="245.762" cy="111.557" r="1.252"/>
	</g>
	<g opacity="0.3">
		<circle fill="#FFFFFF" cx="163.719" cy="104.319" r="1.252"/>
	</g>
	<g opacity="0.3">
		<circle fill="#FFFFFF" cx="270.396" cy="111.557" r="2.348"/>
	</g>
	<g opacity="0.3">
		<circle fill="#FFFFFF" cx="190.307" cy="76.742" r="2.348"/>
	</g>
	<g opacity="0.3">
		<circle fill="#FFFFFF" cx="200.113" cy="111.557" r="2.348"/>
	</g>
</g>
<g opacity="0.6">
	<g>
		<g>
			<path fill="#FFFFFF" d="M604.681,111.908H67.04c-0.213,0-0.389-0.17-0.397-0.383c-0.008-0.213,0.154-0.395,0.367-0.411
				l138.023-10.312l39.379-44.05c0.095-0.105,0.242-0.152,0.377-0.124L379.098,84.89l87.745-38.428
				c0.191-0.082,0.418-0.005,0.514,0.184l25.606,50.205l111.768,14.269c0.207,0.026,0.358,0.21,0.347,0.419
				C605.063,111.745,604.891,111.908,604.681,111.908z M77.685,111.114h520.75L492.655,97.61c-0.131-0.017-0.244-0.097-0.305-0.214
				l-25.531-50.058L379.3,85.667c-0.077,0.033-0.159,0.041-0.241,0.024L244.851,57.453l-39.333,43.999
				c-0.068,0.076-0.164,0.124-0.266,0.131L77.685,111.114z"/>
		</g>
		<g>
			<path fill="#FFFFFF" d="M356.904,111.908c-0.113,0-0.227-0.05-0.303-0.143c-0.125-0.147-0.125-0.365,0-0.512l21.065-24.828
				l-54.744,25.444c-0.128,0.06-0.28,0.046-0.395-0.034l-77.167-53.878l13.85,53.453c0.034,0.132-0.001,0.271-0.095,0.372
				c-0.093,0.099-0.233,0.139-0.365,0.117l-53.605-10.323l0.15-0.78l52.988,10.205l-13.962-53.885
				c-0.042-0.161,0.021-0.331,0.158-0.427c0.136-0.095,0.318-0.094,0.454,0l77.861,54.363l56.178-26.11
				c0.168-0.081,0.369-0.029,0.482,0.119s0.107,0.355-0.014,0.498l-20.721,24.422l108.078-63.5c0.144-0.084,0.321-0.07,0.452,0.034
				c0.128,0.105,0.179,0.279,0.125,0.437l-21.699,63.957l46.911-14.073l0.229,0.761l-47.648,14.294
				c-0.145,0.042-0.297,0.002-0.399-0.104c-0.104-0.107-0.139-0.264-0.091-0.403l21.604-63.676l-109.178,64.146
				C357.044,111.89,356.975,111.908,356.904,111.908z"/>
		</g>
	</g>
	<g>
		<circle fill="#FFFFFF" cx="492.507" cy="97.018" r="1.787"/>
	</g>
	<g>
		<circle fill="#FFFFFF" cx="467.069" cy="47.09" r="3.375"/>
	</g>
	<g>
		<circle fill="#FFFFFF" cx="444.924" cy="111.511" r="1.787"/>
	</g>
	<g>
		<circle fill="#FFFFFF" cx="379.01" cy="85.171" r="1.787"/>
	</g>
	<g>
		<circle fill="#FFFFFF" cx="322.757" cy="111.511" r="1.787"/>
	</g>
	<g>
		<circle fill="#FFFFFF" cx="205.719" cy="101.187" r="1.787"/>
	</g>
	<g>
		<circle fill="#FFFFFF" cx="67.04" cy="111.511" r="1.787"/>
	</g>
	<g>
		<circle fill="#FFFFFF" cx="603.688" cy="111.511" r="3.35"/>
	</g>
	<g>
		<circle fill="#FFFFFF" cx="357.898" cy="111.511" r="3.351"/>
	</g>
	<g>
		<circle fill="#FFFFFF" cx="244.51" cy="57.017" r="3.35"/>
	</g>
	<g>
		<circle fill="#FFFFFF" cx="257.636" cy="111.511" r="3.35"/>
	</g>
	<g>
		<g>
			<path fill="#FFFFFF" d="M604.681,111.908H67.04c-0.213,0-0.389-0.17-0.397-0.383c-0.008-0.213,0.154-0.395,0.367-0.411
				l138.023-10.312l39.379-44.05c0.095-0.105,0.242-0.152,0.377-0.124L379.098,84.89l87.745-38.428
				c0.191-0.082,0.418-0.005,0.514,0.184l25.606,50.205l111.768,14.269c0.207,0.026,0.358,0.21,0.347,0.419
				C605.063,111.745,604.891,111.908,604.681,111.908z M77.685,111.114h520.75L492.655,97.61c-0.131-0.017-0.244-0.097-0.305-0.214
				l-25.531-50.058L379.3,85.667c-0.077,0.033-0.159,0.041-0.241,0.024L244.851,57.453l-39.333,43.999
				c-0.068,0.076-0.164,0.124-0.266,0.131L77.685,111.114z"/>
		</g>
		<g>
			<path fill="#FFFFFF" d="M356.904,111.908c-0.113,0-0.227-0.05-0.303-0.143c-0.125-0.147-0.125-0.365,0-0.512l21.065-24.828
				l-54.744,25.444c-0.128,0.06-0.28,0.046-0.395-0.034l-77.167-53.878l13.85,53.453c0.034,0.132-0.001,0.271-0.095,0.372
				c-0.093,0.099-0.233,0.139-0.365,0.117l-53.605-10.323l0.15-0.78l52.988,10.205l-13.962-53.885
				c-0.042-0.161,0.021-0.331,0.158-0.427c0.136-0.095,0.318-0.094,0.454,0l77.861,54.363l56.178-26.11
				c0.168-0.081,0.369-0.029,0.482,0.119s0.107,0.355-0.014,0.498l-20.721,24.422l108.078-63.5c0.144-0.084,0.321-0.07,0.452,0.034
				c0.128,0.105,0.179,0.279,0.125,0.437l-21.699,63.957l46.911-14.073l0.229,0.761l-47.648,14.294
				c-0.145,0.042-0.297,0.002-0.399-0.104c-0.104-0.107-0.139-0.264-0.091-0.403l21.604-63.676l-109.178,64.146
				C357.044,111.89,356.975,111.908,356.904,111.908z"/>
		</g>
	</g>
	<g>
		<circle fill="#FFFFFF" cx="492.507" cy="97.018" r="1.787"/>
	</g>
	<g>
		<circle fill="#FFFFFF" cx="467.069" cy="47.09" r="3.375"/>
	</g>
	<g>
		<circle fill="#FFFFFF" cx="444.924" cy="111.511" r="1.787"/>
	</g>
	<g>
		<circle fill="#FFFFFF" cx="379.01" cy="85.171" r="1.787"/>
	</g>
	<g>
		<circle fill="#FFFFFF" cx="322.757" cy="111.511" r="1.787"/>
	</g>
	<g>
		<circle fill="#FFFFFF" cx="205.719" cy="101.187" r="1.787"/>
	</g>
	<g>
		<circle fill="#FFFFFF" cx="357.898" cy="111.511" r="3.351"/>
	</g>
	<g>
		<circle fill="#FFFFFF" cx="244.51" cy="57.017" r="3.35"/>
	</g>
	<g>
		<circle fill="#FFFFFF" cx="257.636" cy="111.511" r="3.35"/>
	</g>
</g>
</svg>
