<?xml version="1.0" encoding="utf-8"?>
<!-- Generator: Adobe Illustrator 16.0.0, SVG Export Plug-In . SVG Version: 6.00 Build 0)  -->
<!DOCTYPE svg PUBLIC "-//W3C//DTD SVG 1.1//EN" "http://www.w3.org/Graphics/SVG/1.1/DTD/svg11.dtd">
<svg version="1.1" id="Capa_1" xmlns="http://www.w3.org/2000/svg" xmlns:xlink="http://www.w3.org/1999/xlink" x="0px" y="0px"
	 width="682px" height="396px" viewBox="0 0 682 396" enable-background="new 0 0 682 396" xml:space="preserve">
<g>
	<path fill="#FFFFFF" d="M114.445,165.896c0-2.534,0.444-5.059,1.336-7.577c0.891-2.515,2.189-4.762,3.893-6.744
		c1.703-1.98,3.793-3.595,6.269-4.843c2.476-1.248,5.298-1.873,8.468-1.873c3.764,0,6.974,0.862,9.627,2.585
		c2.653,1.723,4.636,3.933,5.944,6.625l-2.498,1.428c-0.753-1.467-1.632-2.695-2.644-3.685c-1.011-0.99-2.1-1.793-3.269-2.409
		c-1.169-0.613-2.386-1.057-3.655-1.334c-1.268-0.277-2.516-0.417-3.743-0.417c-2.695,0-5.071,0.546-7.131,1.634
		c-2.06,1.09-3.803,2.506-5.229,4.248c-1.427,1.744-2.504,3.714-3.238,5.913c-0.733,2.199-1.1,4.408-1.1,6.626
		c0,2.496,0.435,4.873,1.308,7.13c0.87,2.26,2.059,4.249,3.565,5.974c1.505,1.722,3.288,3.099,5.348,4.129
		c2.059,1.03,4.278,1.544,6.654,1.544c1.269,0,2.577-0.158,3.922-0.475c1.348-0.318,2.635-0.811,3.864-1.485
		c1.227-0.673,2.375-1.534,3.446-2.585c1.069-1.049,1.96-2.289,2.674-3.714l2.615,1.247c-0.714,1.586-1.685,2.992-2.913,4.22
		c-1.229,1.228-2.596,2.257-4.099,3.089c-1.508,0.832-3.102,1.457-4.785,1.873c-1.684,0.416-3.338,0.622-4.962,0.622
		c-2.892,0-5.537-0.632-7.932-1.901c-2.398-1.267-4.467-2.921-6.21-4.961c-1.743-2.039-3.1-4.357-4.071-6.952
		C114.929,171.234,114.445,168.592,114.445,165.896z"/>
	<path fill="#FFFFFF" d="M174.759,187.587c-2.932,0-5.606-0.614-8.023-1.843c-2.416-1.227-4.496-2.832-6.238-4.813
		c-1.743-1.981-3.09-4.257-4.041-6.833c-0.951-2.576-1.426-5.21-1.426-7.904c0-2.812,0.504-5.506,1.515-8.08
		c1.011-2.576,2.397-4.854,4.161-6.835c1.762-1.979,3.85-3.555,6.268-4.724c2.415-1.169,5.03-1.753,7.844-1.753
		c2.931,0,5.615,0.624,8.052,1.872c2.435,1.247,4.515,2.882,6.239,4.902c1.724,2.021,3.06,4.309,4.011,6.863
		c0.951,2.555,1.426,5.141,1.426,7.754c0,2.852-0.507,5.566-1.515,8.141c-1.011,2.576-2.398,4.845-4.161,6.805
		c-1.764,1.96-3.853,3.527-6.269,4.694C180.187,187.003,177.573,187.587,174.759,187.587z M158.061,166.194
		c0,2.417,0.407,4.745,1.219,6.982c0.811,2.239,1.96,4.22,3.446,5.941c1.486,1.725,3.258,3.102,5.319,4.129
		c2.059,1.032,4.318,1.546,6.774,1.546c2.534,0,4.822-0.534,6.864-1.604c2.039-1.07,3.781-2.485,5.229-4.249
		c1.445-1.762,2.563-3.753,3.356-5.971c0.793-2.22,1.19-4.478,1.19-6.776c0-2.416-0.417-4.743-1.248-6.981
		c-0.833-2.239-1.991-4.221-3.477-5.943c-1.486-1.723-3.238-3.1-5.259-4.13c-2.021-1.03-4.24-1.546-6.655-1.546
		c-2.536,0-4.834,0.535-6.893,1.606c-2.061,1.069-3.823,2.485-5.289,4.249c-1.467,1.763-2.595,3.753-3.388,5.971
		C158.455,161.639,158.061,163.897,158.061,166.194z"/>
	<path fill="#FFFFFF" d="M240.897,187.291v-36.487l-16.639,28.464h-1.902l-16.639-28.464v36.487h-3.03v-42.192h3.03l17.59,30.188
		l17.59-30.188h3.03v42.192H240.897z"/>
	<path fill="#FFFFFF" d="M254.979,187.291v-42.192h17.353c1.783,0,3.425,0.377,4.931,1.128c1.505,0.754,2.803,1.754,3.893,3.001
		c1.089,1.249,1.941,2.656,2.555,4.221c0.614,1.564,0.921,3.14,0.921,4.723c0,1.704-0.287,3.348-0.861,4.933
		c-0.576,1.584-1.388,2.991-2.436,4.218c-1.051,1.228-2.309,2.209-3.774,2.941c-1.466,0.733-3.089,1.099-4.873,1.099h-14.679v15.927
		H254.979z M258.009,168.571h14.56c1.387,0,2.633-0.286,3.745-0.862c1.107-0.574,2.049-1.346,2.822-2.317
		c0.772-0.971,1.366-2.08,1.781-3.329c0.418-1.247,0.625-2.544,0.625-3.891c0-1.386-0.248-2.704-0.743-3.953
		c-0.497-1.247-1.168-2.347-2.021-3.297c-0.851-0.95-1.841-1.702-2.971-2.257c-1.129-0.555-2.328-0.832-3.595-0.832h-14.203V168.571
		z"/>
	<path fill="#FFFFFF" d="M291.88,187.291v-42.192h17.53c1.783,0,3.428,0.377,4.933,1.128c1.505,0.754,2.802,1.754,3.893,3.001
		c1.088,1.249,1.939,2.656,2.555,4.221c0.613,1.564,0.92,3.14,0.92,4.723c0,1.544-0.237,3.04-0.712,4.487
		c-0.475,1.446-1.149,2.744-2.021,3.892c-0.873,1.148-1.922,2.1-3.148,2.853c-1.23,0.751-2.576,1.248-4.042,1.485l10.519,16.402
		H318.8l-10.222-15.927h-13.667v15.927H291.88z M294.911,168.571h14.798c1.345,0,2.574-0.297,3.683-0.892
		c1.109-0.593,2.061-1.376,2.854-2.347c0.792-0.971,1.396-2.079,1.812-3.327c0.416-1.248,0.624-2.526,0.624-3.833
		c0-1.346-0.248-2.644-0.742-3.892c-0.496-1.248-1.169-2.347-2.021-3.298c-0.852-0.951-1.842-1.714-2.971-2.289
		c-1.13-0.574-2.347-0.861-3.654-0.861h-14.381V168.571z"/>
	<path fill="#FFFFFF" d="M343.044,145.099h2.614l17.827,42.192h-3.208l-5.884-13.905h-20.145l-5.881,13.905h-3.27L343.044,145.099z
		 M353.562,170.889l-9.211-22.105l-9.388,22.105H353.562z"/>
	<path fill="#FFFFFF" d="M377.422,174.356h-5.012v12.836h-1.387v-12.836h-5.011v-1.229h11.409V174.356z"/>
	<path fill="#FFFFFF" d="M389.19,186.043c0.882,0,1.619-0.17,2.207-0.505c0.589-0.339,1.057-0.78,1.407-1.328
		c0.35-0.548,0.595-1.172,0.733-1.872c0.138-0.699,0.208-1.407,0.208-2.119v-7.091h1.386v7.091c0,0.951-0.106,1.852-0.317,2.705
		c-0.212,0.851-0.552,1.6-1.019,2.247c-0.469,0.647-1.081,1.162-1.834,1.544c-0.752,0.384-1.67,0.576-2.754,0.576
		c-1.108,0-2.042-0.202-2.801-0.605c-0.76-0.403-1.371-0.935-1.833-1.594c-0.461-0.659-0.792-1.414-0.991-2.258
		c-0.198-0.845-0.296-1.715-0.296-2.615v-7.091h1.367v7.091c0,0.739,0.073,1.46,0.218,2.16c0.144,0.7,0.392,1.32,0.744,1.861
		c0.349,0.542,0.813,0.978,1.395,1.309C387.59,185.877,388.318,186.043,389.19,186.043z"/>
	<path fill="#FFFFFF" d="M166.248,232.054v7.187h-29.295v-42.188h28.761v7.19h-20.562v10.16h17.769v6.655h-17.769v10.995H166.248z"
		/>
	<path fill="#FFFFFF" d="M180.865,212.207v27.033h-8.2v-42.188h6.357l21.988,27.69V197.11h8.2v42.13h-6.654L180.865,212.207z"/>
	<path fill="#FFFFFF" d="M249.56,204.243h-13.489v34.997h-8.143v-34.997h-13.49v-7.19h35.121V204.243z"/>
	<path fill="#FFFFFF" d="M254.786,239.24v-42.188h18.659c1.942,0,3.733,0.406,5.378,1.216c1.644,0.813,3.061,1.883,4.249,3.21
		s2.12,2.832,2.794,4.518c0.672,1.683,1.009,3.375,1.009,5.078c0,2.733-0.682,5.222-2.049,7.461
		c-1.367,2.235-3.219,3.852-5.557,4.842l9.627,15.862h-9.211l-8.616-14.143h-8.083v14.143H254.786z M262.987,217.907h10.281
		c0.751,0,1.456-0.175,2.109-0.534c0.654-0.354,1.219-0.842,1.694-1.454c0.476-0.614,0.852-1.338,1.128-2.167
		c0.278-0.834,0.416-1.725,0.416-2.677c0-0.992-0.159-1.899-0.475-2.733c-0.318-0.831-0.742-1.555-1.277-2.167
		c-0.536-0.616-1.15-1.091-1.843-1.429c-0.693-0.336-1.396-0.503-2.11-0.503h-9.923V217.907z"/>
	<path fill="#FFFFFF" d="M305.652,197.053h7.251l16.044,42.188h-8.439l-3.921-10.517h-14.737l-3.861,10.517h-8.439L305.652,197.053z
		 M315.102,222.96l-5.825-16.58l-6.061,16.58H315.102z"/>
	<path fill="#FFFFFF" d="M333.583,239.24v-42.188h15.332c3.446,0,6.467,0.554,9.063,1.663c2.593,1.108,4.762,2.615,6.505,4.513
		c1.742,1.903,3.051,4.133,3.922,6.69c0.871,2.554,1.307,5.278,1.307,8.165c0,3.213-0.484,6.112-1.453,8.708
		c-0.973,2.599-2.369,4.814-4.191,6.657c-1.823,1.843-4.011,3.267-6.565,4.275c-2.555,1.016-5.417,1.516-8.587,1.516H333.583z
		 M361.451,218.084c0-2.015-0.277-3.881-0.83-5.582c-0.555-1.703-1.367-3.17-2.437-4.396c-1.07-1.228-2.387-2.18-3.952-2.854
		c-1.565-0.673-3.339-1.009-5.318-1.009h-7.132v27.811h7.132c2.02,0,3.813-0.358,5.378-1.072c1.565-0.713,2.872-1.692,3.922-2.939
		c1.049-1.25,1.853-2.725,2.407-4.428C361.174,221.908,361.451,220.07,361.451,218.084z"/>
	<path fill="#FFFFFF" d="M386.648,197.053h7.25l16.046,42.188h-8.44l-3.923-10.517h-14.735l-3.862,10.517h-8.438L386.648,197.053z
		 M396.097,222.96l-5.822-16.58l-6.063,16.58H396.097z"/>
	<path fill="#FFFFFF" d="M367.474,263.072V249.01h5.822c0.608,0,1.166,0.125,1.676,0.385c0.507,0.257,0.946,0.595,1.316,1.013
		c0.37,0.413,0.661,0.887,0.871,1.414c0.211,0.527,0.317,1.063,0.317,1.606c0,0.58-0.098,1.137-0.296,1.673
		c-0.199,0.534-0.478,1.005-0.833,1.414c-0.356,0.41-0.784,0.743-1.278,0.99c-0.493,0.253-1.045,0.378-1.652,0.378h-4.557v5.189
		H367.474z M368.861,256.654h4.497c0.409,0,0.782-0.091,1.118-0.269c0.336-0.177,0.625-0.415,0.862-0.711
		c0.237-0.298,0.422-0.644,0.555-1.034c0.131-0.386,0.197-0.791,0.197-1.213c0-0.438-0.074-0.854-0.227-1.239
		c-0.152-0.391-0.357-0.73-0.614-1.021c-0.259-0.291-0.563-0.515-0.912-0.684c-0.349-0.163-0.716-0.249-1.101-0.249h-4.376V256.654z
		"/>
	<path fill="#FFFFFF" d="M389.421,263.17c-0.977,0-1.87-0.201-2.685-0.602c-0.812-0.403-1.507-0.939-2.088-1.608
		c-0.583-0.663-1.031-1.427-1.349-2.286c-0.316-0.856-0.475-1.736-0.475-2.632c0-0.937,0.169-1.838,0.505-2.697
		c0.337-0.856,0.803-1.616,1.397-2.279c0.594-0.656,1.293-1.182,2.098-1.572c0.808-0.391,1.678-0.582,2.616-0.582
		c0.976,0,1.873,0.204,2.684,0.62c0.813,0.418,1.506,0.96,2.081,1.636c0.573,0.675,1.02,1.439,1.336,2.288
		c0.317,0.853,0.476,1.72,0.476,2.606c0,0.938-0.17,1.834-0.503,2.692c-0.338,0.859-0.801,1.612-1.39,2.27
		c-0.586,0.654-1.282,1.173-2.089,1.563C391.231,262.978,390.361,263.17,389.421,263.17z M384.212,256.042
		c0,0.765,0.125,1.501,0.376,2.208c0.25,0.707,0.606,1.332,1.07,1.88c0.461,0.547,1.011,0.986,1.643,1.309
		c0.635,0.323,1.342,0.483,2.12,0.483c0.793,0,1.514-0.169,2.158-0.513c0.649-0.344,1.197-0.791,1.646-1.347
		c0.449-0.555,0.796-1.186,1.038-1.883c0.246-0.7,0.368-1.414,0.368-2.138c0-0.766-0.129-1.503-0.386-2.21
		c-0.258-0.704-0.617-1.329-1.081-1.872c-0.461-0.542-1.01-0.975-1.642-1.298c-0.636-0.322-1.334-0.485-2.102-0.485
		c-0.793,0-1.512,0.169-2.157,0.505c-0.648,0.338-1.197,0.783-1.645,1.336c-0.45,0.555-0.797,1.184-1.039,1.883
		C384.334,254.601,384.212,255.312,384.212,256.042z"/>
	<path fill="#FFFFFF" d="M402.594,263.072V249.01h5.94c0.607,0,1.165,0.125,1.674,0.385c0.509,0.257,0.948,0.595,1.319,1.013
		c0.369,0.413,0.656,0.887,0.86,1.414s0.307,1.063,0.307,1.606c0,0.513-0.077,1.004-0.229,1.473
		c-0.151,0.471-0.361,0.893-0.633,1.271c-0.272,0.374-0.598,0.692-0.98,0.945c-0.382,0.26-0.812,0.435-1.288,0.528l3.446,5.428
		h-1.565l-3.307-5.189h-4.16v5.189H402.594z M403.979,256.654h4.598c0.406,0,0.78-0.091,1.117-0.269
		c0.337-0.177,0.623-0.42,0.861-0.722c0.239-0.302,0.423-0.647,0.554-1.031c0.134-0.38,0.199-0.783,0.199-1.205
		c0-0.423-0.076-0.83-0.229-1.221c-0.15-0.39-0.356-0.729-0.614-1.021c-0.257-0.289-0.559-0.519-0.909-0.694
		c-0.351-0.169-0.718-0.257-1.101-0.257h-4.477V256.654z"/>
	<path fill="#FFFFFF" d="M558.755,225.319c0.348-1.563,0.933-3.063,1.756-4.491c0.827-1.438,1.871-2.693,3.128-3.78
		c1.26-1.085,2.722-1.954,4.386-2.604c1.663-0.651,3.509-0.979,5.536-0.979c2.836,0,5.291,0.622,7.357,1.867
		c2.069,1.243,3.608,2.866,4.626,4.865l-4.604,3.17c-0.408-0.87-0.897-1.6-1.478-2.19c-0.577-0.6-1.2-1.066-1.867-1.414
		c-0.662-0.349-1.36-0.6-2.082-0.763c-0.724-0.156-1.432-0.236-2.129-0.236c-1.129,0-2.149,0.174-3.06,0.523
		c-0.911,0.349-1.715,0.817-2.409,1.408c-0.693,0.595-1.29,1.289-1.781,2.085c-0.492,0.796-0.867,1.646-1.129,2.539h11.113
		l-1.301,3.212h-10.377v0.479c0,0.607,0.045,1.186,0.13,1.737h10.161l-1.303,3.21h-7.947c0.756,1.62,1.82,2.939,3.194,3.95
		c1.373,1.016,2.973,1.52,4.796,1.52c0.696,0,1.417-0.086,2.172-0.259c0.752-0.171,1.468-0.45,2.148-0.823
		c0.681-0.378,1.31-0.861,1.889-1.454c0.577-0.598,1.042-1.313,1.39-2.151l4.905,2.822c-0.494,1.156-1.193,2.18-2.106,3.063
		c-0.914,0.882-1.938,1.627-3.083,2.232c-1.143,0.612-2.365,1.072-3.669,1.392c-1.301,0.318-2.576,0.477-3.82,0.477
		c-1.707,0-3.305-0.287-4.797-0.867c-1.489-0.578-2.844-1.354-4.06-2.322c-1.213-0.971-2.264-2.108-3.146-3.408
		c-0.883-1.304-1.572-2.695-2.064-4.17h-4.512l1.342-3.21h2.434c-0.087-0.61-0.131-1.246-0.131-1.91v-0.307h-3.038l1.301-3.212
		H558.755z"/>
	<g>
		<g opacity="0.3">
			<g>
				<path fill="#FFFFFF" d="M445.11,349.177c-0.037,0-0.075-0.008-0.111-0.022l-84.34-35.937l-67.329,16.888
					c-0.11,0.028-0.228-0.014-0.297-0.104l-16.891-22.511l-45.808-13.056c-0.136-0.039-0.223-0.172-0.204-0.313
					c0.02-0.141,0.14-0.245,0.282-0.245h353.66c0.153,0,0.278,0.121,0.284,0.273c0.006,0.153-0.11,0.283-0.263,0.294l-98.784,7.38
					l-39.983,47.252C445.272,349.142,445.192,349.177,445.11,349.177z M360.682,312.635c0.038,0,0.076,0.008,0.111,0.022
					l84.235,35.892l39.925-47.183c0.049-0.059,0.119-0.094,0.195-0.1l91.305-6.821H232.447l43.943,12.524
					c0.06,0.018,0.112,0.053,0.149,0.103l16.835,22.437l67.238-16.865C360.635,312.638,360.658,312.635,360.682,312.635z"/>
			</g>
			<g>
				<path fill="#FFFFFF" d="M445.11,349.177c-0.084,0-0.166-0.038-0.222-0.105l-43.929-54.559l-40.157,18.664
					c-0.124,0.057-0.266,0.021-0.346-0.086c-0.081-0.105-0.077-0.254,0.009-0.355l15.136-17.838l-82.229,35.194
					c-0.113,0.045-0.243,0.019-0.324-0.072s-0.096-0.224-0.035-0.33l19.866-35.008l-36.474,12.83l-0.188-0.537l37.19-13.082
					c0.111-0.037,0.237-0.004,0.313,0.086c0.076,0.091,0.087,0.22,0.029,0.323l-19.825,34.936l82.562-35.338
					c0.124-0.047,0.263-0.013,0.341,0.093c0.078,0.106,0.073,0.252-0.012,0.353l-15.078,17.771l39.185-18.212
					c0.122-0.055,0.26-0.021,0.342,0.079l43.586,54.134l1.664-53.964c0.003-0.083,0.042-0.161,0.106-0.213s0.15-0.07,0.231-0.058
					l38.373,7.389l-0.107,0.559l-38.046-7.326l-1.677,54.398c-0.004,0.119-0.081,0.223-0.193,0.261
					C445.17,349.172,445.14,349.177,445.11,349.177z"/>
			</g>
		</g>
		<g opacity="0.3">
			<circle fill="#FFFFFF" cx="276.454" cy="307.385" r="1.279"/>
		</g>
		<g opacity="0.3">
			<circle fill="#FFFFFF" cx="293.213" cy="329.641" r="2.416"/>
		</g>
		<g opacity="0.3">
			<circle fill="#FFFFFF" cx="313.596" cy="294.161" r="1.279"/>
		</g>
		<g opacity="0.3">
			<path fill="#FFFFFF" d="M362.055,313.013c0,0.709-0.572,1.281-1.279,1.281s-1.279-0.572-1.279-1.281
				c0-0.704,0.572-1.278,1.279-1.278S362.055,312.309,362.055,313.013z"/>
		</g>
		<g opacity="0.3">
			<circle fill="#FFFFFF" cx="401.04" cy="294.161" r="1.278"/>
		</g>
		<g opacity="0.3">
			<path fill="#FFFFFF" d="M486.09,301.55c0,0.709-0.574,1.281-1.277,1.281c-0.707,0-1.279-0.572-1.279-1.281
				c0-0.704,0.572-1.279,1.279-1.279C485.516,300.271,486.09,300.846,486.09,301.55z"/>
		</g>
		<g opacity="0.3">
			<path fill="#FFFFFF" d="M585.354,294.161c0,0.707-0.574,1.281-1.281,1.281c-0.705,0-1.277-0.574-1.277-1.281
				c0-0.702,0.572-1.274,1.277-1.274C584.78,292.887,585.354,293.459,585.354,294.161z"/>
		</g>
		<g opacity="0.3">
			<circle fill="#FFFFFF" cx="231.122" cy="294.161" r="2.398"/>
		</g>
		<g opacity="0.3">
			<circle fill="#FFFFFF" cx="375.887" cy="294.161" r="2.398"/>
		</g>
		<g opacity="0.3">
			<circle fill="#FFFFFF" cx="445.254" cy="348.893" r="2.398"/>
		</g>
		<g opacity="0.3">
			<circle fill="#FFFFFF" cx="447.652" cy="294.161" r="2.397"/>
		</g>
		<g opacity="0.3">
			<g>
				<path fill="#FFFFFF" d="M445.11,349.177c-0.037,0-0.075-0.008-0.111-0.022l-84.34-35.937l-67.329,16.888
					c-0.11,0.028-0.228-0.014-0.297-0.104l-16.891-22.511l-45.808-13.056c-0.136-0.039-0.223-0.172-0.204-0.313
					c0.02-0.141,0.14-0.245,0.282-0.245h353.66c0.153,0,0.278,0.121,0.284,0.273c0.006,0.153-0.11,0.283-0.263,0.294l-98.784,7.38
					l-39.983,47.252C445.272,349.142,445.192,349.177,445.11,349.177z M360.682,312.635c0.038,0,0.076,0.008,0.111,0.022
					l84.235,35.892l39.925-47.183c0.049-0.059,0.119-0.094,0.195-0.1l91.305-6.821H232.447l43.943,12.524
					c0.06,0.018,0.112,0.053,0.149,0.103l16.835,22.437l67.238-16.865C360.635,312.638,360.658,312.635,360.682,312.635z"/>
			</g>
			<g>
				<path fill="#FFFFFF" d="M445.11,349.177c-0.084,0-0.166-0.038-0.222-0.105l-43.929-54.559l-40.157,18.664
					c-0.124,0.057-0.266,0.021-0.346-0.086c-0.081-0.105-0.077-0.254,0.009-0.355l15.136-17.838l-82.229,35.194
					c-0.113,0.045-0.243,0.019-0.324-0.072s-0.096-0.224-0.035-0.33l19.866-35.008l-36.474,12.83l-0.188-0.537l37.19-13.082
					c0.111-0.037,0.237-0.004,0.313,0.086c0.076,0.091,0.087,0.22,0.029,0.323l-19.825,34.936l82.562-35.338
					c0.124-0.047,0.263-0.013,0.341,0.093c0.078,0.106,0.073,0.252-0.012,0.353l-15.078,17.771l39.185-18.212
					c0.122-0.055,0.26-0.021,0.342,0.079l43.586,54.134l1.664-53.964c0.003-0.083,0.042-0.161,0.106-0.213s0.15-0.07,0.231-0.058
					l38.373,7.389l-0.107,0.559l-38.046-7.326l-1.677,54.398c-0.004,0.119-0.081,0.223-0.193,0.261
					C445.17,349.172,445.14,349.177,445.11,349.177z"/>
			</g>
		</g>
		<g opacity="0.3">
			<circle fill="#FFFFFF" cx="276.454" cy="307.385" r="1.279"/>
		</g>
		<g opacity="0.3">
			<circle fill="#FFFFFF" cx="293.213" cy="329.641" r="2.416"/>
		</g>
		<g opacity="0.3">
			<circle fill="#FFFFFF" cx="313.596" cy="294.161" r="1.279"/>
		</g>
		<g opacity="0.3">
			<path fill="#FFFFFF" d="M362.055,313.013c0,0.709-0.572,1.281-1.279,1.281s-1.279-0.572-1.279-1.281
				c0-0.704,0.572-1.278,1.279-1.278S362.055,312.309,362.055,313.013z"/>
		</g>
		<g opacity="0.3">
			<circle fill="#FFFFFF" cx="401.04" cy="294.161" r="1.278"/>
		</g>
		<g opacity="0.3">
			<path fill="#FFFFFF" d="M486.09,301.55c0,0.709-0.574,1.281-1.277,1.281c-0.707,0-1.279-0.572-1.279-1.281
				c0-0.704,0.572-1.279,1.279-1.279C485.516,300.271,486.09,300.846,486.09,301.55z"/>
		</g>
		<g opacity="0.3">
			<circle fill="#FFFFFF" cx="375.887" cy="294.161" r="2.398"/>
		</g>
		<g opacity="0.3">
			<circle fill="#FFFFFF" cx="445.254" cy="348.893" r="2.398"/>
		</g>
		<g opacity="0.3">
			<circle fill="#FFFFFF" cx="447.652" cy="294.161" r="2.397"/>
		</g>
	</g>
	<g>
		<g opacity="0.3">
			<g>
				<path fill="#FFFFFF" d="M504.631,347.622c-0.036,0-0.073-0.007-0.108-0.021l-82.088-34.977l-65.531,16.437
					c-0.107,0.024-0.222-0.014-0.289-0.103l-16.438-21.909l-44.584-12.707c-0.133-0.037-0.217-0.167-0.198-0.304
					s0.136-0.238,0.274-0.238h344.215c0.148,0,0.271,0.117,0.276,0.266c0.006,0.149-0.107,0.275-0.256,0.286l-96.15,7.184
					l-38.911,45.989C504.788,347.588,504.71,347.622,504.631,347.622z M422.457,312.057c0.037,0,0.074,0.007,0.108,0.021
					l81.986,34.933l38.854-45.922c0.048-0.057,0.116-0.092,0.19-0.097l88.87-6.64H297.648l42.77,12.19
					c0.058,0.017,0.109,0.051,0.146,0.1l16.384,21.836l65.442-16.414C422.412,312.06,422.435,312.057,422.457,312.057z"/>
			</g>
			<g>
				<path fill="#FFFFFF" d="M504.631,347.622c-0.082,0-0.162-0.036-0.216-0.103l-42.757-53.102l-39.085,18.166
					c-0.118,0.055-0.257,0.02-0.336-0.083c-0.079-0.104-0.075-0.248,0.009-0.347l14.733-17.361l-80.035,34.253
					c-0.109,0.047-0.235,0.019-0.314-0.069c-0.079-0.089-0.093-0.218-0.034-0.321l19.336-34.073l-35.498,12.487l-0.184-0.521
					l36.195-12.732c0.111-0.039,0.229-0.005,0.304,0.083c0.074,0.089,0.086,0.214,0.028,0.314l-19.296,34.002l80.36-34.393
					c0.116-0.053,0.254-0.014,0.331,0.09c0.076,0.104,0.071,0.245-0.012,0.343l-14.678,17.296l38.139-17.726
					c0.115-0.055,0.252-0.021,0.332,0.077l42.423,52.688L506,294.067c0.002-0.081,0.04-0.156,0.104-0.207
					c0.064-0.051,0.146-0.073,0.226-0.056l37.34,7.191l-0.105,0.543l-37.021-7.13l-1.636,52.945
					c-0.004,0.115-0.079,0.217-0.188,0.254C504.69,347.617,504.66,347.622,504.631,347.622z"/>
			</g>
		</g>
		<g opacity="0.3">
			<circle fill="#FFFFFF" cx="340.48" cy="306.947" r="1.244"/>
		</g>
		<g opacity="0.3">
			<circle fill="#FFFFFF" cx="356.791" cy="328.608" r="2.351"/>
		</g>
		<g opacity="0.3">
			<path fill="#FFFFFF" d="M377.874,294.076c0,0.688-0.56,1.247-1.244,1.247c-0.688,0-1.245-0.559-1.245-1.247
				c0-0.687,0.558-1.245,1.245-1.245C377.315,292.831,377.874,293.39,377.874,294.076z"/>
		</g>
		<g opacity="0.3">
			<path fill="#FFFFFF" d="M423.793,312.424c0,0.69-0.557,1.247-1.243,1.247c-0.686,0-1.246-0.557-1.246-1.247
				c0-0.685,0.561-1.244,1.246-1.244C423.237,311.18,423.793,311.739,423.793,312.424z"/>
		</g>
		<g opacity="0.3">
			<circle fill="#FFFFFF" cx="461.738" cy="294.076" r="1.244"/>
		</g>
		<g opacity="0.3">
			<path fill="#FFFFFF" d="M544.518,301.268c0,0.69-0.557,1.247-1.245,1.247c-0.687,0-1.245-0.557-1.245-1.247
				c0-0.686,0.559-1.245,1.245-1.245C543.961,300.022,544.518,300.582,544.518,301.268z"/>
		</g>
		<g opacity="0.3">
			<path fill="#FFFFFF" d="M641.128,294.076c0,0.688-0.56,1.247-1.245,1.247c-0.688,0-1.245-0.559-1.245-1.247
				c0-0.684,0.557-1.24,1.245-1.24C640.569,292.836,641.128,293.393,641.128,294.076z"/>
		</g>
		<g opacity="0.3">
			<circle fill="#FFFFFF" cx="296.359" cy="294.076" r="2.335"/>
		</g>
		<g opacity="0.3">
			<circle fill="#FFFFFF" cx="437.257" cy="294.076" r="2.333"/>
		</g>
		<g opacity="0.3">
			<circle fill="#FFFFFF" cx="504.77" cy="347.346" r="2.334"/>
		</g>
		<g opacity="0.3">
			<circle fill="#FFFFFF" cx="507.104" cy="294.076" r="2.333"/>
		</g>
		<g opacity="0.3">
			<g>
				<path fill="#FFFFFF" d="M504.631,347.622c-0.036,0-0.073-0.007-0.108-0.021l-82.088-34.977l-65.531,16.437
					c-0.107,0.024-0.222-0.014-0.289-0.103l-16.438-21.909l-44.584-12.707c-0.133-0.037-0.217-0.167-0.198-0.304
					s0.136-0.238,0.274-0.238h344.215c0.148,0,0.271,0.117,0.276,0.266c0.006,0.149-0.107,0.275-0.256,0.286l-96.15,7.184
					l-38.911,45.989C504.788,347.588,504.71,347.622,504.631,347.622z M422.457,312.057c0.037,0,0.074,0.007,0.108,0.021
					l81.986,34.933l38.854-45.922c0.048-0.057,0.116-0.092,0.19-0.097l88.87-6.64H297.648l42.77,12.19
					c0.058,0.017,0.109,0.051,0.146,0.1l16.384,21.836l65.442-16.414C422.412,312.06,422.435,312.057,422.457,312.057z"/>
			</g>
			<g>
				<path fill="#FFFFFF" d="M504.631,347.622c-0.082,0-0.162-0.036-0.216-0.103l-42.757-53.102l-39.085,18.166
					c-0.118,0.055-0.257,0.02-0.336-0.083c-0.079-0.104-0.075-0.248,0.009-0.347l14.733-17.361l-80.035,34.253
					c-0.109,0.047-0.235,0.019-0.314-0.069c-0.079-0.089-0.093-0.218-0.034-0.321l19.336-34.073l-35.498,12.487l-0.184-0.521
					l36.195-12.732c0.111-0.039,0.229-0.005,0.304,0.083c0.074,0.089,0.086,0.214,0.028,0.314l-19.296,34.002l80.36-34.393
					c0.116-0.053,0.254-0.014,0.331,0.09c0.076,0.104,0.071,0.245-0.012,0.343l-14.678,17.296l38.139-17.726
					c0.115-0.055,0.252-0.021,0.332,0.077l42.423,52.688L506,294.067c0.002-0.081,0.04-0.156,0.104-0.207
					c0.064-0.051,0.146-0.073,0.226-0.056l37.34,7.191l-0.105,0.543l-37.021-7.13l-1.636,52.945
					c-0.004,0.115-0.079,0.217-0.188,0.254C504.69,347.617,504.66,347.622,504.631,347.622z"/>
			</g>
		</g>
		<g opacity="0.3">
			<circle fill="#FFFFFF" cx="340.48" cy="306.947" r="1.244"/>
		</g>
		<g opacity="0.3">
			<circle fill="#FFFFFF" cx="356.791" cy="328.608" r="2.351"/>
		</g>
		<g opacity="0.3">
			<path fill="#FFFFFF" d="M377.874,294.076c0,0.688-0.56,1.247-1.244,1.247c-0.688,0-1.245-0.559-1.245-1.247
				c0-0.687,0.558-1.245,1.245-1.245C377.315,292.831,377.874,293.39,377.874,294.076z"/>
		</g>
		<g opacity="0.3">
			<path fill="#FFFFFF" d="M423.793,312.424c0,0.69-0.557,1.247-1.243,1.247c-0.686,0-1.246-0.557-1.246-1.247
				c0-0.685,0.561-1.244,1.246-1.244C423.237,311.18,423.793,311.739,423.793,312.424z"/>
		</g>
		<g opacity="0.3">
			<circle fill="#FFFFFF" cx="461.738" cy="294.076" r="1.244"/>
		</g>
		<g opacity="0.3">
			<path fill="#FFFFFF" d="M544.518,301.268c0,0.69-0.557,1.247-1.245,1.247c-0.687,0-1.245-0.557-1.245-1.247
				c0-0.686,0.559-1.245,1.245-1.245C543.961,300.022,544.518,300.582,544.518,301.268z"/>
		</g>
		<g opacity="0.3">
			<circle fill="#FFFFFF" cx="437.257" cy="294.076" r="2.333"/>
		</g>
		<g opacity="0.3">
			<circle fill="#FFFFFF" cx="504.77" cy="347.346" r="2.334"/>
		</g>
		<g opacity="0.3">
			<circle fill="#FFFFFF" cx="507.104" cy="294.076" r="2.333"/>
		</g>
	</g>
	<g opacity="0.6">
		<g>
			<g>
				<path fill="#FFFFFF" d="M439.718,360.655c-0.053,0-0.105-0.011-0.155-0.032l-120.852-51.732l-80.86-14.181
					c-0.202-0.035-0.343-0.219-0.325-0.423c0.018-0.204,0.188-0.36,0.393-0.36h434.83c0.206,0,0.378,0.159,0.394,0.365
					s-0.131,0.389-0.335,0.42l-68.034,10.237l-34.479,40.32c-0.108,0.126-0.284,0.169-0.44,0.112l-85.669-32.622l-44.177,47.769
					C439.932,360.611,439.825,360.655,439.718,360.655z M242.45,294.716l76.484,13.424l120.683,51.648l44.169-47.76
					c0.11-0.119,0.28-0.154,0.431-0.102l85.658,32.618l34.394-40.221c0.062-0.071,0.147-0.119,0.241-0.134l62.964-9.475H242.45z"/>
			</g>
			<g>
				<path fill="#FFFFFF" d="M569.994,345.407c-0.071,0-0.144-0.02-0.207-0.059l-81.751-50.396l-3.573,17.422
					c-0.025,0.124-0.108,0.228-0.223,0.28c-0.115,0.052-0.247,0.048-0.357-0.016l-31.118-17.489l-40.964,6.507
					c-0.04,0.006-0.081,0.009-0.121,0l-45.433-6.933l-47.268,14.182l-0.227-0.756l47.353-14.207
					c0.057-0.016,0.115-0.023,0.173-0.012l45.46,6.937l41.038-6.519c0.088-0.013,0.177,0.003,0.255,0.046l30.767,17.292
					l3.578-17.445c0.026-0.126,0.112-0.232,0.23-0.283s0.253-0.042,0.363,0.026l81.259,50.092l-18.302-49.619
					c-0.05-0.134-0.022-0.283,0.069-0.392c0.092-0.109,0.235-0.161,0.375-0.133l53.271,10.26l-0.148,0.775l-52.585-10.128
					l18.455,50.035c0.059,0.158,0.01,0.336-0.12,0.442C570.172,345.377,570.083,345.407,569.994,345.407z"/>
			</g>
		</g>
		<g>
			<circle fill="#FFFFFF" cx="319.064" cy="308.724" r="1.776"/>
		</g>
		<g>
			<circle fill="#FFFFFF" cx="411.553" cy="301.268" r="1.841"/>
		</g>
		<g>
			<path fill="#FFFFFF" d="M368.124,294.321c0,0.979-0.793,1.774-1.775,1.774c-0.977,0-1.776-0.795-1.776-1.774
				c0-0.981,0.8-1.776,1.776-1.776C367.331,292.545,368.124,293.34,368.124,294.321z"/>
		</g>
		<g>
			<path fill="#FFFFFF" d="M485.986,312.424c0,0.982-0.795,1.779-1.778,1.779c-0.977,0-1.772-0.797-1.772-1.779
				c0-0.978,0.796-1.774,1.772-1.774C485.191,310.649,485.986,311.446,485.986,312.424z"/>
		</g>
		<g>
			<circle fill="#FFFFFF" cx="487.762" cy="294.321" r="1.776"/>
		</g>
		<g>
			<circle fill="#FFFFFF" cx="604.074" cy="304.581" r="1.775"/>
		</g>
		<g>
			<circle fill="#FFFFFF" cx="672.748" cy="294.321" r="1.775"/>
		</g>
		<g>
			<circle fill="#FFFFFF" cx="238.904" cy="294.321" r="3.33"/>
		</g>
		<g>
			<circle fill="#FFFFFF" cx="452.839" cy="294.321" r="3.329"/>
		</g>
		<g>
			<path fill="#FFFFFF" d="M573.521,345.013c0,1.838-1.492,3.332-3.331,3.332c-1.838,0-3.33-1.494-3.33-3.332
				c0-1.836,1.492-3.328,3.33-3.328C572.029,341.685,573.521,343.177,573.521,345.013z"/>
		</g>
		<g>
			<path fill="#FFFFFF" d="M555.809,294.321c0,1.837-1.494,3.327-3.33,3.327c-1.838,0-3.33-1.49-3.33-3.327
				c0-1.839,1.492-3.331,3.33-3.331C554.315,290.99,555.809,292.482,555.809,294.321z"/>
		</g>
		<g>
			<circle fill="#FFFFFF" cx="319.064" cy="308.724" r="1.776"/>
		</g>
		<g>
			<circle fill="#FFFFFF" cx="439.652" cy="360.261" r="2.597"/>
		</g>
		<g>
			<path fill="#FFFFFF" d="M368.124,294.321c0,0.979-0.793,1.774-1.775,1.774c-0.977,0-1.776-0.795-1.776-1.774
				c0-0.981,0.8-1.776,1.776-1.776C367.331,292.545,368.124,293.34,368.124,294.321z"/>
		</g>
		<g>
			<path fill="#FFFFFF" d="M485.986,312.424c0,0.982-0.795,1.779-1.778,1.779c-0.977,0-1.772-0.797-1.772-1.779
				c0-0.978,0.796-1.774,1.772-1.774C485.191,310.649,485.986,311.446,485.986,312.424z"/>
		</g>
		<g>
			<circle fill="#FFFFFF" cx="487.762" cy="294.321" r="1.776"/>
		</g>
		<g>
			<circle fill="#FFFFFF" cx="604.074" cy="304.581" r="1.775"/>
		</g>
		<g>
			<circle fill="#FFFFFF" cx="452.839" cy="294.321" r="3.329"/>
		</g>
		<g>
			<path fill="#FFFFFF" d="M573.521,345.013c0,1.838-1.492,3.332-3.331,3.332c-1.838,0-3.33-1.494-3.33-3.332
				c0-1.836,1.492-3.328,3.33-3.328C572.029,341.685,573.521,343.177,573.521,345.013z"/>
		</g>
		<g>
			<path fill="#FFFFFF" d="M555.809,294.321c0,1.837-1.494,3.327-3.33,3.327c-1.838,0-3.33-1.49-3.33-3.327
				c0-1.839,1.492-3.331,3.33-3.331C554.315,290.99,555.809,292.482,555.809,294.321z"/>
		</g>
	</g>
	<g>
		<g opacity="0.3">
			<g>
				<path fill="#FFFFFF" d="M489.629,109.708H144.347c-0.149,0-0.271-0.118-0.277-0.267c-0.005-0.149,0.108-0.276,0.257-0.287
					l96.502-7.21l72.322-39.877c0.084-0.048,0.189-0.046,0.274,0.004l49.082,28.758l64.561-8.49
					c0.093-0.016,0.185,0.023,0.245,0.092l14.642,16.758l47.732,9.971c0.14,0.029,0.234,0.159,0.22,0.3
					C489.891,109.601,489.772,109.708,489.629,109.708z M151.785,109.154h335.158l-45.194-9.441
					c-0.06-0.012-0.112-0.043-0.152-0.089l-14.605-16.716l-64.508,8.483c-0.06,0.009-0.124-0.004-0.177-0.036l-49.026-28.726
					l-72.237,39.831c-0.035,0.019-0.073,0.031-0.113,0.034L151.785,109.154z"/>
			</g>
			<g>
				<path fill="#FFFFFF" d="M346.906,109.708c-0.09,0-0.177-0.044-0.229-0.122c-0.07-0.103-0.063-0.24,0.018-0.335L361.418,91.9
					l-38.258,17.782c-0.076,0.037-0.165,0.035-0.242-0.003c-0.076-0.038-0.13-0.109-0.147-0.192l-9.633-46.515l-34.546,46.624
					c-0.064,0.086-0.174,0.128-0.275,0.107l-37.459-7.215l0.104-0.545l37.288,7.182l34.812-46.981
					c0.065-0.088,0.175-0.128,0.283-0.106c0.107,0.023,0.19,0.107,0.212,0.215l9.688,46.778l39.086-18.167
					c0.119-0.056,0.259-0.02,0.338,0.083s0.075,0.248-0.009,0.348l-14.898,17.557l79.254-26.503c0.116-0.039,0.238,0,0.31,0.097
					c0.072,0.096,0.074,0.227,0.007,0.325l-18.145,26.167l32.539-9.762l0.16,0.531l-33.299,9.99
					c-0.112,0.033-0.235-0.007-0.305-0.103s-0.07-0.224-0.003-0.321l18.119-26.132l-79.404,26.554
					C346.965,109.704,346.936,109.708,346.906,109.708z"/>
			</g>
		</g>
		<g opacity="0.3">
			<circle fill="#FFFFFF" cx="441.666" cy="99.302" r="1.249"/>
		</g>
		<g opacity="0.3">
			<circle fill="#FFFFFF" cx="427.151" cy="82.799" r="2.359"/>
		</g>
		<g opacity="0.3">
			<circle fill="#FFFFFF" cx="408.415" cy="109.431" r="1.25"/>
		</g>
		<g opacity="0.3">
			<circle fill="#FFFFFF" cx="362.352" cy="91.024" r="1.249"/>
		</g>
		<g opacity="0.3">
			<circle fill="#FFFFFF" cx="323.043" cy="109.431" r="1.249"/>
		</g>
		<g opacity="0.3">
			<circle fill="#FFFFFF" cx="241.256" cy="102.216" r="1.249"/>
		</g>
		<g opacity="0.3">
			<path fill="#FFFFFF" d="M143.098,109.431c0-0.689,0.559-1.25,1.249-1.25c0.689,0,1.248,0.561,1.248,1.25
				c0,0.687-0.559,1.246-1.248,1.246C143.657,110.677,143.098,110.118,143.098,109.431z"/>
		</g>
		<g opacity="0.3">
			<path fill="#FFFFFF" d="M486.594,109.431c0-1.293,1.048-2.343,2.339-2.343c1.295,0,2.343,1.05,2.343,2.343
				c0,1.291-1.048,2.341-2.343,2.341C487.642,111.772,486.594,110.722,486.594,109.431z"/>
		</g>
		<g opacity="0.3">
			<path fill="#FFFFFF" d="M345.258,109.431c0-1.293,1.048-2.343,2.342-2.343c1.293,0,2.34,1.05,2.34,2.343
				c0,1.291-1.047,2.341-2.34,2.341C346.306,111.772,345.258,110.722,345.258,109.431z"/>
		</g>
		<g opacity="0.3">
			<circle fill="#FFFFFF" cx="313.146" cy="62.31" r="2.341"/>
		</g>
		<g opacity="0.3">
			<path fill="#FFFFFF" d="M275.196,109.431c0-1.293,1.049-2.343,2.341-2.343c1.293,0,2.341,1.05,2.341,2.343
				c0,1.291-1.048,2.341-2.341,2.341C276.244,111.772,275.196,110.722,275.196,109.431z"/>
		</g>
		<g opacity="0.3">
			<g>
				<path fill="#FFFFFF" d="M489.629,109.708H144.347c-0.149,0-0.271-0.118-0.277-0.267c-0.005-0.149,0.108-0.276,0.257-0.287
					l96.502-7.21l72.322-39.877c0.084-0.048,0.189-0.046,0.274,0.004l49.082,28.758l64.561-8.49
					c0.093-0.016,0.185,0.023,0.245,0.092l14.642,16.758l47.732,9.971c0.14,0.029,0.234,0.159,0.22,0.3
					C489.891,109.601,489.772,109.708,489.629,109.708z M151.785,109.154h335.158l-45.194-9.441
					c-0.06-0.012-0.112-0.043-0.152-0.089l-14.605-16.716l-64.508,8.483c-0.06,0.009-0.124-0.004-0.177-0.036l-49.026-28.726
					l-72.237,39.831c-0.035,0.019-0.073,0.031-0.113,0.034L151.785,109.154z"/>
			</g>
			<g>
				<path fill="#FFFFFF" d="M346.906,109.708c-0.09,0-0.177-0.044-0.229-0.122c-0.07-0.103-0.063-0.24,0.018-0.335L361.418,91.9
					l-38.258,17.782c-0.076,0.037-0.165,0.035-0.242-0.003c-0.076-0.038-0.13-0.109-0.147-0.192l-9.633-46.515l-34.546,46.624
					c-0.064,0.086-0.174,0.128-0.275,0.107l-37.459-7.215l0.104-0.545l37.288,7.182l34.812-46.981
					c0.065-0.088,0.175-0.128,0.283-0.106c0.107,0.023,0.19,0.107,0.212,0.215l9.688,46.778l39.086-18.167
					c0.119-0.056,0.259-0.02,0.338,0.083s0.075,0.248-0.009,0.348l-14.898,17.557l79.254-26.503c0.116-0.039,0.238,0,0.31,0.097
					c0.072,0.096,0.074,0.227,0.007,0.325l-18.145,26.167l32.539-9.762l0.16,0.531l-33.299,9.99
					c-0.112,0.033-0.235-0.007-0.305-0.103s-0.07-0.224-0.003-0.321l18.119-26.132l-79.404,26.554
					C346.965,109.704,346.936,109.708,346.906,109.708z"/>
			</g>
		</g>
		<g opacity="0.3">
			<circle fill="#FFFFFF" cx="441.666" cy="99.302" r="1.249"/>
		</g>
		<g opacity="0.3">
			<circle fill="#FFFFFF" cx="427.151" cy="82.799" r="2.359"/>
		</g>
		<g opacity="0.3">
			<circle fill="#FFFFFF" cx="408.415" cy="109.431" r="1.25"/>
		</g>
		<g opacity="0.3">
			<circle fill="#FFFFFF" cx="362.352" cy="91.024" r="1.249"/>
		</g>
		<g opacity="0.3">
			<circle fill="#FFFFFF" cx="323.043" cy="109.431" r="1.249"/>
		</g>
		<g opacity="0.3">
			<circle fill="#FFFFFF" cx="241.256" cy="102.216" r="1.249"/>
		</g>
		<g opacity="0.3">
			<path fill="#FFFFFF" d="M345.258,109.431c0-1.293,1.048-2.343,2.342-2.343c1.293,0,2.34,1.05,2.34,2.343
				c0,1.291-1.047,2.341-2.34,2.341C346.306,111.772,345.258,110.722,345.258,109.431z"/>
		</g>
		<g opacity="0.3">
			<circle fill="#FFFFFF" cx="313.146" cy="62.31" r="2.341"/>
		</g>
		<g opacity="0.3">
			<path fill="#FFFFFF" d="M275.196,109.431c0-1.293,1.049-2.343,2.341-2.343c1.293,0,2.341,1.05,2.341,2.343
				c0,1.291-1.048,2.341-2.341,2.341C276.244,111.772,275.196,110.722,275.196,109.431z"/>
		</g>
	</g>
	<g>
		<g opacity="0.3">
			<g>
				<path fill="#FFFFFF" d="M427.861,109.708H82.581c-0.149,0-0.271-0.118-0.277-0.267c-0.005-0.149,0.108-0.276,0.257-0.287
					l96.502-7.21l72.323-39.877c0.084-0.046,0.189-0.046,0.274,0.004l49.079,28.758l64.563-8.49
					c0.092-0.016,0.185,0.023,0.245,0.092l14.639,16.758l47.731,9.971c0.14,0.029,0.234,0.159,0.22,0.3
					C428.122,109.601,428.003,109.708,427.861,109.708z M90.019,109.154h335.156l-45.193-9.441c-0.06-0.012-0.112-0.043-0.152-0.089
					l-14.603-16.716l-64.51,8.483c-0.06,0.01-0.124-0.004-0.176-0.036l-49.025-28.726l-72.237,39.831
					c-0.035,0.019-0.073,0.031-0.113,0.034L90.019,109.154z"/>
			</g>
			<g>
				<path fill="#FFFFFF" d="M285.141,109.708c-0.09,0-0.177-0.044-0.23-0.122c-0.07-0.103-0.062-0.24,0.019-0.335L299.651,91.9
					l-38.256,17.782c-0.077,0.037-0.166,0.035-0.242-0.003s-0.13-0.109-0.147-0.192l-9.633-46.515l-34.546,46.624
					c-0.064,0.086-0.175,0.128-0.275,0.107l-37.46-7.215l0.105-0.545l37.288,7.182l34.812-46.981
					c0.066-0.088,0.179-0.128,0.283-0.106c0.107,0.023,0.19,0.107,0.212,0.215l9.688,46.778l39.085-18.167
					c0.119-0.054,0.259-0.02,0.338,0.083c0.079,0.104,0.075,0.248-0.009,0.348l-14.896,17.558L365.25,82.35
					c0.115-0.039,0.238,0,0.31,0.097c0.072,0.096,0.074,0.227,0.007,0.325l-18.146,26.167l32.537-9.762l0.16,0.531l-33.297,9.99
					c-0.112,0.033-0.235-0.007-0.305-0.103s-0.07-0.224-0.003-0.321l18.12-26.132l-79.405,26.554
					C285.2,109.704,285.171,109.708,285.141,109.708z"/>
			</g>
		</g>
		<g opacity="0.3">
			<circle fill="#FFFFFF" cx="379.902" cy="99.302" r="1.25"/>
		</g>
		<g opacity="0.3">
			<circle fill="#FFFFFF" cx="365.385" cy="82.799" r="2.359"/>
		</g>
		<g opacity="0.3">
			<circle fill="#FFFFFF" cx="346.65" cy="109.431" r="1.248"/>
		</g>
		<g opacity="0.3">
			<circle fill="#FFFFFF" cx="300.587" cy="91.024" r="1.249"/>
		</g>
		<g opacity="0.3">
			<circle fill="#FFFFFF" cx="261.277" cy="109.431" r="1.249"/>
		</g>
		<g opacity="0.3">
			<circle fill="#FFFFFF" cx="179.49" cy="102.216" r="1.249"/>
		</g>
		<g opacity="0.3">
			<path fill="#FFFFFF" d="M81.332,109.431c0-0.689,0.559-1.25,1.249-1.25s1.249,0.561,1.249,1.25c0,0.687-0.56,1.246-1.249,1.246
				S81.332,110.118,81.332,109.431z"/>
		</g>
		<g opacity="0.3">
			<path fill="#FFFFFF" d="M424.828,109.431c0-1.293,1.047-2.343,2.34-2.343s2.342,1.05,2.342,2.343
				c0,1.291-1.049,2.341-2.342,2.341S424.828,110.722,424.828,109.431z"/>
		</g>
		<g opacity="0.3">
			<path fill="#FFFFFF" d="M283.494,109.431c0-1.293,1.048-2.343,2.341-2.343c1.292,0,2.341,1.05,2.341,2.343
				c0,1.291-1.049,2.341-2.341,2.341C284.542,111.772,283.494,110.722,283.494,109.431z"/>
		</g>
		<g opacity="0.3">
			<circle fill="#FFFFFF" cx="251.381" cy="62.31" r="2.341"/>
		</g>
		<g opacity="0.3">
			<path fill="#FFFFFF" d="M213.429,109.431c0-1.293,1.049-2.343,2.341-2.343c1.293,0,2.341,1.05,2.341,2.343
				c0,1.291-1.048,2.341-2.341,2.341C214.478,111.772,213.429,110.722,213.429,109.431z"/>
		</g>
		<g opacity="0.3">
			<g>
				<path fill="#FFFFFF" d="M427.861,109.708H82.581c-0.149,0-0.271-0.118-0.277-0.267c-0.005-0.149,0.108-0.276,0.257-0.287
					l96.502-7.21l72.323-39.877c0.084-0.046,0.189-0.046,0.274,0.004l49.079,28.758l64.563-8.49
					c0.092-0.016,0.185,0.023,0.245,0.092l14.639,16.758l47.731,9.971c0.14,0.029,0.234,0.159,0.22,0.3
					C428.122,109.601,428.003,109.708,427.861,109.708z M90.019,109.154h335.156l-45.193-9.441c-0.06-0.012-0.112-0.043-0.152-0.089
					l-14.603-16.716l-64.51,8.483c-0.06,0.01-0.124-0.004-0.176-0.036l-49.025-28.726l-72.237,39.831
					c-0.035,0.019-0.073,0.031-0.113,0.034L90.019,109.154z"/>
			</g>
			<g>
				<path fill="#FFFFFF" d="M285.141,109.708c-0.09,0-0.177-0.044-0.23-0.122c-0.07-0.103-0.062-0.24,0.019-0.335L299.651,91.9
					l-38.256,17.782c-0.077,0.037-0.166,0.035-0.242-0.003s-0.13-0.109-0.147-0.192l-9.633-46.515l-34.546,46.624
					c-0.064,0.086-0.175,0.128-0.275,0.107l-37.46-7.215l0.105-0.545l37.288,7.182l34.812-46.981
					c0.066-0.088,0.179-0.128,0.283-0.106c0.107,0.023,0.19,0.107,0.212,0.215l9.688,46.778l39.085-18.167
					c0.119-0.054,0.259-0.02,0.338,0.083c0.079,0.104,0.075,0.248-0.009,0.348l-14.896,17.558L365.25,82.35
					c0.115-0.039,0.238,0,0.31,0.097c0.072,0.096,0.074,0.227,0.007,0.325l-18.146,26.167l32.537-9.762l0.16,0.531l-33.297,9.99
					c-0.112,0.033-0.235-0.007-0.305-0.103s-0.07-0.224-0.003-0.321l18.12-26.132l-79.405,26.554
					C285.2,109.704,285.171,109.708,285.141,109.708z"/>
			</g>
		</g>
		<g opacity="0.3">
			<circle fill="#FFFFFF" cx="379.902" cy="99.302" r="1.25"/>
		</g>
		<g opacity="0.3">
			<circle fill="#FFFFFF" cx="365.385" cy="82.799" r="2.359"/>
		</g>
		<g opacity="0.3">
			<circle fill="#FFFFFF" cx="346.65" cy="109.431" r="1.248"/>
		</g>
		<g opacity="0.3">
			<circle fill="#FFFFFF" cx="300.587" cy="91.024" r="1.249"/>
		</g>
		<g opacity="0.3">
			<circle fill="#FFFFFF" cx="261.277" cy="109.431" r="1.249"/>
		</g>
		<g opacity="0.3">
			<circle fill="#FFFFFF" cx="179.49" cy="102.216" r="1.249"/>
		</g>
		<g opacity="0.3">
			<path fill="#FFFFFF" d="M283.494,109.431c0-1.293,1.048-2.343,2.341-2.343c1.292,0,2.341,1.05,2.341,2.343
				c0,1.291-1.049,2.341-2.341,2.341C284.542,111.772,283.494,110.722,283.494,109.431z"/>
		</g>
		<g opacity="0.3">
			<circle fill="#FFFFFF" cx="251.381" cy="62.31" r="2.341"/>
		</g>
		<g opacity="0.3">
			<path fill="#FFFFFF" d="M213.429,109.431c0-1.293,1.049-2.343,2.341-2.343c1.293,0,2.341,1.05,2.341,2.343
				c0,1.291-1.048,2.341-2.341,2.341C214.478,111.772,213.429,110.722,213.429,109.431z"/>
		</g>
	</g>
	<g opacity="0.6">
		<g>
			<g>
				<path fill="#FFFFFF" d="M482.238,109.583H46.061c-0.207,0-0.379-0.16-0.395-0.366c-0.016-0.207,0.131-0.39,0.335-0.421
					l68.317-10.28L180.6,59.628c0.11-0.065,0.244-0.072,0.362-0.02l61.629,27.549l71.493-51.211c0.135-0.097,0.315-0.1,0.453-0.006
					l92.973,63.179l74.778,9.675c0.207,0.027,0.357,0.21,0.344,0.418C482.619,109.421,482.447,109.583,482.238,109.583z
					 M51.351,108.791h424.743l-68.779-8.899c-0.062-0.008-0.12-0.03-0.172-0.065L314.32,36.75l-71.453,51.183
					c-0.114,0.081-0.263,0.097-0.392,0.04l-61.65-27.559l-66.172,38.822c-0.043,0.026-0.091,0.042-0.141,0.05L51.351,108.791z"/>
			</g>
			<g>
				<path fill="#FFFFFF" d="M167.891,109.583c-0.025,0-0.05-0.002-0.075-0.007l-53.438-10.292l0.149-0.777l53.074,10.222
					l12.816-48.859c0.036-0.136,0.141-0.243,0.276-0.281c0.135-0.038,0.281-0.001,0.382,0.097l50.435,48.845l10.774-21.099
					c0.056-0.109,0.158-0.186,0.278-0.208c0.121-0.024,0.245,0.011,0.336,0.092l23.875,21.031l41.04-6.521
					c0.04-0.006,0.081-0.007,0.122,0l45.598,6.96l53.763-9.676l0.141,0.779l-53.828,9.688c-0.043,0.008-0.087,0.009-0.13,0.001
					l-45.602-6.961l-41.163,6.541c-0.118,0.017-0.235-0.016-0.324-0.094l-23.632-20.818l-10.786,21.122
					c-0.057,0.112-0.164,0.19-0.288,0.21c-0.124,0.02-0.25-0.019-0.34-0.106l-50.333-48.746l-12.738,48.563
					C168.227,109.464,168.067,109.583,167.891,109.583z"/>
			</g>
		</g>
		<g>
			<path fill="#FFFFFF" d="M405.385,99.302c0-0.983,0.8-1.781,1.78-1.781c0.984,0,1.782,0.798,1.782,1.781
				c0,0.984-0.798,1.781-1.782,1.781C406.185,101.083,405.385,100.286,405.385,99.302z"/>
		</g>
		<g>
			<circle fill="#FFFFFF" cx="308.064" cy="102.216" r="1.848"/>
		</g>
		<g>
			<circle fill="#FFFFFF" cx="353.406" cy="109.187" r="1.782"/>
		</g>
		<g>
			<circle fill="#FFFFFF" cx="242.505" cy="87.48" r="1.781"/>
		</g>
		<g>
			<circle fill="#FFFFFF" cx="231.62" cy="109.187" r="1.781"/>
		</g>
		<g>
			<circle fill="#FFFFFF" cx="114.947" cy="98.895" r="1.781"/>
		</g>
		<g>
			<circle fill="#FFFFFF" cx="46.061" cy="109.187" r="1.781"/>
		</g>
		<g>
			<path fill="#FFFFFF" d="M477.906,109.187c0-1.844,1.499-3.34,3.34-3.34c1.845,0,3.34,1.497,3.34,3.34
				c0,1.843-1.495,3.339-3.34,3.339C479.406,112.526,477.906,111.03,477.906,109.187z"/>
		</g>
		<g>
			<circle fill="#FFFFFF" cx="266.651" cy="109.187" r="3.34"/>
		</g>
		<g>
			<circle fill="#FFFFFF" cx="180.603" cy="59.97" r="3.34"/>
		</g>
		<g>
			<circle fill="#FFFFFF" cx="166.703" cy="109.187" r="3.34"/>
		</g>
		<g>
			<path fill="#FFFFFF" d="M405.385,99.302c0-0.983,0.8-1.781,1.78-1.781c0.984,0,1.782,0.798,1.782,1.781
				c0,0.984-0.798,1.781-1.782,1.781C406.185,101.083,405.385,100.286,405.385,99.302z"/>
		</g>
		<g>
			<circle fill="#FFFFFF" cx="314.381" cy="36.268" r="2.605"/>
		</g>
		<g>
			<circle fill="#FFFFFF" cx="353.406" cy="109.187" r="1.782"/>
		</g>
		<g>
			<circle fill="#FFFFFF" cx="242.505" cy="87.48" r="1.781"/>
		</g>
		<g>
			<circle fill="#FFFFFF" cx="231.62" cy="109.187" r="1.781"/>
		</g>
		<g>
			<circle fill="#FFFFFF" cx="114.947" cy="98.895" r="1.781"/>
		</g>
		<g>
			<circle fill="#FFFFFF" cx="266.651" cy="109.187" r="3.34"/>
		</g>
		<g>
			<circle fill="#FFFFFF" cx="180.603" cy="59.97" r="3.34"/>
		</g>
		<g>
			<circle fill="#FFFFFF" cx="166.703" cy="109.187" r="3.34"/>
		</g>
	</g>
	<g>
		<path fill="#FFFFFF" d="M567.683,255.856v3.74h-3.571v3.919h-4.194v-3.919h-3.57v-3.74h3.57v-3.919h4.194v3.919H567.683z"/>
		<path fill="#FFFFFF" d="M580.542,261.844c-1.122,1.123-2.431,1.685-3.923,1.685c-0.921,0-1.793-0.184-2.604-0.556
			c-0.812-0.371-1.517-0.878-2.118-1.523c-0.603-0.647-1.077-1.41-1.424-2.29c-0.353-0.878-0.527-1.825-0.527-2.841
			c0-0.964,0.175-1.872,0.527-2.725c0.347-0.851,0.83-1.6,1.443-2.241c0.616-0.635,1.338-1.146,2.17-1.523
			c0.83-0.374,1.735-0.563,2.714-0.563c1.319,0,2.451,0.276,3.397,0.831c0.941,0.556,1.652,1.303,2.129,2.241l-2.04,1.505
			c-0.356-0.702-0.855-1.234-1.496-1.604c-0.642-0.372-1.337-0.556-2.092-0.556c-0.592,0-1.138,0.125-1.633,0.378
			c-0.494,0.247-0.92,0.591-1.267,1.026c-0.353,0.435-0.624,0.938-0.813,1.507c-0.19,0.567-0.287,1.169-0.287,1.8
			c0,0.663,0.105,1.277,0.317,1.855c0.212,0.574,0.504,1.072,0.871,1.492c0.369,0.426,0.809,0.758,1.315,1.002
			c0.511,0.247,1.062,0.365,1.657,0.365c1.359,0,2.587-0.637,3.683-1.92v-0.99h-2.832v-2.001h5.089v7.229h-2.257V261.844z"/>
		<path fill="#FFFFFF" d="M594.904,261.844c-1.123,1.123-2.43,1.685-3.922,1.685c-0.926,0-1.794-0.184-2.604-0.556
			c-0.813-0.371-1.519-0.878-2.123-1.523c-0.599-0.647-1.073-1.41-1.424-2.29c-0.351-0.878-0.524-1.825-0.524-2.841
			c0-0.964,0.174-1.872,0.524-2.725c0.351-0.851,0.832-1.6,1.447-2.241c0.614-0.635,1.336-1.146,2.166-1.523
			c0.832-0.374,1.74-0.563,2.716-0.563c1.321,0,2.454,0.276,3.398,0.831c0.942,0.556,1.654,1.303,2.128,2.241l-2.041,1.505
			c-0.354-0.702-0.854-1.234-1.493-1.604c-0.641-0.372-1.336-0.556-2.091-0.556c-0.595,0-1.14,0.125-1.637,0.378
			c-0.492,0.247-0.916,0.591-1.267,1.026c-0.349,0.435-0.62,0.938-0.812,1.507c-0.189,0.567-0.287,1.169-0.287,1.8
			c0,0.663,0.106,1.277,0.318,1.855c0.21,0.574,0.5,1.072,0.87,1.492c0.37,0.426,0.81,0.758,1.317,1.002
			c0.509,0.247,1.061,0.365,1.652,0.365c1.361,0,2.589-0.637,3.687-1.92v-0.99h-2.833v-2.001h5.09v7.229h-2.257V261.844z"/>
	</g>
	<g>
		<path fill="#FFFFFF" d="M418.632,263.978c0-3.566,0.275-6.791,0.832-9.688c0.554-2.889,1.524-5.563,2.91-8.021
			c1.386-2.455,3.288-4.753,5.705-6.894c2.417-2.138,5.484-4.235,9.212-6.298c3.248-1.741,6.119-3.269,8.615-4.575
			c2.497-1.309,4.575-2.514,6.241-3.624c1.662-1.11,2.93-2.239,3.801-3.387c0.873-1.148,1.309-2.476,1.309-3.983
			c0-2.374-0.952-4.417-2.853-6.12s-4.635-2.554-8.199-2.554c-1.9,0-3.647,0.258-5.23,0.772c-1.586,0.515-3.071,1.207-4.455,2.079
			c-1.39,0.871-2.658,1.84-3.806,2.912c-1.148,1.068-2.198,2.199-3.147,3.388l-10.221-11.767c1.027-1.109,2.493-2.317,4.396-3.626
			c1.904-1.307,4.14-2.534,6.715-3.684c2.574-1.147,5.427-2.099,8.557-2.853c3.13-0.752,6.478-1.129,10.044-1.129
			c4.041,0,7.646,0.497,10.813,1.486c3.169,0.991,5.843,2.377,8.025,4.16c2.176,1.783,3.842,3.922,4.989,6.416
			c1.148,2.497,1.726,5.215,1.726,8.145c0,2.771-0.52,5.228-1.547,7.368c-1.029,2.138-2.338,4.039-3.922,5.702
			c-1.585,1.665-3.308,3.111-5.17,4.337c-1.864,1.23-3.665,2.317-5.406,3.27c-1.427,0.794-3.052,1.705-4.873,2.735
			c-1.825,1.03-3.625,2.159-5.407,3.388s-3.43,2.494-4.932,3.801c-1.507,1.309-2.655,2.596-3.447,3.864h36.012v14.379H418.632z"/>
		<path fill="#FFFFFF" d="M548.292,229.154c0,5.231-0.772,10.044-2.316,14.44c-1.547,4.397-3.686,8.201-6.42,11.409
			c-2.731,3.21-5.981,5.705-9.743,7.488c-3.765,1.783-7.826,2.674-12.184,2.674c-4.438,0-8.517-0.891-12.238-2.674
			c-3.726-1.783-6.953-4.278-9.688-7.488c-2.735-3.208-4.873-7.012-6.417-11.409c-1.544-4.396-2.319-9.209-2.319-14.44
			c0-5.228,0.775-10.04,2.319-14.438c1.544-4.396,3.682-8.199,6.417-11.409c2.734-3.209,5.962-5.723,9.688-7.547
			c3.722-1.821,7.801-2.732,12.238-2.732c4.357,0,8.419,0.911,12.184,2.732c3.762,1.824,7.012,4.338,9.743,7.547
			c2.734,3.21,4.873,7.013,6.42,11.409C547.52,219.114,548.292,223.927,548.292,229.154z M532.249,229.154
			c0-3.166-0.356-6.076-1.072-8.733c-0.71-2.653-1.721-4.933-3.028-6.834c-1.309-1.901-2.853-3.366-4.635-4.396
			c-1.783-1.032-3.742-1.547-5.885-1.547c-2.218,0-4.219,0.515-6.001,1.547c-1.783,1.03-3.327,2.495-4.635,4.396
			c-1.307,1.901-2.319,4.181-3.029,6.834c-0.716,2.657-1.072,5.567-1.072,8.733c0,3.172,0.356,6.063,1.072,8.679
			c0.71,2.614,1.723,4.873,3.029,6.774c1.308,1.901,2.852,3.368,4.635,4.396c1.782,1.029,3.783,1.545,6.001,1.545
			c2.143,0,4.102-0.516,5.885-1.545c1.782-1.028,3.326-2.495,4.635-4.396c1.308-1.901,2.318-4.16,3.028-6.774
			C531.893,235.218,532.249,232.326,532.249,229.154z"/>
	</g>
</g>
</svg>
