<?xml version="1.0" encoding="utf-8"?>
<!-- Generator: Adobe Illustrator 16.0.0, SVG Export Plug-In . SVG Version: 6.00 Build 0)  -->
<!DOCTYPE svg PUBLIC "-//W3C//DTD SVG 1.1//EN" "http://www.w3.org/Graphics/SVG/1.1/DTD/svg11.dtd">
<svg version="1.1" id="Capa_1" xmlns="http://www.w3.org/2000/svg" xmlns:xlink="http://www.w3.org/1999/xlink" x="0px" y="0px"
	 width="682px" height="396px" viewBox="0 0 682 396" enable-background="new 0 0 682 396" xml:space="preserve">
<g>
	<g>
		<path fill="#FFFFFF" d="M174.944,140.508v9.426h-8.992v9.861h-10.559v-9.861h-8.989v-9.426h8.989v-9.861h10.559v9.861H174.944z"/>
	</g>
	<g>
		<path fill="#FFFFFF" stroke="#FFFFFF" stroke-width="0.5" stroke-miterlimit="10" d="M180.597,176.202v-12.394h4.206
			c0.989,0,1.853,0.165,2.593,0.489c0.739,0.326,1.355,0.77,1.849,1.326c0.495,0.56,0.868,1.213,1.118,1.964
			c0.25,0.75,0.375,1.551,0.375,2.399c0,0.943-0.139,1.796-0.419,2.559c-0.28,0.761-0.677,1.413-1.196,1.955
			c-0.517,0.541-1.141,0.96-1.867,1.257c-0.729,0.297-1.545,0.444-2.453,0.444H180.597z M189.517,169.988
			c0-0.744-0.105-1.428-0.314-2.05c-0.21-0.624-0.516-1.162-0.917-1.615c-0.4-0.454-0.892-0.806-1.475-1.057
			c-0.583-0.25-1.251-0.375-2.007-0.375h-2.984v10.229h2.984c0.769,0,1.446-0.131,2.034-0.393c0.587-0.263,1.078-0.622,1.475-1.082
			c0.395-0.46,0.694-1.001,0.898-1.624C189.415,171.4,189.517,170.722,189.517,169.988z"/>
	</g>
	<g>
		<path fill="#FFFFFF" stroke="#FFFFFF" stroke-width="0.5" stroke-miterlimit="10" d="M201.403,175.12v1.082h-8.326v-12.394h8.167
			v1.083h-6.946v4.469h6.057v1.03h-6.057v4.73L201.403,175.12L201.403,175.12z"/>
	</g>
	<g>
		<path fill="#FFFFFF" d="M247.622,165.643v10.56h-35.433v-10.56h12.393v-26.445c-0.524,0.699-1.354,1.412-2.487,2.141
			c-1.135,0.727-2.372,1.412-3.71,2.051c-1.338,0.64-2.72,1.165-4.145,1.571c-1.426,0.406-2.692,0.61-3.797,0.61v-10.908
			c1.048,0,2.327-0.335,3.841-1.004c1.511-0.67,2.996-1.47,4.451-2.399c1.455-0.932,2.719-1.847,3.797-2.75
			c1.075-0.9,1.758-1.613,2.051-2.138h11.956v39.272L247.622,165.643L247.622,165.643z"/>
	</g>
	<g>
		<path fill="#FFFFFF" d="M275.025,148.363c2.908,0,5.614,0.48,8.117,1.44c2.5,0.959,4.653,2.313,6.457,4.057
			c1.803,1.746,3.215,3.841,4.233,6.284c1.017,2.443,1.527,5.149,1.527,8.117c0,3.142-0.566,5.993-1.702,8.553
			c-1.135,2.56-2.72,4.757-4.755,6.589c-2.039,1.832-4.452,3.258-7.245,4.275c-2.792,1.019-5.818,1.529-9.077,1.529
			c-4.539,0-8.597-0.96-12.175-2.881c-3.579-1.922-6.298-4.539-8.159-7.855l6.72-6.982c1.628,2.271,3.665,4.074,6.108,5.412
			c2.445,1.336,4.976,2.008,7.594,2.008c3.143,0,5.716-0.948,7.723-2.838c2.007-1.891,3.011-4.407,3.011-7.55
			c0-3.023-0.946-5.469-2.837-7.33s-4.291-2.794-7.2-2.794c-1.919,0-3.708,0.437-5.366,1.311c-1.659,0.873-2.983,2.064-3.972,3.578
			h-10.21c0-0.176,0.115-0.83,0.348-1.964c0.232-1.135,0.523-2.588,0.873-4.363c0.35-1.776,0.728-3.753,1.135-5.936
			c0.407-2.182,0.843-4.407,1.309-6.676c1.047-5.353,2.21-11.347,3.491-17.979h30.546v10.646h-22.082l-2.529,13.878
			c0.698-0.755,1.73-1.366,3.098-1.834C271.374,148.596,273.047,148.363,275.025,148.363z"/>
	</g>
	<g>
		<path fill="#FFFFFF" stroke="#FFFFFF" stroke-width="2" stroke-miterlimit="10" d="M314.925,151.766h1.571l15.971,37.179h-1.937
			l-5.499-12.83h-18.642l-5.497,12.83h-1.99L314.925,151.766z M324.455,174.545l-8.744-20.476l-8.797,20.476H324.455z"/>
	</g>
	<g>
		<path fill="#FFFFFF" stroke="#FFFFFF" stroke-width="2" stroke-miterlimit="10" d="M338.437,188.946v-37.179h15.29
			c1.535,0,2.959,0.332,4.27,0.996c1.309,0.663,2.436,1.527,3.376,2.592c0.942,1.065,1.677,2.279,2.2,3.641
			c0.521,1.359,0.785,2.74,0.785,4.136c0,1.432-0.219,2.793-0.654,4.085c-0.438,1.291-1.059,2.443-1.859,3.455
			c-0.802,1.014-1.763,1.852-2.879,2.514c-1.117,0.664-2.355,1.065-3.719,1.205l9.32,14.557h-2.094l-9.218-14.347h-12.986v14.347
			L338.437,188.946L338.437,188.946z M340.269,172.923h13.771c1.292,0,2.47-0.28,3.536-0.838c1.063-0.559,1.962-1.292,2.695-2.199
			c0.731-0.909,1.3-1.955,1.701-3.142c0.401-1.188,0.603-2.393,0.603-3.614c0-1.256-0.234-2.469-0.705-3.639
			c-0.472-1.17-1.108-2.199-1.912-3.09c-0.805-0.891-1.746-1.604-2.829-2.146c-1.082-0.541-2.232-0.813-3.454-0.813h-13.406V172.923
			L340.269,172.923z"/>
	</g>
	<g>
		<path fill="#FFFFFF" stroke="#FFFFFF" stroke-width="2" stroke-miterlimit="10" d="M397.24,153.442h-13.928v35.503h-1.834v-35.503
			h-13.928v-1.676h29.688v1.676H397.24z"/>
	</g>
	<g>
		<path fill="#FFFFFF" stroke="#FFFFFF" stroke-width="2" stroke-miterlimit="10" d="M403.211,188.946v-37.179h1.832v37.179H403.211
			z"/>
	</g>
	<g>
		<path fill="#FFFFFF" stroke="#FFFFFF" stroke-width="2" stroke-miterlimit="10" d="M436.671,157.266
			c-1.362-1.501-2.863-2.557-4.502-3.169c-1.643-0.609-3.562-0.917-5.761-0.917c-3.945,0-6.809,0.75-8.588,2.252
			c-1.781,1.501-2.67,3.508-2.67,6.021c0,1.257,0.217,2.313,0.653,3.168c0.438,0.855,1.108,1.581,2.017,2.173
			c0.908,0.594,2.076,1.093,3.509,1.493c1.43,0.401,3.142,0.812,5.13,1.23c2.024,0.417,3.859,0.873,5.5,1.361
			c1.64,0.489,3.036,1.107,4.188,1.857c1.151,0.753,2.042,1.686,2.671,2.804c0.63,1.117,0.943,2.496,0.943,4.137
			c0,1.571-0.308,2.95-0.917,4.136c-0.611,1.188-1.493,2.184-2.646,2.986c-1.151,0.803-2.539,1.405-4.162,1.806
			c-1.623,0.402-3.43,0.603-5.42,0.603c-2.968,0-5.638-0.462-8.013-1.389c-2.375-0.923-4.572-2.347-6.598-4.267l1.1-1.31
			c1.746,1.78,3.735,3.125,5.972,4.032c2.231,0.908,4.763,1.361,7.591,1.361c3.491,0,6.239-0.636,8.248-1.911
			c2.008-1.273,3.012-3.22,3.012-5.838c0-1.327-0.246-2.453-0.732-3.377c-0.489-0.925-1.231-1.711-2.227-2.357
			c-0.996-0.645-2.251-1.205-3.77-1.676c-1.52-0.472-3.31-0.917-5.368-1.336c-2.025-0.417-3.814-0.854-5.367-1.31
			c-1.554-0.452-2.862-1.028-3.928-1.728c-1.063-0.697-1.867-1.553-2.409-2.564c-0.541-1.012-0.811-2.287-0.811-3.824
			c0-1.64,0.313-3.097,0.941-4.372c0.627-1.273,1.51-2.338,2.645-3.193c1.135-0.854,2.504-1.51,4.11-1.963
			c1.605-0.455,3.385-0.682,5.341-0.682c2.408,0,4.521,0.35,6.336,1.048c1.815,0.699,3.474,1.815,4.976,3.351L436.671,157.266z"/>
	</g>
	<g>
		<path fill="#FFFFFF" stroke="#FFFFFF" stroke-width="2" stroke-miterlimit="10" d="M472.018,153.442H458.09v35.503h-1.835v-35.503
			h-13.928v-1.676h29.689L472.018,153.442L472.018,153.442z"/>
	</g>
	<g>
		<path fill="#FFFFFF" stroke="#FFFFFF" stroke-width="2" stroke-miterlimit="10" d="M486.155,151.766h1.571l15.973,37.179h-1.938
			l-5.498-12.83H477.62l-5.497,12.83h-1.99L486.155,151.766z M495.686,174.545l-8.743-20.476l-8.798,20.476H495.686z"/>
	</g>
	<g>
		<path fill="#FFFFFF" stroke="#FFFFFF" stroke-width="2" stroke-miterlimit="10" d="M530.666,157.266
			c-1.362-1.501-2.863-2.557-4.503-3.169c-1.642-0.609-3.563-0.917-5.761-0.917c-3.945,0-6.809,0.75-8.587,2.252
			c-1.781,1.501-2.671,3.508-2.671,6.021c0,1.257,0.218,2.313,0.653,3.168c0.438,0.855,1.108,1.581,2.018,2.173
			c0.906,0.594,2.075,1.093,3.508,1.493c1.431,0.401,3.143,0.812,5.132,1.23c2.023,0.417,3.857,0.873,5.498,1.361
			c1.641,0.489,3.037,1.107,4.188,1.857c1.152,0.753,2.045,1.686,2.672,2.804c0.629,1.117,0.942,2.496,0.942,4.137
			c0,1.571-0.308,2.95-0.916,4.136c-0.612,1.188-1.493,2.184-2.646,2.986c-1.153,0.803-2.54,1.405-4.163,1.806
			c-1.623,0.402-3.431,0.603-5.42,0.603c-2.968,0-5.639-0.462-8.012-1.389c-2.375-0.923-4.573-2.347-6.599-4.267l1.1-1.31
			c1.746,1.78,3.736,3.125,5.972,4.032c2.231,0.908,4.765,1.361,7.593,1.361c3.489,0,6.238-0.636,8.247-1.911
			c2.007-1.273,3.011-3.22,3.011-5.838c0-1.327-0.245-2.453-0.731-3.377c-0.49-0.925-1.231-1.711-2.228-2.357
			c-0.995-0.645-2.251-1.205-3.77-1.676c-1.52-0.472-3.309-0.917-5.367-1.336c-2.026-0.417-3.814-0.854-5.367-1.31
			c-1.554-0.452-2.864-1.028-3.927-1.728c-1.066-0.697-1.868-1.553-2.409-2.564c-0.542-1.012-0.813-2.287-0.813-3.824
			c0-1.64,0.313-3.097,0.941-4.372c0.628-1.273,1.511-2.338,2.646-3.193c1.134-0.854,2.505-1.51,4.11-1.963
			c1.604-0.455,3.387-0.682,5.341-0.682c2.407,0,4.521,0.35,6.335,1.048c1.815,0.699,3.475,1.815,4.976,3.351L530.666,157.266z"/>
	</g>
	<g>
		<path fill="#FFFFFF" d="M86.143,234.989v-61.962h12.044v61.962H86.143z"/>
	</g>
	<g>
		<path fill="#FFFFFF" d="M115.746,211.164v23.823h-7.226V197.81h5.603l19.375,24.402v-24.351h7.227v37.125h-5.865L115.746,211.164z
			"/>
	</g>
	<g>
		<path fill="#FFFFFF" d="M176.278,204.147h-11.887v30.842h-7.174v-30.842h-11.886v-6.336h30.947V204.147L176.278,204.147z"/>
	</g>
	<g>
		<path fill="#FFFFFF" d="M206.7,228.653v6.336h-25.816v-37.178h25.344v6.336H188.11v8.955h15.658v5.864H188.11v9.687H206.7z"/>
	</g>
	<g>
		<path fill="#FFFFFF" d="M212.355,234.989v-37.178h16.442c1.71,0,3.29,0.358,4.738,1.072c1.449,0.717,2.698,1.66,3.745,2.829
			c1.046,1.171,1.868,2.496,2.461,3.979c0.592,1.483,0.889,2.977,0.889,4.477c0,2.409-0.601,4.602-1.805,6.57
			c-1.205,1.975-2.837,3.396-4.896,4.269l8.483,13.98h-8.117l-7.592-12.462h-7.123v12.462L212.355,234.989L212.355,234.989z
			 M219.581,216.191h9.06c0.662,0,1.283-0.157,1.858-0.472c0.577-0.314,1.074-0.741,1.493-1.283c0.419-0.541,0.75-1.178,0.994-1.912
			c0.245-0.73,0.367-1.518,0.367-2.354c0-0.872-0.139-1.675-0.419-2.409c-0.28-0.731-0.653-1.369-1.125-1.91
			c-0.471-0.541-1.012-0.959-1.623-1.258c-0.611-0.296-1.23-0.444-1.859-0.444h-8.745L219.581,216.191L219.581,216.191z"/>
	</g>
	<g>
		<path fill="#FFFFFF" d="M254.402,211.164v23.823h-7.226V197.81h5.603l19.375,24.402v-24.351h7.226v37.125h-5.864L254.402,211.164z
			"/>
	</g>
	<g>
		<path fill="#FFFFFF" d="M297.706,197.811h6.39l14.138,37.178h-7.437l-3.456-9.269h-12.986l-3.403,9.269h-7.436L297.706,197.811z
			 M306.033,220.641l-5.133-14.608l-5.341,14.608H306.033z"/>
	</g>
	<g>
		<path fill="#FFFFFF" d="M318.705,216.139c0-2.269,0.409-4.513,1.23-6.729c0.819-2.217,2.016-4.198,3.586-5.942
			c1.571-1.747,3.49-3.161,5.76-4.243c2.27-1.082,4.852-1.623,7.75-1.623c3.42,0,6.379,0.751,8.875,2.25
			c2.494,1.502,4.354,3.457,5.576,5.866l-5.551,3.823c-0.488-1.048-1.082-1.931-1.779-2.646c-0.698-0.715-1.448-1.283-2.252-1.7
			c-0.803-0.42-1.642-0.725-2.513-0.917c-0.874-0.191-1.727-0.286-2.565-0.286c-1.815,0-3.396,0.365-4.738,1.1
			c-1.345,0.73-2.462,1.686-3.353,2.854c-0.889,1.169-1.563,2.495-2.016,3.979c-0.454,1.481-0.68,2.958-0.68,4.424
			c0,1.644,0.261,3.222,0.786,4.739c0.522,1.52,1.265,2.854,2.225,4.006c0.96,1.153,2.112,2.078,3.456,2.775
			c1.344,0.697,2.82,1.047,4.425,1.047c0.838,0,1.71-0.104,2.62-0.313c0.906-0.21,1.771-0.541,2.592-0.996
			c0.819-0.452,1.578-1.038,2.277-1.754c0.697-0.715,1.258-1.577,1.678-2.593l5.915,3.405c-0.595,1.396-1.438,2.627-2.538,3.691
			c-1.101,1.064-2.339,1.962-3.72,2.695c-1.379,0.734-2.853,1.293-4.424,1.676c-1.571,0.385-3.108,0.576-4.608,0.576
			c-2.654,0-5.08-0.559-7.279-1.674c-2.199-1.119-4.094-2.577-5.682-4.374c-1.588-1.798-2.827-3.84-3.717-6.128
			C319.149,220.844,318.705,218.513,318.705,216.139z"/>
	</g>
	<g>
		<path fill="#FFFFFF" d="M356.877,234.989v-37.178h7.227v37.178H356.877z"/>
	</g>
	<g>
		<path fill="#FFFFFF" d="M387.721,235.25c-2.725,0-5.193-0.531-7.412-1.597c-2.216-1.064-4.119-2.479-5.707-4.242
			c-1.588-1.763-2.819-3.778-3.691-6.048c-0.872-2.269-1.309-4.589-1.309-6.966c0-2.477,0.463-4.85,1.389-7.12
			c0.925-2.269,2.197-4.274,3.822-6.021c1.623-1.745,3.551-3.134,5.785-4.164c2.234-1.028,4.66-1.544,7.277-1.544
			c2.688,0,5.143,0.549,7.359,1.648c2.215,1.103,4.109,2.54,5.68,4.321c1.57,1.779,2.793,3.807,3.666,6.074
			c0.872,2.271,1.311,4.573,1.311,6.911c0,2.479-0.455,4.844-1.361,7.096c-0.908,2.251-2.166,4.242-3.771,5.97
			c-1.605,1.729-3.525,3.106-5.76,4.138C392.764,234.737,390.338,235.25,387.721,235.25z M376.934,216.399
			c0,1.608,0.242,3.162,0.731,4.66c0.487,1.503,1.194,2.829,2.121,3.981c0.925,1.15,2.06,2.074,3.403,2.773
			c1.343,0.699,2.871,1.048,4.582,1.048c1.744,0,3.289-0.357,4.635-1.073c1.343-0.716,2.479-1.666,3.402-2.854
			c0.924-1.187,1.623-2.521,2.096-4.006c0.472-1.482,0.705-2.994,0.705-4.531c0-1.604-0.252-3.158-0.758-4.66
			c-0.508-1.499-1.225-2.824-2.147-3.979c-0.925-1.151-2.06-2.066-3.404-2.75c-1.343-0.68-2.853-1.02-4.526-1.02
			c-1.748,0-3.301,0.358-4.662,1.072c-1.361,0.715-2.495,1.658-3.402,2.827c-0.909,1.171-1.6,2.496-2.068,3.981
			C377.168,213.354,376.934,214.864,376.934,216.399z"/>
	</g>
	<g>
		<path fill="#FFFFFF" d="M418.666,211.164v23.823h-7.227V197.81h5.603l19.375,24.402v-24.351h7.226v37.125h-5.862L418.666,211.164z
			"/>
	</g>
	<g>
		<path fill="#FFFFFF" d="M461.97,197.811h6.391l14.137,37.178h-7.437l-3.455-9.269H458.62l-3.404,9.269h-7.436L461.97,197.811z
			 M470.296,220.641l-5.132-14.608l-5.341,14.608H470.296z"/>
	</g>
	<g>
		<path fill="#FFFFFF" d="M486.582,234.989v-37.178h7.226v30.842h18.956v6.336H486.582z"/>
	</g>
	<g>
		<path fill="#FFFFFF" d="M542.979,228.653v6.336h-25.813v-37.178h25.344v6.336H524.39v8.955h15.657v5.864H524.39v9.687H542.979z"/>
	</g>
	<g>
		<path fill="#FFFFFF" d="M588.134,189.258c-0.407-0.407-1.15-0.959-2.226-1.658c-1.077-0.698-2.388-1.381-3.928-2.052
			c-1.544-0.667-3.217-1.235-5.02-1.701c-1.804-0.465-3.636-0.698-5.497-0.698c-3.315,0-5.791,0.611-7.42,1.833
			s-2.442,2.939-2.442,5.149c0,1.28,0.306,2.342,0.916,3.185c0.61,0.846,1.497,1.586,2.662,2.227
			c1.163,0.641,2.633,1.222,4.407,1.746c1.774,0.522,3.824,1.075,6.152,1.656c3.023,0.814,5.773,1.689,8.247,2.617
			c2.473,0.934,4.566,2.096,6.283,3.492s3.04,3.069,3.971,5.019c0.932,1.95,1.397,4.352,1.397,7.2c0,3.316-0.627,6.151-1.877,8.509
			c-1.253,2.357-2.938,4.265-5.062,5.717c-2.126,1.456-4.568,2.519-7.332,3.188c-2.765,0.666-5.659,1.003-8.684,1.003
			c-4.656,0-9.252-0.699-13.79-2.095c-4.538-1.396-8.609-3.375-12.218-5.936L552,217.273c0.521,0.522,1.468,1.208,2.835,2.053
			c1.366,0.843,2.982,1.687,4.844,2.529c1.863,0.847,3.929,1.559,6.196,2.141c2.271,0.578,4.597,0.869,6.982,0.869
			c6.633,0,9.948-2.121,9.948-6.369c0-1.337-0.38-2.475-1.134-3.403c-0.758-0.931-1.833-1.745-3.229-2.444
			c-1.396-0.695-3.086-1.336-5.063-1.92c-1.979-0.579-4.188-1.221-6.632-1.92c-2.968-0.813-5.543-1.702-7.725-2.661
			c-2.183-0.961-4-2.094-5.455-3.402c-1.455-1.313-2.545-2.821-3.272-4.539c-0.728-1.717-1.091-3.767-1.091-6.152
			c0-3.142,0.581-5.935,1.745-8.379c1.163-2.443,2.778-4.479,4.845-6.109c2.065-1.628,4.464-2.863,7.199-3.709
			c2.734-0.842,5.674-1.266,8.813-1.266c4.363,0,8.38,0.685,12.045,2.051c3.666,1.368,6.864,2.983,9.601,4.844L588.134,189.258z"/>
	</g>
	<g>
		<path fill="#FFFFFF" stroke="#FFFFFF" stroke-width="0.5" stroke-miterlimit="10" d="M357.404,259.426v-14.459h1.426v14.459
			H357.404z"/>
	</g>
	<g>
		<path fill="#FFFFFF" stroke="#FFFFFF" stroke-width="0.5" stroke-miterlimit="10" d="M374.063,247.615v11.812h-1.426v-14.459h1.1
			l9.572,12.034v-12.015h1.424v14.438h-1.241L374.063,247.615z"/>
	</g>
	<g>
		<path fill="#FFFFFF" stroke="#FFFFFF" stroke-width="0.5" stroke-miterlimit="10" d="M398.479,244.967l5.172,12.687l5.151-12.687
			h1.487l-6.028,14.459h-1.241l-6.028-14.459H398.479z"/>
	</g>
	<g>
		<path fill="#FFFFFF" stroke="#FFFFFF" stroke-width="0.5" stroke-miterlimit="10" d="M422.548,259.426v-14.459h1.425v14.459
			H422.548z"/>
	</g>
	<g>
		<path fill="#FFFFFF" stroke="#FFFFFF" stroke-width="0.5" stroke-miterlimit="10" d="M448.042,246.23h-5.152v13.196h-1.424V246.23
			h-5.151v-1.263h11.729L448.042,246.23L448.042,246.23z"/>
	</g>
	<g>
		<path fill="#FFFFFF" stroke="#FFFFFF" stroke-width="0.5" stroke-miterlimit="10" d="M463.438,244.967h1.202l6.007,14.459h-1.508
			l-1.873-4.522h-6.494l-1.854,4.522h-1.527L463.438,244.967z M466.941,253.785l-2.912-7.149l-2.953,7.149H466.941z"/>
	</g>
	<g>
		<path fill="#FFFFFF" stroke="#FFFFFF" stroke-width="0.5" stroke-miterlimit="10" d="M482.906,259.426v-14.459h4.907
			c1.153,0,2.161,0.19,3.022,0.569c0.863,0.382,1.581,0.896,2.158,1.549c0.579,0.649,1.012,1.415,1.304,2.29
			c0.292,0.876,0.438,1.81,0.438,2.8c0,1.102-0.164,2.096-0.489,2.985c-0.325,0.888-0.791,1.647-1.396,2.279
			c-0.604,0.631-1.33,1.12-2.179,1.465c-0.849,0.348-1.803,0.521-2.86,0.521H482.906z M493.313,252.175
			c0-0.868-0.122-1.666-0.365-2.392c-0.245-0.728-0.602-1.354-1.07-1.885c-0.469-0.528-1.043-0.938-1.721-1.231
			c-0.68-0.291-1.46-0.438-2.342-0.438h-3.482v11.934h3.482c0.896,0,1.687-0.152,2.371-0.456c0.688-0.308,1.26-0.729,1.722-1.265
			c0.461-0.537,0.811-1.167,1.05-1.894C493.192,253.822,493.313,253.031,493.313,252.175z"/>
	</g>
	<g>
		<path fill="#FFFFFF" stroke="#FFFFFF" stroke-width="0.5" stroke-miterlimit="10" d="M513.472,259.528
			c-1.004,0-1.925-0.208-2.761-0.622c-0.833-0.413-1.55-0.963-2.146-1.649c-0.599-0.685-1.059-1.468-1.386-2.353
			c-0.325-0.882-0.488-1.782-0.488-2.707c0-0.965,0.174-1.888,0.521-2.77c0.346-0.882,0.824-1.664,1.435-2.342
			c0.611-0.678,1.331-1.218,2.159-1.618s1.726-0.601,2.688-0.601c1.006,0,1.925,0.212,2.761,0.64
			c0.835,0.427,1.546,0.989,2.138,1.681c0.591,0.691,1.048,1.477,1.375,2.353c0.324,0.876,0.488,1.769,0.488,2.679
			c0,0.963-0.174,1.888-0.521,2.77c-0.346,0.883-0.82,1.658-1.425,2.33c-0.604,0.674-1.32,1.21-2.148,1.61
			S514.435,259.528,513.472,259.528z M508.116,252.197c0,0.787,0.128,1.545,0.387,2.271c0.257,0.726,0.625,1.371,1.099,1.934
			c0.478,0.563,1.039,1.014,1.691,1.345c0.651,0.335,1.378,0.501,2.179,0.501c0.813,0,1.555-0.179,2.221-0.529
			c0.665-0.354,1.228-0.817,1.689-1.385c0.461-0.57,0.816-1.216,1.068-1.937c0.251-0.719,0.376-1.454,0.376-2.199
			c0-0.785-0.132-1.545-0.396-2.271c-0.266-0.727-0.636-1.368-1.109-1.925c-0.477-0.557-1.039-1.001-1.689-1.334
			c-0.652-0.333-1.372-0.499-2.159-0.499c-0.813,0-1.554,0.174-2.221,0.521c-0.664,0.348-1.229,0.804-1.689,1.375
			c-0.463,0.569-0.816,1.213-1.068,1.935C508.241,250.717,508.116,251.448,508.116,252.197z"/>
	</g>
	<g>
		<path fill="#FFFFFF" stroke="#FFFFFF" stroke-width="0.5" stroke-miterlimit="10" d="M541.572,247.674
			c-0.406-0.46-0.95-0.834-1.629-1.119c-0.68-0.284-1.452-0.427-2.321-0.427c-1.275,0-2.205,0.24-2.79,0.724
			c-0.583,0.481-0.875,1.137-0.875,1.965c0,0.434,0.079,0.791,0.234,1.068c0.154,0.279,0.396,0.519,0.722,0.725
			c0.327,0.202,0.744,0.377,1.253,0.527c0.51,0.15,1.109,0.301,1.803,0.448c0.773,0.162,1.469,0.345,2.086,0.55
			c0.618,0.204,1.146,0.458,1.578,0.764c0.437,0.306,0.769,0.678,0.999,1.109c0.23,0.436,0.347,0.979,0.347,1.63
			c0,0.666-0.129,1.242-0.389,1.731c-0.258,0.485-0.617,0.896-1.079,1.221c-0.461,0.327-1.011,0.565-1.647,0.722
			c-0.64,0.158-1.337,0.235-2.098,0.235c-2.239,0-4.175-0.699-5.804-2.099l0.712-1.16c0.258,0.272,0.566,0.529,0.927,0.773
			c0.359,0.244,0.761,0.458,1.202,0.645c0.44,0.183,0.911,0.322,1.415,0.427c0.501,0.101,1.03,0.149,1.588,0.149
			c1.153,0,2.055-0.203,2.699-0.619c0.645-0.414,0.967-1.042,0.967-1.884c0-0.448-0.093-0.823-0.274-1.131
			c-0.185-0.307-0.458-0.569-0.824-0.793c-0.368-0.226-0.822-0.418-1.364-0.58c-0.544-0.164-1.175-0.327-1.895-0.49
			c-0.762-0.176-1.427-0.358-1.995-0.55c-0.571-0.188-1.053-0.428-1.446-0.713c-0.393-0.285-0.688-0.628-0.887-1.027
			c-0.195-0.4-0.295-0.895-0.295-1.478c0-0.665,0.126-1.258,0.378-1.781c0.25-0.521,0.605-0.958,1.066-1.305
			c0.463-0.345,1.007-0.61,1.63-0.793c0.625-0.183,1.316-0.272,2.076-0.272c0.966,0,1.824,0.145,2.577,0.438
			c0.753,0.292,1.437,0.702,2.047,1.23L541.572,247.674z"/>
	</g>
	<g opacity="0.6">
		<g>
			<path fill="#FFFFFF" d="M445.714,345.454c-28.237,0-55.698-7.618-79.938-22.254c-26.224-15.83-47.011-38.765-60.115-66.324
				l0.656-0.313c27.132,57.061,85.433,91.587,148.51,87.897c59.253-3.445,111.951-41.232,134.252-96.268l0.674,0.271
				c-10.874,26.836-29.005,50.068-52.438,67.191c-24.057,17.581-52.565,27.792-82.446,29.53
				C451.811,345.365,448.757,345.454,445.714,345.454z"/>
		</g>
		<g>
			<polygon fill="#FFFFFF" points="471.378,390.962 471.143,390.814 423.211,360.505 364.938,370.437 353.475,331.578 
				323.049,334.738 322.562,307.389 306.186,257.95 306.876,257.723 323.287,307.32 323.762,333.935 354,330.79 354.086,331.081 
				365.453,369.611 423.364,359.74 423.481,359.816 471.297,390.051 517.774,347.495 517.956,347.531 547.209,353.571 
				561.931,303.339 562.104,303.277 582.044,295.969 578.688,281.43 588.609,249.334 589.303,249.55 579.439,281.459 
				582.896,296.433 582.596,296.542 562.526,303.895 547.719,354.416 547.391,354.35 517.99,348.282 			"/>
		</g>
		<g>
			<path fill="#FFFFFF" d="M471.336,390.869c-0.006,0-0.014,0-0.021,0c-0.161-0.01-0.297-0.126-0.333-0.28l-10.617-45.708
				l-36.938,15.578c-0.16,0.063-0.345,0.012-0.44-0.132l-12.818-18.854l-44.875,28.521c-0.145,0.089-0.327,0.069-0.449-0.046
				c-0.121-0.117-0.144-0.302-0.06-0.445l21.349-35.784l-32.355-1.963c-0.112-0.009-0.217-0.067-0.279-0.159
				c-0.063-0.093-0.079-0.21-0.044-0.318l4.206-12.658l-34.099,16.046c-0.139,0.063-0.304,0.037-0.412-0.072
				c-0.108-0.107-0.138-0.271-0.074-0.41l14.764-31.717l-14.792,5.206l-0.242-0.688l15.608-5.489c0.14-0.05,0.292-0.01,0.39,0.1
				c0.099,0.106,0.122,0.264,0.061,0.396l-14.706,31.59l33.96-15.979c0.131-0.063,0.284-0.039,0.396,0.06
				c0.109,0.097,0.149,0.248,0.104,0.386l-4.324,13.015l32.479,1.969c0.127,0.01,0.24,0.081,0.301,0.194
				c0.058,0.11,0.055,0.246-0.01,0.355l-20.869,34.982l43.882-27.89c0.166-0.104,0.388-0.063,0.495,0.102l12.851,18.9l37.061-15.631
				c0.099-0.037,0.21-0.035,0.306,0.013c0.095,0.048,0.165,0.139,0.188,0.239l10.438,44.935l18.363-50.695
				c0.067-0.187,0.271-0.283,0.458-0.222l27.424,9.121l9.082-25.45c0.045-0.131,0.161-0.224,0.301-0.238
				c0.143-0.014,0.272,0.048,0.347,0.163l19.814,31l4.769-50.279c0.009-0.099,0.057-0.185,0.131-0.246
				c0.072-0.063,0.169-0.101,0.267-0.082l9.575,0.924l3.218-14.8c0.022-0.107,0.095-0.2,0.19-0.248
				c0.1-0.049,0.213-0.053,0.315-0.006l16.954,7.701l-0.302,0.661l-16.545-7.517l-3.19,14.677c-0.038,0.182-0.215,0.305-0.39,0.287
				l-9.536-0.922l-4.833,50.971c-0.015,0.154-0.125,0.281-0.275,0.319c-0.153,0.037-0.31-0.026-0.393-0.157l-19.982-31.265
				l-8.95,25.086c-0.066,0.188-0.271,0.282-0.457,0.224l-27.427-9.121l-18.663,51.518
				C471.626,390.776,471.489,390.869,471.336,390.869z"/>
		</g>
		<g>
			
				<rect x="571.921" y="277.349" transform="matrix(-0.4622 -0.8868 0.8868 -0.4622 584.0749 924.1948)" fill="#FFFFFF" width="0.727" height="15.275"/>
		</g>
		<g>
			<circle fill="#FFFFFF" cx="306.531" cy="257.837" r="1.793"/>
		</g>
		<g>
			<path fill="#FFFFFF" d="M340.356,301.731c0.059,1.009-0.711,1.872-1.717,1.93c-1.006,0.061-1.872-0.709-1.93-1.716
				c-0.058-1.01,0.712-1.872,1.718-1.93C339.434,299.954,340.298,300.725,340.356,301.731z"/>
		</g>
		<g>
			<circle fill="#FFFFFF" cx="323.404" cy="334.337" r="2.772"/>
		</g>
		<g>
			<path fill="#FFFFFF" d="M324.605,307.231c0.054,0.929-0.656,1.724-1.583,1.777c-0.928,0.057-1.725-0.654-1.78-1.583
				c-0.054-0.929,0.656-1.727,1.585-1.777C323.754,305.594,324.551,306.303,324.605,307.231z"/>
		</g>
		<g>
			<circle fill="#FFFFFF" cx="358.271" cy="317.93" r="3.328"/>
		</g>
		<g>
			<circle fill="#FFFFFF" cx="353.799" cy="331.392" r="1.918"/>
		</g>
		<g>
			<circle fill="#FFFFFF" cx="365.195" cy="370.025" r="1.693"/>
		</g>
		<g>
			<path fill="#FFFFFF" d="M388.068,333.317c0.045,0.729-0.512,1.353-1.24,1.395c-0.729,0.043-1.354-0.515-1.396-1.242
				c-0.043-0.729,0.514-1.353,1.241-1.395C387.402,332.03,388.027,332.588,388.068,333.317z"/>
		</g>
		<g>
			<circle fill="#FFFFFF" cx="410.271" cy="340.977" r="2.09"/>
		</g>
		<g>
			<path fill="#FFFFFF" d="M425.46,359.996c0.069,1.197-0.848,2.227-2.047,2.298c-1.199,0.07-2.229-0.847-2.299-2.046
				c-0.069-1.201,0.847-2.229,2.045-2.3C424.36,357.88,425.39,358.797,425.46,359.996z"/>
		</g>
		<g>
			<path fill="#FFFFFF" d="M473.904,390.356c0.083,1.419-0.999,2.635-2.418,2.718c-1.417,0.08-2.635-1-2.715-2.417
				c-0.084-1.42,0.998-2.635,2.418-2.716C472.606,387.858,473.822,388.939,473.904,390.356z"/>
		</g>
		<g>
			<circle fill="#FFFFFF" cx="460.622" cy="344.378" r="1.325"/>
		</g>
		<g>
			<circle fill="#FFFFFF" cx="490.119" cy="338.656" r="2.749"/>
		</g>
		<g>
			<circle fill="#FFFFFF" cx="517.882" cy="347.89" r="2.175"/>
		</g>
		<g>
			<circle fill="#FFFFFF" cx="547.464" cy="353.993" r="1.409"/>
		</g>
		<g>
			<path fill="#FFFFFF" d="M528.368,322.029c0.039,0.711-0.502,1.319-1.212,1.362c-0.71,0.038-1.319-0.501-1.361-1.212
				c-0.041-0.708,0.502-1.319,1.213-1.359C527.717,320.778,528.324,321.319,528.368,322.029z"/>
		</g>
		<g>
			<circle fill="#FFFFFF" cx="552.333" cy="302.662" r="1.554"/>
		</g>
		<g>
			<circle fill="#FFFFFF" cx="562.229" cy="303.617" r="1.606"/>
		</g>
		<g>
			<path fill="#FFFFFF" d="M566.746,288.429c0.039,0.678-0.48,1.262-1.159,1.302s-1.264-0.479-1.301-1.159
				c-0.042-0.68,0.479-1.264,1.158-1.302C566.124,287.229,566.706,287.747,566.746,288.429z"/>
		</g>
		<g>
			<circle fill="#FFFFFF" cx="582.471" cy="296.201" r="1.497"/>
		</g>
		<g>
			<circle fill="#FFFFFF" cx="579.063" cy="281.445" r="1.952"/>
		</g>
		<g>
			<circle fill="#FFFFFF" cx="588.957" cy="249.443" r="1.862"/>
		</g>
	</g>
	<g opacity="0.3">
		<g>
			<path fill="#FFFFFF" d="M445.714,345.454c-28.237,0-55.698-7.618-79.938-22.254c-26.224-15.83-47.011-38.765-60.115-66.324
				l0.656-0.313c27.132,57.061,85.433,91.587,148.51,87.897c59.253-3.445,111.951-41.232,134.252-96.268l0.674,0.271
				c-10.874,26.836-29.005,50.068-52.438,67.191c-24.057,17.581-52.565,27.792-82.446,29.53
				C451.811,345.365,448.757,345.454,445.714,345.454z"/>
		</g>
		<g>
			<polygon fill="#FFFFFF" points="500.135,388.422 499.799,388.266 424.951,353.006 382.055,384.21 353.509,331.526 
				309.139,326.478 314.74,305.626 306.173,257.901 306.89,257.774 315.484,305.658 315.463,305.737 310.06,325.848 
				353.966,330.845 382.298,383.134 424.872,352.163 425.066,352.255 499.774,387.448 517.624,347.576 517.797,347.535 
				572.301,334.453 561.771,303.399 582.044,295.969 578.688,281.43 588.609,249.334 589.303,249.55 579.439,281.459 
				582.896,296.433 582.596,296.542 562.688,303.835 573.243,334.975 572.856,335.067 518.141,348.202 			"/>
		</g>
		<g>
			<path fill="#FFFFFF" d="M499.956,388.299c-0.101,0-0.199-0.041-0.271-0.119l-39.188-43.399l-35.504,8.158
				c-0.108,0.029-0.223,0-0.308-0.067l-14.329-11.361l-27.976,42.029c-0.093,0.14-0.269,0.194-0.425,0.142
				c-0.156-0.056-0.256-0.212-0.24-0.378l4.639-49.57l-32.576-1.977c-0.112-0.009-0.217-0.067-0.279-0.159
				c-0.063-0.093-0.079-0.21-0.044-0.318l4.282-12.89l-48.076,8.131c-0.162,0.033-0.321-0.056-0.389-0.206
				c-0.07-0.146-0.03-0.323,0.096-0.43l27.923-23.477l-22.12,3.595l-0.116-0.72l23.42-3.805c0.159-0.023,0.321,0.058,0.39,0.208
				c0.068,0.147,0.028,0.323-0.097,0.429l-27.912,23.468l47.355-8.011c0.126-0.022,0.254,0.025,0.336,0.119
				c0.085,0.099,0.109,0.231,0.07,0.354l-4.324,13.015l32.479,1.969c0.099,0.008,0.19,0.054,0.256,0.127
				c0.063,0.075,0.094,0.173,0.086,0.271l-4.54,48.51l27.396-41.159c0.057-0.084,0.146-0.143,0.244-0.157
				c0.104-0.016,0.204,0.011,0.284,0.073L425,352.192l35.54-8.168c0.13-0.023,0.264,0.014,0.351,0.11l38.447,42.578l-9.576-47.984
				c-0.025-0.125,0.02-0.258,0.116-0.343c0.097-0.087,0.233-0.113,0.355-0.073l27.424,9.121l9.082-25.45
				c0.063-0.179,0.257-0.277,0.438-0.229l44.779,12.357l-19.933-31.254c-0.074-0.118-0.075-0.269-0.003-0.388
				c0.071-0.117,0.208-0.188,0.346-0.171l9.575,0.924l3.218-14.8c0.022-0.107,0.095-0.2,0.19-0.248
				c0.1-0.049,0.213-0.053,0.315-0.006l16.954,7.701l-0.302,0.662l-16.545-7.518l-3.19,14.677c-0.038,0.182-0.215,0.305-0.39,0.287
				l-9.154-0.886l20.038,31.424c0.081,0.127,0.075,0.291-0.015,0.412c-0.087,0.121-0.244,0.176-0.39,0.135l-45.363-12.52
				l-9.087,25.467c-0.066,0.188-0.271,0.283-0.456,0.224l-27.171-9.036l9.714,48.666c0.032,0.16-0.046,0.322-0.192,0.396
				C500.066,388.286,500.01,388.299,499.956,388.299z"/>
		</g>
		<g>
			
				<rect x="571.921" y="277.349" transform="matrix(-0.4622 -0.8868 0.8868 -0.4622 584.0749 924.1948)" fill="#FFFFFF" width="0.727" height="15.275"/>
		</g>
		<g>
			<circle fill="#FFFFFF" cx="306.531" cy="257.837" r="1.793"/>
		</g>
		<g>
			<path fill="#FFFFFF" d="M340.356,301.731c0.059,1.009-0.711,1.872-1.717,1.93c-1.006,0.061-1.872-0.709-1.93-1.716
				c-0.058-1.01,0.712-1.872,1.718-1.93C339.434,299.954,340.298,300.725,340.356,301.731z"/>
		</g>
		<g>
			<circle fill="#FFFFFF" cx="309.6" cy="326.164" r="2.772"/>
		</g>
		<g>
			<circle fill="#FFFFFF" cx="315.112" cy="305.643" r="1.684"/>
		</g>
		<g>
			<circle fill="#FFFFFF" cx="358.271" cy="317.93" r="3.328"/>
		</g>
		<g>
			<circle fill="#FFFFFF" cx="353.799" cy="331.392" r="1.918"/>
		</g>
		<g>
			<path fill="#FFFFFF" d="M383.864,383.573c0.056,0.936-0.656,1.735-1.591,1.787c-0.935,0.058-1.733-0.658-1.787-1.588
				c-0.055-0.937,0.658-1.737,1.59-1.791C383.011,381.93,383.811,382.641,383.864,383.573z"/>
		</g>
		<g>
			<path fill="#FFFFFF" d="M388.068,333.317c0.045,0.729-0.512,1.353-1.24,1.395c-0.729,0.043-1.354-0.515-1.396-1.242
				c-0.043-0.729,0.514-1.353,1.241-1.395C387.402,332.03,388.027,332.588,388.068,333.317z"/>
		</g>
		<g>
			<circle fill="#FFFFFF" cx="410.271" cy="340.977" r="2.09"/>
		</g>
		<g>
			<circle fill="#FFFFFF" cx="424.911" cy="352.584" r="2.175"/>
		</g>
		<g>
			<circle fill="#FFFFFF" cx="499.955" cy="387.935" r="2.571"/>
		</g>
		<g>
			<circle fill="#FFFFFF" cx="460.622" cy="344.378" r="1.325"/>
		</g>
		<g>
			<circle fill="#FFFFFF" cx="490.119" cy="338.656" r="2.749"/>
		</g>
		<g>
			<circle fill="#FFFFFF" cx="517.882" cy="347.89" r="2.175"/>
		</g>
		<g>
			<circle fill="#FFFFFF" cx="572.771" cy="334.714" r="1.409"/>
		</g>
		<g>
			<path fill="#FFFFFF" d="M528.368,322.029c0.039,0.711-0.502,1.319-1.212,1.362c-0.71,0.038-1.319-0.501-1.361-1.212
				c-0.041-0.708,0.502-1.319,1.213-1.359C527.717,320.778,528.324,321.319,528.368,322.029z"/>
		</g>
		<g>
			<circle fill="#FFFFFF" cx="552.333" cy="302.662" r="1.554"/>
		</g>
		<g>
			<circle fill="#FFFFFF" cx="562.229" cy="303.617" r="1.606"/>
		</g>
		<g>
			<path fill="#FFFFFF" d="M566.746,288.429c0.039,0.678-0.48,1.262-1.159,1.302s-1.264-0.479-1.301-1.159
				c-0.042-0.68,0.479-1.264,1.158-1.302C566.124,287.229,566.706,287.747,566.746,288.429z"/>
		</g>
		<g>
			<circle fill="#FFFFFF" cx="582.471" cy="296.201" r="1.497"/>
		</g>
		<g>
			<circle fill="#FFFFFF" cx="579.063" cy="281.445" r="1.952"/>
		</g>
		<g>
			<circle fill="#FFFFFF" cx="588.957" cy="249.443" r="1.862"/>
		</g>
	</g>
	<g opacity="0.6">
		<g>
			<path fill="#FFFFFF" d="M92.345,147.661l-0.674-0.272c10.874-26.836,29.006-50.07,52.437-67.192
				c24.057-17.58,52.566-27.791,82.448-29.529c31.431-1.824,62.242,5.776,89.093,21.985c26.223,15.831,47.011,38.767,60.117,66.327
				l-0.656,0.313c-27.133-57.062-85.423-91.587-148.51-87.898C167.343,54.838,114.646,92.627,92.345,147.661z"/>
		</g>
		<g>
			<polygon fill="#FFFFFF" points="92.813,146.52 92.119,146.304 101.982,114.395 98.525,99.422 98.826,99.313 118.896,91.959 
				133.703,41.437 134.031,41.504 163.432,47.571 210.044,4.892 210.279,5.041 258.211,35.349 316.483,25.417 327.948,64.275 
				358.373,61.116 358.859,88.466 375.236,137.904 374.547,138.131 358.135,88.534 357.661,61.921 327.421,65.063 327.335,64.771 
				315.969,26.244 258.058,36.114 257.94,36.038 210.125,5.803 163.648,48.358 163.467,48.321 134.213,42.284 119.491,92.516 
				119.318,92.578 99.378,99.885 102.735,114.424 			"/>
		</g>
		<g>
			<path fill="#FFFFFF" d="M115.907,107.719c-0.052,0-0.103-0.011-0.151-0.033L98.8,99.984l0.301-0.662l16.545,7.517l3.191-14.678
				c0.039-0.181,0.21-0.311,0.389-0.285l9.536,0.922l4.833-50.97c0.015-0.155,0.126-0.283,0.277-0.32
				c0.151-0.039,0.308,0.024,0.392,0.157l19.983,31.265l8.95-25.087c0.066-0.188,0.268-0.287,0.458-0.223l27.426,9.12l18.663-51.516
				c0.054-0.152,0.183-0.249,0.363-0.24c0.161,0.011,0.296,0.125,0.333,0.281l10.617,45.708l36.938-15.577
				c0.16-0.064,0.345-0.014,0.442,0.131l12.817,18.854l44.875-28.522c0.143-0.091,0.328-0.07,0.449,0.045
				c0.122,0.118,0.145,0.304,0.06,0.448L295.29,62.136l32.355,1.962c0.114,0.007,0.216,0.066,0.278,0.161
				c0.064,0.092,0.08,0.21,0.046,0.318l-4.206,12.656l34.1-16.045c0.137-0.062,0.302-0.035,0.41,0.073s0.139,0.271,0.072,0.411
				l-14.764,31.716l14.794-5.205l0.241,0.687l-15.609,5.489c-0.14,0.051-0.29,0.01-0.389-0.098
				c-0.102-0.108-0.122-0.266-0.061-0.397l14.703-31.59l-33.958,15.981c-0.132,0.06-0.287,0.038-0.396-0.06
				c-0.108-0.097-0.149-0.249-0.104-0.386l4.322-13.015l-32.48-1.969c-0.125-0.009-0.239-0.081-0.298-0.193
				c-0.06-0.112-0.057-0.247,0.008-0.357l20.87-34.981l-43.882,27.889c-0.165,0.105-0.386,0.062-0.495-0.102l-12.85-18.899
				l-37.06,15.629c-0.097,0.042-0.211,0.039-0.307-0.011c-0.095-0.048-0.165-0.138-0.189-0.242L210.008,6.626l-18.364,50.694
				c-0.067,0.187-0.269,0.284-0.457,0.223l-27.424-9.121l-9.081,25.451c-0.046,0.13-0.164,0.223-0.301,0.238
				c-0.148,0.011-0.273-0.049-0.347-0.165l-19.814-31l-4.768,50.282c-0.009,0.098-0.057,0.186-0.131,0.246
				c-0.075,0.062-0.175,0.092-0.267,0.083l-9.575-0.924l-3.218,14.801c-0.023,0.108-0.093,0.199-0.191,0.249
				C116.018,107.706,115.963,107.719,115.907,107.719z"/>
		</g>
		<g>
			
				<rect x="108.769" y="103.246" transform="matrix(-0.4611 -0.8873 0.8873 -0.4611 61.0651 258.8509)" fill="#FFFFFF" width="0.727" height="15.275"/>
		</g>
		<g>
			<circle fill="#FFFFFF" cx="374.891" cy="138.017" r="1.793"/>
		</g>
		<g>
			<circle fill="#FFFFFF" cx="342.891" cy="94.017" r="1.827"/>
		</g>
		<g>
			<circle fill="#FFFFFF" cx="358.018" cy="61.518" r="2.771"/>
		</g>
		<g>
			<circle fill="#FFFFFF" cx="358.498" cy="88.526" r="1.685"/>
		</g>
		<g>
			<circle fill="#FFFFFF" cx="323.15" cy="77.925" r="3.329"/>
		</g>
		<g>
			<circle fill="#FFFFFF" cx="327.623" cy="64.462" r="1.917"/>
		</g>
		<g>
			<circle fill="#FFFFFF" cx="316.226" cy="25.83" r="1.692"/>
		</g>
		<g>
			<circle fill="#FFFFFF" cx="294.671" cy="62.462" r="1.32"/>
		</g>
		<g>
			<circle fill="#FFFFFF" cx="271.151" cy="54.877" r="2.09"/>
		</g>
		<g>
			<circle fill="#FFFFFF" cx="258.134" cy="35.732" r="2.176"/>
		</g>
		<g>
			<circle fill="#FFFFFF" cx="210.084" cy="5.348" r="2.571"/>
		</g>
		<g>
			<circle fill="#FFFFFF" cx="220.8" cy="51.476" r="1.325"/>
		</g>
		<g>
			<circle fill="#FFFFFF" cx="191.303" cy="57.198" r="2.75"/>
		</g>
		<g>
			<circle fill="#FFFFFF" cx="163.54" cy="47.964" r="2.175"/>
		</g>
		<g>
			<circle fill="#FFFFFF" cx="133.958" cy="41.861" r="1.409"/>
		</g>
		<g>
			<circle fill="#FFFFFF" cx="154.341" cy="73.75" r="1.288"/>
		</g>
		<g>
			<circle fill="#FFFFFF" cx="129.089" cy="93.193" r="1.554"/>
		</g>
		<g>
			<circle fill="#FFFFFF" cx="119.193" cy="92.237" r="1.606"/>
		</g>
		<g>
			<circle fill="#FFFFFF" cx="115.906" cy="107.354" r="1.233"/>
		</g>
		<g>
			<circle fill="#FFFFFF" cx="98.951" cy="99.653" r="1.497"/>
		</g>
		<g>
			<circle fill="#FFFFFF" cx="102.359" cy="114.41" r="1.952"/>
		</g>
		<g>
			<circle fill="#FFFFFF" cx="92.465" cy="146.412" r="1.862"/>
		</g>
	</g>
	<g opacity="0.3">
		<g>
			<path fill="#FFFFFF" d="M92.345,147.661l-0.674-0.272c10.874-26.836,29.006-50.07,52.437-67.192
				c24.057-17.58,52.566-27.791,82.448-29.529c31.431-1.824,62.242,5.776,89.093,21.985c26.223,15.831,47.011,38.767,60.117,66.327
				l-0.656,0.313c-27.133-57.062-85.423-91.587-148.51-87.898C167.343,54.838,114.646,92.627,92.345,147.661z"/>
		</g>
		<g>
			<polygon fill="#FFFFFF" points="92.813,146.52 92.119,146.304 101.986,114.381 98.527,91.264 118.879,91.864 127.242,33.046 
				163.519,47.564 210.04,22.872 258.227,35.379 304.338,37.551 327.776,64.221 355.504,50.95 365.837,98.079 375.245,137.934 
				374.537,138.101 365.128,98.242 354.989,52.001 327.593,65.116 303.996,38.264 258.118,36.095 210.13,23.647 163.562,48.365 
				127.831,34.065 119.507,92.611 99.375,92.017 102.73,114.438 102.706,114.517 			"/>
		</g>
		<g>
			<path fill="#FFFFFF" d="M115.907,107.719c-0.091,0-0.179-0.034-0.248-0.097L98.705,91.906l0.494-0.533l16.488,15.28l3.152-14.494
				c0.039-0.181,0.21-0.311,0.389-0.285l9.488,0.916l-1.543-59.228c-0.004-0.162,0.099-0.308,0.253-0.355
				c0.153-0.047,0.324,0.01,0.413,0.145l26.402,39.592l8.957-25.104c0.066-0.188,0.268-0.287,0.458-0.223l27.476,9.138
				l18.636-33.673c0.069-0.125,0.2-0.208,0.344-0.187c0.142,0.01,0.264,0.102,0.315,0.232l10.581,27.864l36.987-15.6
				c0.16-0.064,0.345-0.014,0.442,0.131l12.836,18.882l32.831-16.491c0.135-0.066,0.297-0.045,0.409,0.057
				c0.11,0.104,0.147,0.263,0.091,0.402l-9.409,23.754l32.452,1.967c0.114,0.007,0.216,0.066,0.278,0.161
				c0.064,0.092,0.08,0.21,0.046,0.317l-4.076,12.265l31.121-25.646c0.123-0.1,0.297-0.108,0.433-0.021
				c0.133,0.088,0.192,0.252,0.147,0.405L343.35,93.732l22.197,4.068l-0.131,0.716l-22.592-4.141c-0.104-0.02-0.19-0.08-0.244-0.166
				c-0.055-0.088-0.068-0.195-0.04-0.293l12.028-41.411l-31.187,25.7c-0.126,0.101-0.304,0.108-0.438,0.019
				c-0.133-0.091-0.19-0.26-0.139-0.415l4.322-13.015l-32.48-1.969c-0.117-0.008-0.222-0.069-0.284-0.17
				c-0.063-0.098-0.074-0.22-0.031-0.327l9.243-23.334L271.313,55.2c-0.165,0.08-0.362,0.029-0.463-0.121L258,36.18l-37.06,15.629
				c-0.092,0.037-0.195,0.039-0.284-0.001c-0.09-0.038-0.162-0.112-0.197-0.204l-10.437-27.482L191.62,57.372
				c-0.085,0.151-0.268,0.224-0.434,0.169l-27.424-9.121l-9.081,25.451c-0.046,0.129-0.161,0.221-0.298,0.238
				c-0.138,0.014-0.271-0.044-0.347-0.159l-26.105-39.146l1.521,58.379c0.002,0.104-0.04,0.204-0.116,0.275s-0.18,0.108-0.283,0.096
				l-9.575-0.924l-3.218,14.801c-0.027,0.128-0.121,0.231-0.246,0.271C115.98,107.713,115.943,107.719,115.907,107.719z"/>
		</g>
		<g>
			
				<rect x="108.769" y="103.246" transform="matrix(-0.4611 -0.8873 0.8873 -0.4611 61.0651 258.8509)" fill="#FFFFFF" width="0.727" height="15.275"/>
		</g>
		<g>
			<circle fill="#FFFFFF" cx="374.891" cy="138.017" r="1.793"/>
		</g>
		<g>
			<circle fill="#FFFFFF" cx="342.891" cy="94.017" r="1.827"/>
		</g>
		<g>
			<path fill="#FFFFFF" d="M352.479,51.635c-0.088-1.528,1.078-2.838,2.607-2.926c1.528-0.091,2.838,1.077,2.926,2.604
				c0.092,1.528-1.076,2.838-2.604,2.93C353.879,54.331,352.566,53.163,352.479,51.635z"/>
		</g>
		<g>
			<circle fill="#FFFFFF" cx="365.482" cy="98.156" r="1.684"/>
		</g>
		<g>
			<circle fill="#FFFFFF" cx="323.15" cy="77.925" r="3.329"/>
		</g>
		<g>
			<circle fill="#FFFFFF" cx="327.623" cy="64.462" r="1.917"/>
		</g>
		<g>
			<circle fill="#FFFFFF" cx="304.167" cy="37.907" r="1.693"/>
		</g>
		<g>
			<circle fill="#FFFFFF" cx="294.671" cy="62.462" r="1.32"/>
		</g>
		<g>
			<circle fill="#FFFFFF" cx="271.151" cy="54.877" r="2.09"/>
		</g>
		<g>
			<circle fill="#FFFFFF" cx="258.134" cy="35.732" r="2.176"/>
		</g>
		<g>
			<circle fill="#FFFFFF" cx="210.084" cy="23.261" r="2.571"/>
		</g>
		<g>
			<circle fill="#FFFFFF" cx="220.8" cy="51.476" r="1.325"/>
		</g>
		<g>
			<circle fill="#FFFFFF" cx="191.303" cy="57.198" r="2.75"/>
		</g>
		<g>
			<circle fill="#FFFFFF" cx="163.54" cy="47.964" r="2.175"/>
		</g>
		<g>
			<circle fill="#FFFFFF" cx="127.536" cy="33.556" r="1.409"/>
		</g>
		<g>
			<circle fill="#FFFFFF" cx="154.341" cy="73.75" r="1.288"/>
		</g>
		<g>
			<circle fill="#FFFFFF" cx="129.089" cy="93.193" r="1.554"/>
		</g>
		<g>
			<circle fill="#FFFFFF" cx="119.193" cy="92.237" r="1.606"/>
		</g>
		<g>
			<circle fill="#FFFFFF" cx="115.906" cy="107.354" r="1.233"/>
		</g>
		<g>
			<circle fill="#FFFFFF" cx="98.951" cy="91.639" r="1.497"/>
		</g>
		<g>
			<circle fill="#FFFFFF" cx="102.359" cy="114.41" r="1.952"/>
		</g>
		<g>
			<circle fill="#FFFFFF" cx="92.465" cy="146.412" r="1.862"/>
		</g>
	</g>
</g>
</svg>
