<?xml version="1.0" encoding="utf-8"?>
<!-- Generator: Adobe Illustrator 16.0.0, SVG Export Plug-In . SVG Version: 6.00 Build 0)  -->
<!DOCTYPE svg PUBLIC "-//W3C//DTD SVG 1.1//EN" "http://www.w3.org/Graphics/SVG/1.1/DTD/svg11.dtd">
<svg version="1.1" id="Capa_1" xmlns="http://www.w3.org/2000/svg" xmlns:xlink="http://www.w3.org/1999/xlink" x="0px" y="0px"
	 width="400px" height="400px" viewBox="0 0 400 400" enable-background="new 0 0 400 400" xml:space="preserve">
<g>
	<g id="zOgQeC_2_">
		<g>
			<path fill="#12131E" d="M243.662,161.388c-0.195,0.795,0.396,0.676-0.479,1.71c-1.385,2.764-3.209,4.951-4.69,7.665
				c-0.729,1.334-2.664,3.758-4.009,5.637c-1.538,2.434-4.207,3.715-6.716,3.272c-1.608-0.284-2.61-1.277-3.214-2.723
				c-0.927-2.221-1.003-4.534-0.675-6.884c0.044-0.316,0.087-0.635,0.035-0.98c-0.857,1.539-1.64,3.129-2.594,4.604
				c-0.985,1.53-2.049,3.034-3.252,4.396c-1.483,1.682-3.984,1.892-5.883,0.67c-1.611-1.041-2.202-2.592-1.858-4.415
				c0.418-2.215,0.983-4.399,1.487-6.6c0.026-0.116,0.058-0.233-0.01-0.396c-0.13,0.21-0.261,0.42-0.393,0.628
				c-2.154,3.411-4.296,6.829-6.473,10.228c-0.381,0.597-0.9,1.098-1.336,1.661c-1.166,1.516-2.717,1.732-4.441,1.327
				c-1.475-0.344-2.332-1.265-2.16-2.773c0.229-2.027,0.715-4.03,1.133-6.034c0.178-0.859,0.465-1.697,0.569-2.597
				c-0.269,0.503-0.532,1.006-0.804,1.506c-1.575,2.929-3.174,5.845-5.288,8.437c-0.286,0.355-0.612,0.678-0.919,1.019
				c-1.188,1.326-2.572,1.672-4.25,0.961c-1.643-0.693-2.566-1.937-2.475-3.654c0.107-1.937,0.525-3.854,0.809-5.781
				c0.014-0.074,0.02-0.146,0.057-0.431c-0.217,0.342-0.328,0.514-0.436,0.691c-2.086,3.548-4.258,7.039-7,10.133
				c-0.354,0.399-0.733,0.776-1.138,1.124c-1.12,0.965-2.343,1.042-3.531,0.152c-1.605-1.202-2.311-2.908-2.51-4.851
				c-0.041-0.402-0.005-0.811-0.14-1.282c-0.107,0.164-0.229,0.323-0.326,0.494c-1.321,2.247-2.814,4.354-4.948,5.919
				c-2.045,1.5-4.313,2.197-6.87,1.868c-2.426-0.312-4.028-1.661-4.947-3.875c-1.098-2.645-1.1-5.364-0.314-8.062
				c1.616-5.563,4.363-10.479,8.681-14.415c0.735-0.67,1.659-1.166,2.563-1.614c1.022-0.51,2.074-0.784,3.261-0.223
				c0.828,0.392,1.802,0.5,2.722,0.673c2.643,0.5,3.719,2.086,3.156,4.719c-0.414,1.948-1.528,3.48-2.999,4.742
				c-2.294,1.968-4.664,3.848-6.962,5.809c-1.08,0.921-2.115,1.903-3.075,2.945c-0.481,0.525-0.73,1.26-1.126,1.872
				c-0.159,0.247-0.429,0.422-0.646,0.629c-0.075-0.299-0.266-0.624-0.198-0.889c0.153-0.635,0.383-1.263,0.66-1.856
				c0.854-1.842,2.1-3.413,3.499-4.861c1.816-1.885,3.681-3.724,5.472-5.629c0.636-0.678,1.142-1.481,1.665-2.255
				c0.193-0.286,0.314-0.646,0.383-0.987c0.136-0.675,0.281-1.416-0.376-1.897c-0.609-0.446-1.275-0.179-1.866,0.14
				c-0.421,0.229-0.823,0.507-1.187,0.821c-5.067,4.396-8.535,9.747-9.719,16.436c-0.146,0.821-0.225,1.665-0.223,2.498
				c0.008,2.725,1.569,3.925,4.239,3.318c1.5-0.34,2.855-1.032,3.9-2.116c1.333-1.378,2.53-2.895,3.729-4.398
				c0.834-1.05,1.572-2.175,2.343-3.274c0.115-0.159,0.188-0.354,0.256-0.544c2.134-6.299,6.01-11.35,11.186-15.433
				c1.674-1.32,3.591-2.23,5.754-2.403c0.65-0.052,1.383,0.064,1.975,0.331c1.307,0.588,2.243,1.655,3.025,2.823
				c0.567,0.851,0.475,1.694-0.154,2.294c-1.643-1.798-3.402-1.232-5.133-0.156c-2.554,1.588-4.598,3.754-6.573,5.978
				c-2.779,3.132-5.28,6.458-6.605,10.492c-0.39,1.189-0.523,2.467-0.696,3.715c-0.041,0.287,0.165,0.776,0.396,0.884
				c0.232,0.109,0.73-0.032,0.943-0.24c1.251-1.22,2.525-2.433,3.659-3.762c2.786-3.275,5.24-6.795,7.251-10.602
				c0.6-1.135,0.938-2.404,1.469-3.575c0.174-0.377,0.531-0.783,0.901-0.932c1.438-0.576,2.844-0.333,4.17,0.4
				c0.567,0.313,0.614,0.761,0.316,1.353c-1.618,3.219-3.159,6.474-4.098,9.972c-0.229,0.855-0.434,1.73-0.492,2.609
				c-0.032,0.44,0.167,1.121,0.481,1.298c0.313,0.173,1-0.026,1.344-0.295c0.527-0.406,0.972-0.969,1.332-1.54
				c2.148-3.385,4.286-6.777,6.383-10.197c1.509-2.464,2.91-4.991,4.428-7.45c0.606-0.988,1.367-1.889,2.097-2.795
				c0.503-0.626,1.193-0.709,1.938-0.48c1.323,0.409,2.342,1.271,3.374,2.218c-0.835,1.404-1.659,2.765-2.46,4.141
				c-1.913,3.291-3.807,6.599-4.997,10.236c-0.354,1.075-0.53,2.21-0.713,3.332c-0.051,0.294,0.184,0.636,0.285,0.954
				c0.305-0.147,0.687-0.225,0.896-0.458c0.646-0.714,1.32-1.427,1.814-2.243c2.807-4.62,5.563-9.266,8.328-13.907
				c0.808-1.352,1.563-2.733,2.391-4.071c1.342-2.175,2.821-2.441,4.863-0.899c0.505,0.379,0.949,0.833,1.432,1.256
				c-0.989,1.784-1.982,3.492-2.895,5.243c-1.724,3.312-3.338,6.68-4.045,10.379c-0.218,1.135-0.245,2.319-0.229,3.479
				c0.004,0.446,0.261,1.046,0.604,1.271c0.207,0.14,0.903-0.196,1.195-0.498c0.721-0.742,1.432-1.528,1.976-2.403
				c1.863-2.994,3.619-6.054,5.484-9.044c1.242-1.99,1.729-4.261,2.581-6.395c1.374-3.434,2.806-6.846,4.212-10.267
				c0.075-0.182,0.151-0.363,0.27-0.654c-0.966,0.089-1.838,0.171-2.713,0.249c-0.429,0.038-0.858,0.087-1.291,0.095
				c-0.812,0.015-1.161-0.263-1.217-0.931c-0.064-0.78,0.3-1.261,1.104-1.348c1.563-0.169,3.133-0.327,4.7-0.438
				c0.512-0.036,0.772-0.252,0.952-0.698c1.17-2.916,2.354-5.826,3.531-8.738c0.284-0.704,0.192-1.27-0.518-1.686
				c-0.494-0.289-0.844-0.726-0.575-1.327c0.266-0.599,0.854-0.66,1.377-0.492c1.445,0.461,2.876,0.977,4.301,1.506
				c0.946,0.353,1.872,0.767,2.887,1.187c-1.611,3.176-3.211,6.323-4.856,9.566c4.787-0.458,9.452-0.903,14.147-1.352
				c0.028-0.251,0.057-0.446,0.072-0.644c0.068-0.793,0.446-1.309,1.25-1.519c1.816-0.47,3.631-0.943,5.437-1.466
				c0.856-0.249,1.686-0.611,2.575-0.941c0.229,0.588-0.069,1.129-0.573,1.529c-0.652,0.521-1.412,0.907-2.058,1.438
				c-0.834,0.687-1.663,1.402-2.367,2.215c-0.582,0.668-0.646,1.546-0.249,2.368c0.133,0.275,0.446,0.456,0.647,0.702
				c0.149,0.185,0.254,0.407,0.376,0.611c-0.24,0.11-0.496,0.338-0.724,0.31c-1.269-0.15-2.311-0.792-3.104-1.757
				c-0.421-0.514-0.856-0.6-1.446-0.513c-4.44,0.65-8.884,1.305-13.332,1.916c-0.852,0.116-1.519,0.49-1.982,1.138
				c-0.856,1.192-1.76,2.378-2.412,3.682c-2.959,5.907-5.469,12-6.898,18.474c-0.31,1.401-0.242,2.93-0.096,4.376
				c0.147,1.426,1.252,1.88,2.526,1.171c0.519-0.289,0.994-0.709,1.391-1.158c3.104-3.531,6.402-8.323,9.048-12.178
				c0.953-1.392,3.729-4.214,4.147-4.849C245.686,158.31,243.522,161.328,243.662,161.388z"/>
			<path fill="#12131E" d="M112.633,192.961c0.406,0.806-0.154,1.012-0.745,1.126c-1.556,0.302-2.787-0.348-3.81-1.441
				c-2.028-2.163-3.125-4.725-3.094-7.713c0.041-3.709,0.936-7.261,2.112-10.742c3.051-9.034,7.405-17.454,12.26-25.62
				c2.192-3.685,4.628-7.226,6.954-10.833c0.162-0.253,0.329-0.505,0.617-0.945c-1.996,0.29-3.803,0.46-5.572,0.819
				c-5.953,1.208-11.938,2.292-17.82,3.793c-5.955,1.518-11.488,4.152-16.451,7.824c-1.397,1.036-2.629,2.339-3.767,3.669
				c-0.529,0.621-0.776,1.572-0.922,2.413c-0.183,1.084,0.389,1.61,1.491,1.729c0.334,0.035,0.653,0.202,0.979,0.309
				c-0.018,0.146-0.028,0.291-0.042,0.438c-0.523,0.027-1.067,0.155-1.568,0.061c-0.603-0.115-1.262-0.297-1.732-0.662
				c-1.446-1.13-2.964-2.232-4.185-3.585c-1.774-1.967-1.751-4.102,0.042-6.051c1.158-1.259,2.531-2.39,3.979-3.301
				c4.036-2.536,8.438-4.32,12.97-5.76c7.225-2.296,14.634-3.771,22.147-4.647c4.259-0.498,8.556-0.701,12.833-1.028
				c0.813-0.062,0.885-0.168,0.45-0.88c-0.459-0.748-0.503-1.547-0.1-2.276c0.488-0.887,1.022-1.79,1.714-2.517
				c1.25-1.32,2.617-2.531,3.972-3.748c0.241-0.216,0.655-0.328,0.994-0.335c1.691-0.032,3.257,0.466,4.715,1.284
				c1.747,0.981,2.225,2.436,1.196,4.168c-0.82,1.384-1.895,2.62-2.857,3.918c-0.166,0.222-0.354,0.424-0.563,0.673
				c1.68,0.365,3.327,0.582,4.875,1.089c1.875,0.619,3.716,1.389,5.48,2.276c1.308,0.657,2.096,1.841,2.443,3.33
				c0.195,0.834,0.569,1.665,1.015,2.403c2.836,4.684,2.418,9.304-1.406,13.242c-3.607,3.716-8.089,6.015-12.976,7.568
				c-1.106,0.352-2.256,0.567-3.385,0.854c-0.255,0.065-0.506,0.149-0.758,0.226c0,0.103,0,0.202-0.001,0.306
				c0.377,0.053,0.76,0.18,1.132,0.148c2.621-0.219,5.247-0.273,7.803,0.384c1.381,0.354,2.722,0.961,3.989,1.627
				c1.053,0.553,1.854,1.53,2.057,2.712c0.206,1.177,0.883,1.925,1.665,2.678c0.956,0.92,1.676,1.979,1.468,3.378
				c-0.099,0.661-0.34,1.32-0.629,1.929c-3.032,6.391-7.686,11.378-13.539,15.245c-7.873,5.203-16.503,8.443-25.876,9.654
				c-3.396,0.44-6.826,0.761-10.165-0.204c-4.11-1.188-7.625-3.398-10.207-6.888c-3.998-5.401-3.609-11.642,1.023-16.729
				c2.249-2.467,5-4.279,7.915-5.862c0.148-0.082,0.321-0.199,0.47-0.184c0.359,0.037,0.712,0.143,1.066,0.221
				c-0.09,0.388-0.151,0.786-0.284,1.158c-0.045,0.131-0.261,0.206-0.399,0.302c-5.605,3.927-8.514,9.377-8.722,16.151
				c-0.146,4.859,2.854,7.912,7.677,8.435c4.892,0.528,9.498-0.59,13.991-2.312c10.113-3.867,19.095-9.549,26.863-17.098
				c1.479-1.438,2.777-3.078,4.047-4.714c0.56-0.722,0.939-1.629,1.222-2.511c0.563-1.757-0.047-3.271-1.775-3.898
				c-1.474-0.536-3.073-0.888-4.635-0.962c-4.048-0.189-8.062,0.213-12.005,1.197c-1.801,0.448-3.14,1.672-4.609,2.679
				c-0.702,0.481-1.392,1.002-2.146,1.38c-1.649,0.829-3.298,0.45-3.976-0.833c-0.896-1.687-0.438-3.612,1.16-4.532
				c0.652-0.374,1.4-0.622,2.138-0.803c2.727-0.67,5.474-1.264,8.197-1.949c0.646-0.159,1.244-0.544,1.846-0.861
				c5.152-2.732,9.993-5.894,13.957-10.245c1.792-1.968,3.313-4.121,4.386-6.567c0.339-0.774,0.645-1.593,0.772-2.422
				c0.479-3.052-0.647-5.092-3.463-6.396c-2.178-1.01-4.521-1.283-6.882-1.464c-0.424-0.032-0.859,0.031-1.273-0.045
				c-1.632-0.303-2.743,0.312-3.738,1.64c-7.994,10.686-15.782,21.498-21.532,33.616c-1.915,4.041-3.566,8.192-4.091,12.672
				c-0.208,1.781-0.159,3.637,0.072,5.419C109.393,191.869,110.366,192.659,112.633,192.961z"/>
			<path fill="#12131E" d="M261.268,122.187c0,0.9,0.122,1.722-0.028,2.492c-0.232,1.211-1.003,1.614-2.146,1.14
				c-0.799-0.33-1.514-0.864-2.186-1.259c0.262,1.196,0.552,2.542,0.854,3.888c0.337,1.505-0.655,3.135-2.262,3.081
				c-1.238-0.042-2.496,0.077-3.716-0.092c-1.826-0.253-3.697-0.489-5.422-1.098c-4.152-1.469-6.53-5.047-6.375-9.294
				c0.031-0.876,0.292-1.745,0.451-2.616c0.049-0.263,0.113-0.521,0.221-1.005c-0.413,0.212-0.646,0.318-0.865,0.449
				c-2.894,1.721-4.776,1.521-6.982-1.051c-1.36-1.591-2.514-3.374-3.648-5.143c-1.357-2.112-2.614-4.29-3.875-6.464
				c-0.365-0.627-0.664-1.315-0.868-2.011c-0.335-1.145,0.074-1.935,1.1-2.555c1.445-0.87,2.964-0.605,4.441-0.245
				c4.661,1.135,9.066,2.923,13.197,5.372c1.781,1.057,3.35,2.384,4.671,3.988c0.141,0.171,0.304,0.323,0.567,0.602
				c-0.32-1.66-1.123-3.304,0.569-4.449c1.404-0.949,2.594-0.02,3.621,0.658c-0.113-2.619-0.319-5.299-0.324-7.979
				c-0.004-3.208,0.354-6.39,1.438-9.438c0.657-1.845,1.53-3.589,3.336-4.572c2.271-1.237,2.492-1.172,4.073,0.536
				c2.441,2.634,4.052,5.818,5.407,9.12c0.833,2.025,1.403,4.115,1.56,6.323c0.117,1.667-0.513,2.846-1.902,3.685
				c-0.455,0.276-0.917,0.546-1.355,0.849c-0.579,0.403-0.553,0.645,0.081,0.936c0.415,0.19,0.825,0.39,1.25,0.554
				c3.149,1.209,4.747,3.61,5.202,6.842c0.479,3.379,0.043,6.667-1.483,9.714c-1.796,3.583-2.911,3.037-5.308,1.494
				C263.438,123.915,262.411,123.044,261.268,122.187z"/>
			<path fill="#12131E" d="M319.619,156.772c-0.039,0.362-0.039,0.732-0.118,1.082c-1.061,4.578-3.323,8.586-5.931,12.425
				c-0.798,1.176-1.625,2.34-2.543,3.421c-1.603,1.889-3.555,3.233-6.104,3.541c-3.632,0.437-6.064-1.246-6.854-4.813
				c-0.563-2.565-0.401-5.149-0.099-7.731c0.028-0.248,0.069-0.496-0.032-0.805c-0.177,0.32-0.353,0.641-0.536,0.961
				c-1.729,3.044-3.402,6.126-5.713,8.794c-0.347,0.404-0.712,0.795-1.102,1.161c-1.728,1.618-4.257,1.788-6.192,0.405
				c-1.763-1.258-2.139-3.027-1.664-5.004c0.497-2.069,1.113-4.108,1.677-6.161c0.036-0.142,0.067-0.285,0.004-0.478
				c-0.694,1.045-1.365,2.105-2.087,3.13c-1.955,2.782-3.93,5.554-5.906,8.315c-0.25,0.349-0.593,0.629-0.872,0.958
				c-1.374,1.618-3.097,1.653-4.931,1.054c-1.185-0.387-1.913-1.276-1.826-2.515c0.101-1.402,0.327-2.821,0.705-4.177
				c0.651-2.342,1.469-4.639,2.207-6.956c0.073-0.236,0.225-0.535,0.143-0.72c-0.38-0.862,0.032-1.525,0.46-2.196
				c1.474-2.308,2.944-4.617,4.434-6.917c0.22-0.336,0.514-0.631,0.79-0.924c1.121-1.184,1.775-1.291,3.229-0.498
				c0.423,0.231,0.826,0.502,1.203,0.8c0.494,0.391,0.955,0.828,1.462,1.274c-0.925,1.418-1.838,2.784-2.719,4.169
				c-2.189,3.452-4.361,6.915-5.716,10.805c-0.313,0.903-0.505,1.857-0.663,2.804c-0.052,0.293,0.184,0.634,0.285,0.955
				c0.296-0.109,0.677-0.139,0.869-0.342c0.771-0.805,1.591-1.593,2.204-2.514c3.072-4.629,6.088-9.297,9.119-13.955
				c0.833-1.275,1.616-2.583,2.479-3.837c1.336-1.946,2.835-2.167,4.714-0.752c1.819,1.373,1.813,1.366,0.613,3.282
				c-2.436,3.899-4.804,7.845-6.171,12.269c-0.479,1.555-0.604,3.224-0.881,4.841c-0.029,0.171-0.039,0.37,0.021,0.527
				c0.154,0.413,0.271,1.053,0.557,1.146c0.347,0.116,0.978-0.111,1.258-0.405c1.028-1.083,2.077-2.175,2.91-3.405
				c2.006-2.962,3.872-6.019,5.844-9.003c0.629-0.949,0.977-1.97,1.3-3.042c4.439-14.827,10.939-28.649,20.271-41.056
				c1.227-1.629,2.685-3.131,4.229-4.466c2.471-2.132,4.611-1.82,6.696,0.671c0.681,0.814,1.472,1.538,2.172,2.338
				c0.169,0.191,0.296,0.559,0.232,0.79c-0.377,1.387-0.688,2.815-1.259,4.124c-1.685,3.86-4.108,7.285-6.49,10.73
				c-5.346,7.725-10.691,15.447-16.003,23.192c-1.006,1.462-1.891,3.01-2.745,4.565c-0.547,0.992-0.933,2.076-1.409,3.107
				c-0.095,0.202-0.294,0.354-0.445,0.529c-0.109-0.21-0.313-0.42-0.313-0.63c0.003-0.396,0.048-0.828,0.205-1.187
				c0.774-1.759,1.488-3.559,2.418-5.238c4.167-7.541,9.028-14.643,13.832-21.782c2.152-3.201,4.345-6.379,6.396-9.645
				c0.908-1.448,1.563-3.064,2.234-4.646c0.183-0.427,0.015-1.001,0.006-1.51c-0.458,0.205-1.01,0.311-1.359,0.634
				c-0.686,0.636-1.319,1.345-1.871,2.101c-6.687,9.182-12.925,18.647-17.97,28.851c-2.296,4.647-4.274,9.42-5.386,14.508
				c-0.581,2.666-0.921,5.354-0.561,8.088c0.026,0.201,0.057,0.402,0.104,0.599c0.606,2.682,2.435,3.48,4.74,1.953
				c0.932-0.618,1.764-1.462,2.466-2.342c2.981-3.741,5.604-7.72,7.66-12.057c0.412-0.869,0.906-1.699,1.396-2.529
				c0.17-0.29,0.437-0.521,0.657-0.78C319.44,156.696,319.531,156.734,319.619,156.772z"/>
			<path fill="#12131E" d="M233.876,210.855c3.06-2.021,5.602-4.305,7.76-6.992c0.969-1.205,1.795-2.521,2.718-3.761
				c0.188-0.253,0.521-0.4,0.784-0.594c0.146,0.304,0.452,0.641,0.401,0.907c-0.203,1.06-0.375,2.163-0.819,3.129
				c-1.239,2.707-3.327,4.728-5.748,6.375c-1.736,1.183-3.603,2.174-5.385,3.293c-0.325,0.203-0.646,0.57-0.768,0.929
				c-1.503,4.549-2.927,9.135-5.063,13.437c-0.967,1.942-2.122,3.815-3.387,5.577c-0.704,0.981-1.729,1.798-2.752,2.474
				c-1.533,1.011-2.735,0.715-3.976-0.649c-2.41-2.656-2.975-5.666-1.855-9.049c1.228-3.716,3.609-6.568,6.696-8.839
				c1.67-1.229,3.516-2.215,5.262-3.344c0.29-0.188,0.578-0.496,0.69-0.813c0.479-1.326,0.894-2.675,1.352-4.082
				c-0.857,0.799-1.61,1.584-2.448,2.265c-1.29,1.051-2.752,1.723-4.464,1.672c-1.713-0.05-3.03-0.756-3.793-2.36
				c-0.693,0.629-1.317,1.256-2.003,1.803c-1.65,1.312-3.482,2.021-5.651,1.733c-2.166-0.282-3.758-1.647-4.242-3.782
				c-0.061-0.267-0.122-0.535-0.197-0.873c-0.583,0.735-1.097,1.45-1.681,2.106c-1.532,1.715-3.262,3.133-5.644,3.479
				c-2.464,0.36-4.459-0.744-5.444-3.062c-1.055-2.479-0.95-5.049-0.214-7.543c1.777-6.012,5.189-10.971,10.078-14.891
				c1.335-1.072,2.855-1.874,4.616-1.999c2.417-0.173,4.019,1.205,4.3,3.619c0.015,0.125,0.021,0.25,0.047,0.533
				c0.155-0.237,0.252-0.356,0.315-0.491c0.578-1.182,1.117-2.389,1.74-3.547c0.573-1.068,1.195-1.077,1.835-0.034
				c1.068,1.744,1.081,3.661,0.516,5.521c-0.506,1.664-1.271,3.253-1.973,4.851c-1.139,2.602-2.366,5.166-3.459,7.783
				c-0.644,1.547-1.072,3.182-0.877,4.896c0.162,1.4,1.043,1.992,2.352,1.488c0.646-0.25,1.332-0.613,1.784-1.117
				c1.1-1.221,2.129-2.518,3.062-3.863c0.313-0.455,0.246-1.166,0.359-1.76c0.846-4.396,2.513-8.501,4.413-12.518
				c0.953-2.015,2.054-3.963,3.129-5.918c0.583-1.06,1.166-1.077,1.898-0.141c1.099,1.4,1.236,3,0.778,4.626
				c-0.355,1.261-0.825,2.508-1.397,3.687c-1.675,3.447-3.357,6.887-4.339,10.611c-0.267,1.017-0.399,2.101-0.398,3.151
				c0.003,1.65,1.149,2.328,2.561,1.47c0.912-0.554,1.749-1.32,2.424-2.149c2.231-2.74,3.737-5.912,5.176-9.105
				c1.665-3.7,3.26-7.431,4.905-11.137c0.37-0.832,0.803-1.643,1.271-2.424c0.512-0.854,1.179-0.855,1.7-0.008
				c1.009,1.641,1.109,3.451,0.564,5.221c-0.626,2.029-1.484,3.986-2.229,5.978c-1.684,4.485-3.356,8.974-5.032,13.46
				C234.059,210.264,234.006,210.451,233.876,210.855z M198.196,209.789c0,0.203-0.013,0.406,0.005,0.609
				c0.058,0.875,0.137,1.803,1.021,2.236c0.875,0.434,1.723,0.018,2.396-0.535c0.814-0.67,1.635-1.391,2.268-2.229
				c2.933-3.886,4.991-8.24,6.497-12.839c0.504-1.545,0.765-3.204,0.889-4.828c0.109-1.439-0.906-2.039-2.142-1.307
				c-1.075,0.638-2.104,1.438-2.968,2.343c-2.905,3.045-5.063,6.588-6.614,10.498C198.775,205.68,198.229,207.678,198.196,209.789z
				 M227.399,216.492c-0.073-0.029-0.147-0.064-0.225-0.098c-4.287,3.248-7.396,7.328-8.671,12.641
				c-0.231,0.959-0.205,2.006-0.131,3.002c0.049,0.67,0.505,0.801,1.006,0.34c0.503-0.457,0.961-0.98,1.349-1.539
				c2.004-2.893,3.479-6.064,4.783-9.318C226.176,219.859,226.773,218.17,227.399,216.492z"/>
			<path fill="#12131E" d="M216.968,133.296c-0.59,2.498-0.914,4.945,0.062,7.366c0.873,2.168,2.649,2.993,5.096,2.453
				c2.863-0.635,5.075-2.329,6.863-4.526c1.372-1.685,2.487-3.576,3.741-5.357c0.194-0.276,0.528-0.458,0.796-0.682
				c0.185,0.334,0.491,0.653,0.529,1.003c0.13,1.226-0.215,2.38-0.847,3.416c-2.87,4.702-6.959,7.582-12.517,8.162
				c-3.604,0.376-6.58-1.332-8.187-4.601c-0.055-0.113-0.121-0.221-0.171-0.313c-0.69,0.938-1.319,1.921-2.076,2.795
				c-1.545,1.781-3.388,3.2-5.771,3.584c-1.121,0.18-2.352,0.145-3.461-0.104c-1.977-0.445-2.959-1.928-3.284-3.86
				c-0.397-2.35,0.024-4.637,0.851-6.802c1.089-2.863,2.392-5.642,3.607-8.456c0.441-1.022,0.928-2.027,1.336-3.063
				c0.116-0.296,0.03-0.669,0.041-1.007c-0.334,0.061-0.729,0.028-0.99,0.2c-1.056,0.699-2.135,1.383-3.083,2.212
				c-4.17,3.645-6.897,8.28-8.911,13.365c-1.045,2.639-2.008,5.31-3.002,7.968c-0.401,1.076-0.813,1.182-1.584,0.345
				c-1.313-1.425-1.396-3.168-1.146-4.941c0.45-3.172,1.655-6.121,2.967-9.001c1.846-4.06,3.84-8.051,5.8-12.057
				c0.157-0.323,0.543-0.748,0.813-0.743c0.301,0.008,0.672,0.408,0.862,0.725c0.855,1.418,0.878,2.987,0.706,4.577
				c-0.035,0.312-0.084,0.625-0.121,0.903c1.51-1.528,2.953-3.087,4.514-4.522c0.852-0.779,1.858-1.413,2.866-1.988
				c1.2-0.686,2.354-0.397,3.362,0.502c1.487,1.328,2.035,3.528,1.211,5.595c-0.872,2.188-1.959,4.289-2.854,6.467
				c-0.972,2.36-1.939,4.735-2.688,7.172c-0.301,0.979-0.163,2.172,0.049,3.211c0.262,1.262,1.329,1.752,2.533,1.266
				c0.688-0.275,1.367-0.699,1.901-1.21c2.166-2.078,3.559-4.689,4.683-7.415c0.409-0.991,0.206-2.216,0.467-3.291
				c1.242-5.121,3.577-9.649,7.902-12.815c3.94-2.889,5.778-2.04,8.813,0.129c2.046,1.461,2.604,3.396,2.138,5.743
				c-0.602,3.004-2.124,5.475-4.457,7.422c-2.489,2.081-5.385,2.316-8.304,0.768C217.69,133.713,217.365,133.52,216.968,133.296z
				 M217.426,131.779c1.829,1.01,3.595,0.691,5.271-1.052c2.067-2.157,3.513-4.701,4.319-7.588c0.107-0.386,0.166-0.796,0.181-1.199
				c0.034-1.059-0.522-1.505-1.492-1.065c-0.795,0.36-1.566,0.852-2.22,1.434C220.604,124.887,218.728,128.128,217.426,131.779z"/>
			<path fill="#12131E" d="M155.729,136.185c0.204-6.48,2.444-12.221,6.01-17.497c2.498-3.691,5.476-6.933,9.256-9.364
				c2.142-1.378,4.457-2.226,7.046-1.961c0.769,0.079,1.561,0.271,2.262,0.589c1.146,0.52,2.268,1.124,3.333,1.798
				c2.383,1.511,3.547,3.845,4.123,6.505c0.93,4.277,0.411,8.494-0.753,12.639c-1.691,6.022-4.499,11.462-8.799,16.057
				c-2.225,2.377-4.818,4.229-8.061,4.938c-6.583,1.441-12.346-2.307-13.773-8.968C156.038,139.368,155.938,137.766,155.729,136.185
				z M183.773,118.886c0.003-2.985-0.403-5.129-1.129-6.515c-0.919-1.76-2.175-2.326-4.095-1.845
				c-1.681,0.42-3.142,1.281-4.52,2.292c-4.087,3.011-7.113,6.924-9.524,11.34c-2.533,4.639-4.026,9.578-4.001,14.901
				c0.009,2.119,0.313,4.206,1.364,6.104c0.975,1.757,2.442,2.584,4.478,2.327c1.961-0.249,3.588-1.216,5.088-2.417
				c3.544-2.837,6.025-6.501,8.023-10.512C182.01,129.44,183.643,124.065,183.773,118.886z"/>
			<path fill="#12131E" d="M173.808,192.875c-0.604-0.208-1.178-0.35-1.698-0.594c-1.099-0.518-1.916-1.332-2.295-2.512
				c-0.215-0.668-0.018-1.021,0.648-1.071c2.463-0.19,4.728-1.09,7.041-1.849c1.558-0.512,3.146-1.002,4.76-1.269
				c3.232-0.534,5.87,0.648,7.943,3.149c3.276,3.957,3.876,8.443,2.504,13.255c-1.879,6.586-5.947,11.695-11.104,16.011
				c-4.221,3.526-8.993,6.047-14.308,7.543c-1.813,0.508-3.353,0.285-4.627-1.168c-0.402-0.459-0.831-0.894-1.248-1.338
				c-1.841-1.957-2.049-4.138-1.132-6.619c1.723-4.664,4.088-8.998,6.685-13.203c2.051-3.317,4.295-6.516,6.452-9.768
				C173.55,193.259,173.673,193.077,173.808,192.875z M189.556,196.847c0.24-1.551,0.272-3.088-0.302-4.577
				c-0.423-1.094-1.097-2.053-2.296-2.229c-0.976-0.142-2.047-0.122-2.991,0.137c-2.122,0.583-4.194,1.349-6.279,2.066
				c-0.146,0.051-0.323,0.321-0.314,0.483c0.096,2.232-0.767,4.167-1.899,5.996c-1.416,2.281-2.904,4.517-4.34,6.787
				c-2.588,4.09-5.188,8.176-7.042,12.67c-0.355,0.855-0.604,1.775-0.766,2.689c-0.155,0.873,0.332,1.299,1.196,1.156
				c0.474-0.078,0.938-0.217,1.394-0.375c7.81-2.73,14.119-7.479,18.928-14.197C187.135,204.248,188.89,200.783,189.556,196.847z"/>
			<path fill="#12131E" d="M149.732,218.861c0.333,0.496,0.683,0.98,0.99,1.492c1.262,2.076,0.913,3.576-1.204,4.764
				c-1.808,1.018-3.753,1.539-5.85,1.127c-0.368-0.072-0.737-0.205-1.073-0.373c-1.261-0.623-1.539-1.242-1.315-2.639
				c0.076-0.469,0.014-0.961,0.014-1.557c-0.701,0.393-1.188,1.291-1.879,0.699c-0.449-0.383-0.573-1.146-0.853-1.758
				c-0.041,0.055-0.156,0.193-0.255,0.346c-0.929,1.408-2.416,1.785-3.825,0.852c-0.662-0.439-1.281-1.023-1.739-1.67
				c-0.862-1.211-1.699-2.465-2.347-3.797c-0.755-1.557-0.309-3.113,0.624-4.457c0.286-0.41,1.005-0.604,1.564-0.727
				c0.546-0.119,1.138-0.025,1.951-0.025c-0.366-0.309-0.536-0.475-0.729-0.611c-0.368-0.271-0.75-0.521-1.123-0.787
				c-2.261-1.631-2.691-2.818-1.973-5.486c0.235-0.879,0.489-1.756,0.766-2.625c0.152-0.48,0.34-0.958,0.57-1.407
				c0.764-1.489,1.766-1.785,3.057-0.709c1.041,0.866,2.055,1.854,2.798,2.973c2.07,3.109,3.364,6.527,3.503,10.313
				c0.006,0.092,0.023,0.184,0.037,0.291c1.936-0.951,2.319-0.801,2.717,0.965c1.157-0.77,2.303-1.605,3.521-2.322
				c1.813-1.063,3.785-1.723,5.889-1.896c0.623-0.053,1.274-0.018,1.89,0.107c1.312,0.271,2.063,1.186,1.941,2.51
				c-0.239,2.654-1.278,4.988-3.141,6.926c-0.702,0.729-1.539,0.82-2.435,0.357c-0.649-0.336-1.298-0.672-1.945-1.01
				C149.83,218.771,149.782,218.818,149.732,218.861z"/>
			<path fill="#12131E" d="M254.948,153.255c-0.893,1.264-1.68,2.321-2.406,3.416c-2.375,3.572-4.396,7.328-5.118,11.608
				c-0.292,1.731-0.3,3.532-0.251,5.295c0.046,1.636,1.183,2.262,2.633,1.488c0.76-0.405,1.454-1.024,2.028-1.68
				c3.076-3.516,5.835-7.473,8.105-11.532c0.371-0.668,0.906-1.377,1.326-2.017c0.118,0.043,2.279-3.246,2.397-3.203
				c-0.069,0.521,0.171,2.153-0.01,2.633c-0.454,1.232-1.857,2.892-2.502,4.031c0.103,2.739-3.07,6.784-7.313,11.347
				c-2.063,2.219-4.379,3.738-7.045,3.1c-1.726-0.414-2.841-1.515-3.485-3.117c-0.923-2.294-1.081-4.704-0.801-7.117
				c0.178-1.551,0.638-3.067,0.953-4.603c0.037-0.184,0.016-0.463-0.1-0.575c-0.361-0.354-0.346-0.704-0.117-1.098
				c1.401-2.41,2.788-4.833,4.225-7.224c0.388-0.647,0.914-1.216,1.407-1.795c0.752-0.88,1.732-1.092,2.758-0.653
				C252.742,152.032,253.788,152.652,254.948,153.255z"/>
			<path fill="#12131E" d="M280.039,193.478c1.08-0.751,1.94-1.784,2.38-3.286c0.508-1.744,1.307-3.402,1.979-5.097
				c0.094-0.23,0.192-0.458,0.313-0.745c-0.646-0.199-1.426-0.113-1.743-0.985c0.575-0.073,1.091-0.195,1.606-0.194
				c0.645,0.004,0.935-0.324,1.172-0.868c0.299-0.695,0.68-1.358,1.045-2.025c0.128-0.237,0.307-0.446,0.508-0.729
				c0.88,0.997,0.408,2.012,0.235,3.02c0.654,0.124,1.368,0.128,1.569,1.064c-0.482,0.045-0.927,0.093-1.37,0.125
				c-0.567,0.043-0.965,0.251-1.214,0.833c-0.777,1.816-1.682,3.582-2.403,5.418c-0.306,0.772-0.409,1.681-0.365,2.515
				c0.053,1.016,0.936,1.369,1.757,0.767c0.915-0.67,1.501-1.579,1.919-2.664c0.805-2.072,1.741-4.097,2.642-6.13
				c0.079-0.18,0.313-0.293,0.472-0.437c0.154,0.189,0.444,0.376,0.444,0.564c0,0.746,0.044,1.536-0.185,2.224
				c-0.391,1.173-1.005,2.269-1.468,3.42c-0.245,0.606-0.43,1.252-0.521,1.896c-0.045,0.301,0.099,0.786,0.317,0.926
				c0.223,0.139,0.729,0.066,0.973-0.107c1.394-0.983,2.192-2.348,2.447-4.039c0.241-1.605,0.51-3.205,0.779-4.804
				c0.039-0.24,0.138-0.47,0.229-0.781c0.854,0.371,1.209,1.011,1.148,1.772c-0.106,1.335-0.338,2.661-0.521,3.989
				c-0.137,1.028-0.277,2.057-0.34,3.121c1.921-3.196,3.837-6.381,6.182-9.269c0.072,0.021,0.146,0.041,0.218,0.059
				c0,0.296,0.097,0.635-0.019,0.879c-0.292,0.641-0.642,1.263-1.026,1.852c-1.632,2.509-3.299,4.995-4.916,7.51
				c-0.277,0.429-0.563,0.541-0.903,0.229c-0.425-0.389-0.774-0.862-1.074-1.205c-0.725,0.448-1.534,1.116-2.465,1.479
				c-1.097,0.428-1.785,0.051-2.549-1.018c-2.139,2.065-3.926,1.87-4.978-0.114c-2.197,2.576-5.869,2.779-7.474,0.383
				c-0.482,0.4-0.925,0.869-1.458,1.181c-0.627,0.364-1.313,0.685-2.011,0.861c-2.396,0.602-4.214-0.76-4.172-3.228
				c0.045-2.65,1.255-4.784,3.421-6.309c1.102-0.776,1.96-0.653,3.053,0.229c0.914,0.737,1.152,1.473,0.628,2.699
				c-0.319,0.749-0.803,1.474-1.368,2.062c-0.918,0.958-2.015,1.057-3.21,0.479c-0.151-0.073-0.301-0.15-0.611-0.306
				c0,0.967-0.113,1.824,0.029,2.639c0.166,0.941,0.97,1.339,1.908,1.153c1.476-0.294,2.444-1.285,3.292-2.422
				c0.13-0.17,0.092-0.481,0.095-0.728c0.02-0.932,0.25-1.402,0.938-1.781c0.092,0.253,0.18,0.496,0.325,0.901
				c0.919-1.804,2.229-3.227,2.581-5.166c0.141-0.764,0.621-1.332,1.353-1.633c0.153-0.064,0.411-0.021,0.548,0.075
				c0.095,0.064,0.144,0.351,0.08,0.465c-0.839,1.528-0.245,3.069-0.069,4.606c0.079,0.706,0.241,1.415,0.209,2.116
				C280.363,191.798,280.16,192.669,280.039,193.478z M278.383,187.86c-0.083-0.003-0.164-0.006-0.243-0.008
				c-0.552,0.989-1.091,1.986-1.653,2.967c-0.605,1.064-0.642,1.407,0.156,2.342c0.288,0.336,0.839,0.667,1.229,0.623
				c0.271-0.032,0.657-0.702,0.666-1.092C278.554,191.081,278.444,189.47,278.383,187.86z M269.396,190.151
				c0.841,0.479,1.552,0.231,2.019-0.38c0.633-0.831,1.143-1.765,1.63-2.691c0.132-0.251-0.009-0.646-0.024-0.975
				c-0.318,0.091-0.703,0.1-0.955,0.285C270.773,187.322,269.993,188.635,269.396,190.151z"/>
			<path fill="#12131E" d="M315.323,187.663c0.029,0.331,0.127,0.674,0.077,0.993c-0.23,1.509-2.134,3.374-3.65,3.628
				c-1.289,0.214-2.057-0.188-2.671-1.453c-0.737,0.857-1.459,1.734-2.639,1.911c-1.23,0.185-1.905-0.284-2.437-1.596
				c-0.446,0.409-0.875,0.865-1.367,1.24c-0.758,0.58-1.619,0.921-2.549,0.441c-0.896-0.459-1.181-1.325-1.107-2.257
				c0.063-0.797,0.179-1.624,0.466-2.363c0.671-1.728,1.76-3.193,3.162-4.412c0.229-0.2,0.481-0.377,0.74-0.535
				c1.585-0.971,2.392-0.743,3.162,0.87c0.316-0.552,0.643-1.105,1.014-1.747c0.883,0.901,0.813,1.837,0.463,2.719
				c-0.462,1.178-1.085,2.291-1.588,3.452c-0.323,0.74-0.622,1.502-0.798,2.288c-0.078,0.354,0.057,0.965,0.307,1.124
				c0.237,0.149,0.854-0.028,1.127-0.264c1.03-0.893,1.826-1.955,2.074-3.354c0.739-4.165,2.559-7.834,5.146-11.145
				c0.678-0.869,1.362-0.839,1.729,0.194c0.254,0.718,0.297,1.616,0.121,2.36c-0.66,2.819-2.354,5.021-4.488,6.905
				c-0.839,0.738-1.502,3.407-1.071,4.45c0.261,0.631,0.781,0.77,1.517,0.331c1.223-0.734,1.949-1.897,2.591-3.122
				c0.122-0.237,0.253-0.47,0.378-0.701C315.132,187.635,315.228,187.648,315.323,187.663z M300.616,191.31
				c0.109,0.203,0.22,0.719,0.489,0.826c0.278,0.111,0.751-0.113,1.073-0.302c0.293-0.172,0.533-0.471,0.744-0.751
				c1.219-1.644,2.103-3.458,2.702-5.409c0.103-0.337,0.168-0.698,0.164-1.048c0-0.648-0.396-0.9-0.937-0.553
				c-0.504,0.326-0.985,0.726-1.378,1.177C302.009,186.942,300.918,188.83,300.616,191.31z M311.567,185.86
				c1.952-1.911,3.405-4.108,3.794-6.887C313.598,180.99,312.609,183.433,311.567,185.86z"/>
			<path fill="#12131E" d="M263.33,182.432c-0.293-0.396-0.619-0.84-0.986-1.339c2.165-0.413,4.142-0.848,6.14-1.148
				c1.271-0.191,1.95,0.283,2.226,1.245c-1.524,0.347-3.045,0.71-4.575,1.029c-0.497,0.104-0.784,0.346-1,0.803
				c-0.798,1.691-1.634,3.368-2.488,5.118c1.404-0.017,2.982-0.961,3.832,0.994c-1.342,0.305-2.584,0.613-3.841,0.866
				c-0.698,0.14-1.076,0.511-1.316,1.176c-0.507,1.406-1.09,2.783-1.645,4.172c-0.081,0.203-0.172,0.401-0.281,0.65
				c-0.825-0.483-0.912-1.208-0.768-1.946c0.152-0.791,0.353-1.592,0.665-2.332C260.605,188.622,261.973,185.542,263.33,182.432z"/>
			<path fill="#12131E" d="M292.708,182.901c-0.088,0.431-0.129,0.979-0.818,1.003c-0.564,0.019-1.147-0.686-1.119-1.393
				c0.021-0.51,0.113-1.049,0.799-1.071C292.134,181.421,292.699,182.14,292.708,182.901z"/>
		</g>
	</g>
	<path fill="#12131E" d="M293.307,117.362c-0.064-0.617-0.337-1.212-0.805-1.787c-0.47-0.573-1.803-1.317-4-2.237
		c-2.199-0.917-3.351-1.556-3.449-1.921c-3.143,1.651-5.554,3.972-7.233,6.962c-2.838,5.052-6.028,12.921-9.571,23.605l-7.805,0.843
		c-0.805,0.087-1.159,0.552-1.069,1.39c0.075,0.708,0.577,0.982,1.498,0.819c1.918-0.207,4.146-0.448,6.688-0.723
		c-4.245,12.937-9.626,28.46-9.627,28.462c-4.879,14.447-15.548,30.105-15.548,30.105s-4.251,7.59-0.557,4.724
		c3.692-2.869,11.283-12.563,13.905-17.5c1.257-2.367,2.327-4.534,3.24-6.519c3.345-6.165,6.457-14.885,9.341-26.172
		c0.976-3.746,2.395-8.292,4.261-13.642l1.854-0.2c-0.954,2.764-1.341,4.959-1.167,6.587c0.143,1.316,0.43,1.948,0.863,1.901
		c0.494-0.054,0.646-0.381,0.457-0.988c-0.474-1.453,0.229-3.972,2.098-7.556c4.457-0.481,8.229-0.95,11.309-1.41
		c0.562-0.061,1.08-0.29,1.572-0.687c0.487-0.397,0.715-0.781,0.672-1.153c-0.046-0.433-0.626-0.59-1.739-0.469L278,140.932
		c3.262-5.722,7.738-12.138,13.424-19.246C292.798,119.916,293.428,118.474,293.307,117.362z M286.731,121.738
		c-5.268,7.497-9.075,13.989-11.426,19.486l-1.95,0.209c3.701-10.384,6.784-17.205,9.252-20.466
		c2.304-3.055,4.195-4.667,5.683-4.827c0.495-0.052,0.766,0.137,0.813,0.568C289.207,117.695,288.416,119.373,286.731,121.738z"/>
</g>
<g>
	<g>
		<polygon fill="none" stroke="#12131E" stroke-width="0.25" stroke-miterlimit="10" points="191.118,304.631 193.937,356.082 
			147.968,332.797 		"/>
		<circle fill="#9C9B9B" stroke="#12131E" stroke-miterlimit="10" cx="193.937" cy="356.083" r="0.417"/>
		<circle fill="#9C9B9B" stroke="#12131E" stroke-miterlimit="10" cx="147.968" cy="332.798" r="0.416"/>
		<circle fill="#9C9B9B" stroke="#12131E" stroke-miterlimit="10" cx="191.118" cy="304.63" r="0.416"/>
	</g>
	<g>
		<polygon fill="none" stroke="#12131E" stroke-width="0.25" stroke-miterlimit="10" points="178.801,303.441 199.804,350.496 
			148.551,345.158 		"/>
		<circle fill="#9C9B9B" stroke="#12131E" stroke-miterlimit="10" cx="199.804" cy="350.496" r="0.416"/>
		<circle fill="#9C9B9B" stroke="#12131E" stroke-miterlimit="10" cx="148.551" cy="345.158" r="0.416"/>
		<circle fill="#9C9B9B" stroke="#12131E" stroke-miterlimit="10" cx="178.801" cy="303.441" r="0.416"/>
	</g>
	<g>
		<polygon fill="none" stroke="#12131E" stroke-width="0.25" stroke-miterlimit="10" points="195.653,341.229 166.571,342.822 
			179.732,316.838 		"/>
		<circle fill="#9C9B9B" stroke="#12131E" stroke-miterlimit="10" cx="166.571" cy="342.821" r="0.417"/>
		<circle fill="#9C9B9B" stroke="#12131E" stroke-miterlimit="10" cx="179.732" cy="316.839" r="0.416"/>
		<circle fill="#9C9B9B" stroke="#12131E" stroke-miterlimit="10" cx="195.654" cy="341.229" r="0.417"/>
	</g>
	<g>
		<g>
			<polygon fill="none" stroke="#12131E" stroke-width="0.25" stroke-miterlimit="10" points="267.403,263.078 289.096,282.516 
				261.416,291.582 			"/>
			<circle fill="#9C9B9B" stroke="#12131E" stroke-miterlimit="10" cx="289.095" cy="282.517" r="0.417"/>
			<circle fill="#9C9B9B" stroke="#12131E" stroke-miterlimit="10" cx="261.416" cy="291.582" r="0.417"/>
			<circle fill="#9C9B9B" stroke="#12131E" stroke-miterlimit="10" cx="267.404" cy="263.078" r="0.416"/>
		</g>
		<g>
			<polygon fill="none" stroke="#12131E" stroke-width="0.25" stroke-miterlimit="10" points="276.873,262.18 289.724,288.318 
				260.662,286.377 			"/>
			<path fill="#9C9B9B" stroke="#12131E" stroke-miterlimit="10" d="M290.07,288.551c-0.129,0.191-0.388,0.242-0.576,0.111
				c-0.191-0.125-0.242-0.385-0.115-0.576c0.129-0.191,0.388-0.242,0.579-0.113C290.147,288.1,290.197,288.359,290.07,288.551z"/>
			<circle fill="#9C9B9B" stroke="#12131E" stroke-miterlimit="10" cx="260.663" cy="286.378" r="0.416"/>
			<circle fill="#9C9B9B" stroke="#12131E" stroke-miterlimit="10" cx="276.874" cy="262.182" r="0.416"/>
		</g>
		<g>
			<polygon fill="none" stroke="#12131E" stroke-width="0.25" stroke-miterlimit="10" points="278.188,260.525 283.895,289.086 
				256.306,279.748 			"/>
			<circle fill="#9C9B9B" stroke="#12131E" stroke-miterlimit="10" cx="283.895" cy="289.087" r="0.416"/>
			<circle fill="#9C9B9B" stroke="#12131E" stroke-miterlimit="10" cx="256.307" cy="279.747" r="0.416"/>
			<circle fill="#9C9B9B" stroke="#12131E" stroke-miterlimit="10" cx="278.188" cy="260.526" r="0.417"/>
		</g>
	</g>
	<g>
		<polygon fill="none" stroke="#12131E" stroke-width="0.25" stroke-miterlimit="10" points="280.646,275.934 271.781,285.826 
			267.646,273.203 		"/>
		<circle fill="#9C9B9B" stroke="#12131E" stroke-miterlimit="10" cx="271.825" cy="285.618" r="0.416"/>
		<path fill="#9C9B9B" stroke="#12131E" stroke-miterlimit="10" d="M267.561,273.611c-0.226-0.047-0.369-0.27-0.321-0.494
			c0.049-0.223,0.27-0.369,0.493-0.322c0.227,0.049,0.368,0.27,0.32,0.494C268.007,273.514,267.785,273.658,267.561,273.611z"/>
		<circle fill="#9C9B9B" stroke="#12131E" stroke-miterlimit="10" cx="280.646" cy="275.937" r="0.417"/>
	</g>
	<g>
		<g>
			<polygon fill="none" stroke="#12131E" stroke-width="0.25" stroke-miterlimit="10" points="316.391,265.652 326.282,274.518 
				313.658,278.652 			"/>
		</g>
		<g>
			<polygon fill="none" stroke="#12131E" stroke-width="0.25" stroke-miterlimit="10" points="314.834,264.301 325.563,272.133 
				313.414,277.51 			"/>
		</g>
		<g>
			<polygon fill="none" stroke="#12131E" stroke-width="0.25" stroke-miterlimit="10" points="317.648,265.082 324.966,276.168 
				311.704,276.963 			"/>
		</g>
	</g>
	<g>
		<g>
			<polygon fill="none" stroke="#12131E" stroke-width="0.25" stroke-miterlimit="10" points="242.715,317.221 241.834,330.475 
				230.798,323.084 			"/>
		</g>
		<g>
			<polygon fill="none" stroke="#12131E" stroke-width="0.25" stroke-miterlimit="10" points="242.818,315.16 243.269,328.436 
				231.547,322.188 			"/>
		</g>
		<g>
			<polygon fill="none" stroke="#12131E" stroke-width="0.25" stroke-miterlimit="10" points="243.941,317.857 239.723,330.453 
				230.923,320.504 			"/>
		</g>
	</g>
	
		<line fill="none" stroke="#12131E" stroke-width="0.25" stroke-miterlimit="10" x1="311.704" y1="276.963" x2="289.096" y2="282.516"/>
	
		<line fill="none" stroke="#12131E" stroke-width="0.25" stroke-miterlimit="10" x1="261.416" y1="291.582" x2="242.818" y2="315.16"/>
	
		<line fill="none" stroke="#12131E" stroke-width="0.25" stroke-miterlimit="10" x1="230.923" y1="320.504" x2="191.118" y2="304.631"/>
</g>
<g>
	<g>
		<g>
			<polygon fill="none" stroke="#12131E" stroke-width="0.25" stroke-miterlimit="10" points="177.251,38.492 194.047,60.718 
				166.4,64.15 			"/>
			<circle fill="#9C9B9B" stroke="#12131E" stroke-miterlimit="10" cx="194.047" cy="60.718" r="0.399"/>
			<circle fill="#9C9B9B" stroke="#12131E" stroke-miterlimit="10" cx="166.4" cy="64.15" r="0.398"/>
			<circle fill="#9C9B9B" stroke="#12131E" stroke-miterlimit="10" cx="177.251" cy="38.491" r="0.398"/>
		</g>
		<g>
			<polygon fill="none" stroke="#12131E" stroke-width="0.25" stroke-miterlimit="10" points="186.305,39.385 193.572,66.28 
				166.647,59.125 			"/>
			<circle fill="#9C9B9B" stroke="#12131E" stroke-miterlimit="10" cx="193.573" cy="66.28" r="0.399"/>
			<circle fill="#9C9B9B" stroke="#12131E" stroke-miterlimit="10" cx="166.647" cy="59.125" r="0.399"/>
			<circle fill="#9C9B9B" stroke="#12131E" stroke-miterlimit="10" cx="186.306" cy="39.385" r="0.399"/>
		</g>
		<g>
			<polygon fill="none" stroke="#12131E" stroke-width="0.25" stroke-miterlimit="10" points="187.844,38.073 187.959,65.932 
				163.774,52.103 			"/>
			<circle fill="#9C9B9B" stroke="#12131E" stroke-miterlimit="10" cx="187.959" cy="65.932" r="0.398"/>
			<circle fill="#9C9B9B" stroke="#12131E" stroke-miterlimit="10" cx="163.775" cy="52.102" r="0.398"/>
			<circle fill="#9C9B9B" stroke="#12131E" stroke-miterlimit="10" cx="187.843" cy="38.073" r="0.398"/>
		</g>
	</g>
	<g>
		<g>
			<polygon fill="none" stroke="#12131E" stroke-width="0.25" stroke-miterlimit="10" points="72.445,90.173 100.271,91.521 
				85.191,114.946 			"/>
			<circle fill="#9C9B9B" stroke="#12131E" stroke-miterlimit="10" cx="100.272" cy="91.521" r="0.398"/>
			<circle fill="#9C9B9B" stroke="#12131E" stroke-miterlimit="10" cx="85.191" cy="114.946" r="0.398"/>
			<circle fill="#9C9B9B" stroke="#12131E" stroke-miterlimit="10" cx="72.446" cy="90.173" r="0.398"/>
		</g>
		<g>
			<polygon fill="none" stroke="#12131E" stroke-width="0.25" stroke-miterlimit="10" points="78.933,83.795 104.237,95.45 
				81.492,111.536 			"/>
			<circle fill="#9C9B9B" stroke="#12131E" stroke-miterlimit="10" cx="104.238" cy="95.449" r="0.398"/>
			<circle fill="#9C9B9B" stroke="#12131E" stroke-miterlimit="10" cx="81.492" cy="111.536" r="0.398"/>
			<circle fill="#9C9B9B" stroke="#12131E" stroke-miterlimit="10" cx="78.933" cy="83.794" r="0.398"/>
		</g>
		<g>
			<polygon fill="none" stroke="#12131E" stroke-width="0.25" stroke-miterlimit="10" points="78.912,81.774 100.374,99.536 
				74.259,109.241 			"/>
			<circle fill="#9C9B9B" stroke="#12131E" stroke-miterlimit="10" cx="100.374" cy="99.536" r="0.398"/>
			<circle fill="#9C9B9B" stroke="#12131E" stroke-miterlimit="10" cx="74.26" cy="109.242" r="0.398"/>
			<circle fill="#9C9B9B" stroke="#12131E" stroke-miterlimit="10" cx="78.912" cy="81.774" r="0.399"/>
		</g>
	</g>
	<g>
		<polygon fill="none" stroke="#12131E" stroke-width="0.25" stroke-miterlimit="10" points="187.322,52.99 177.186,60.649 
			175.621,48.041 		"/>
		<circle fill="#9C9B9B" stroke="#12131E" stroke-miterlimit="10" cx="177.266" cy="60.462" r="0.398"/>
		<circle fill="#9C9B9B" stroke="#12131E" stroke-miterlimit="10" cx="175.621" cy="48.041" r="0.399"/>
		<circle fill="#9C9B9B" stroke="#12131E" stroke-miterlimit="10" cx="187.323" cy="52.989" r="0.398"/>
	</g>
	<g>
		<polygon fill="none" stroke="#12131E" stroke-width="0.25" stroke-miterlimit="10" points="92.286,91.354 91.429,104.031 
			80.878,96.951 		"/>
		<circle fill="#9C9B9B" stroke="#12131E" stroke-miterlimit="10" cx="91.339" cy="103.848" r="0.398"/>
		<circle fill="#9C9B9B" stroke="#12131E" stroke-miterlimit="10" cx="80.879" cy="96.951" r="0.399"/>
		<circle fill="#9C9B9B" stroke="#12131E" stroke-miterlimit="10" cx="92.286" cy="91.354" r="0.399"/>
	</g>
	<g>
		<g>
			<polygon fill="none" stroke="#12131E" stroke-width="0.25" stroke-miterlimit="10" points="146.852,91.404 135.864,97.782 
				135.833,85.077 			"/>
		</g>
		<g>
			<polygon fill="none" stroke="#12131E" stroke-width="0.25" stroke-miterlimit="10" points="148.542,90.385 138.247,97.832 
				136.946,85.192 			"/>
		</g>
		<g>
			<polygon fill="none" stroke="#12131E" stroke-width="0.25" stroke-miterlimit="10" points="147,92.715 134.752,96.095 
				137.949,83.798 			"/>
		</g>
	</g>
	<g>
		<g>
			<polygon fill="none" stroke="#12131E" stroke-width="0.25" stroke-miterlimit="10" points="49.36,142.311 46.06,154.581 
				37.086,145.588 			"/>
		</g>
		<g>
			<polygon fill="none" stroke="#12131E" stroke-width="0.25" stroke-miterlimit="10" points="49.842,140.398 47.787,152.936 
				37.956,144.886 			"/>
		</g>
		<g>
			<polygon fill="none" stroke="#12131E" stroke-width="0.25" stroke-miterlimit="10" points="50.391,143.137 44.084,154.167 
				37.685,143.19 			"/>
		</g>
	</g>
	<line fill="none" stroke="#12131E" stroke-width="0.25" stroke-miterlimit="10" x1="166.4" y1="64.15" x2="148.542" y2="90.385"/>
	<line fill="none" stroke="#12131E" stroke-width="0.25" stroke-miterlimit="10" x1="134.895" y1="95.95" x2="104.237" y2="95.45"/>
	
		<line fill="none" stroke="#12131E" stroke-width="0.25" stroke-miterlimit="10" x1="74.259" y1="109.241" x2="49.667" y2="140.687"/>
</g>
<g>
	<g>
		<path d="M188.207,253.193c0,0.189-0.036,0.373-0.108,0.545c-0.071,0.174-0.172,0.322-0.3,0.451
			c-0.128,0.127-0.278,0.229-0.45,0.299c-0.172,0.072-0.354,0.109-0.546,0.109c-0.191,0-0.374-0.037-0.546-0.109
			c-0.172-0.07-0.32-0.172-0.443-0.299c-0.125-0.129-0.225-0.277-0.301-0.451c-0.076-0.172-0.113-0.354-0.113-0.545
			c0-0.191,0.037-0.375,0.113-0.547s0.176-0.318,0.301-0.443c0.123-0.123,0.271-0.225,0.443-0.301
			c0.172-0.074,0.354-0.113,0.546-0.113s0.374,0.039,0.546,0.113c0.172,0.076,0.322,0.178,0.45,0.301
			c0.128,0.125,0.229,0.271,0.3,0.443C188.171,252.818,188.207,253.002,188.207,253.193z"/>
		<path d="M223.074,253.193c0,0.189-0.036,0.373-0.108,0.545c-0.071,0.174-0.172,0.322-0.3,0.451
			c-0.128,0.127-0.278,0.229-0.45,0.299c-0.172,0.072-0.354,0.109-0.546,0.109c-0.192,0-0.374-0.037-0.546-0.109
			c-0.172-0.07-0.32-0.172-0.443-0.299c-0.125-0.129-0.225-0.277-0.301-0.451c-0.076-0.172-0.113-0.354-0.113-0.545
			c0-0.191,0.037-0.375,0.113-0.547s0.176-0.318,0.301-0.443c0.123-0.123,0.271-0.225,0.443-0.301
			c0.172-0.074,0.354-0.113,0.546-0.113c0.19,0,0.374,0.039,0.546,0.113c0.172,0.076,0.322,0.178,0.45,0.301
			c0.128,0.125,0.229,0.271,0.3,0.443C223.038,252.818,223.074,253.002,223.074,253.193z"/>
	</g>
	<g>
		<path d="M193.648,248.918h1.538l0.969,2.846l0.97-2.846h1.55l-1.465,3.912l1.089,2.749l2.435-6.687h1.817l-3.501,8.601h-1.404
			l-1.49-3.609l-1.489,3.609h-1.405l-3.476-8.601h1.792l2.447,6.687l1.065-2.749L193.648,248.918z"/>
		<path d="M209.406,256.027v1.466h-5.971v-8.601h5.862v1.465h-4.191v2.072h3.621v1.356h-3.621v2.239h4.3V256.027z"/>
		<path d="M217.643,255.275c0,0.363-0.073,0.684-0.218,0.957c-0.146,0.275-0.345,0.504-0.6,0.69
			c-0.256,0.187-0.551,0.326-0.886,0.425c-0.335,0.098-0.691,0.146-1.071,0.146h-4.155v-8.601h4.604
			c0.301,0,0.569,0.064,0.813,0.193s0.448,0.296,0.618,0.503c0.17,0.206,0.301,0.438,0.394,0.702
			c0.093,0.263,0.139,0.525,0.139,0.793c0,0.421-0.104,0.814-0.313,1.184c-0.21,0.365-0.517,0.64-0.92,0.816
			c0.492,0.146,0.881,0.404,1.169,0.779C217.499,254.241,217.643,254.711,217.643,255.275z M212.386,250.323v2.167h2.229
			c0.282,0,0.521-0.096,0.72-0.291c0.198-0.192,0.297-0.459,0.297-0.799c0-0.332-0.091-0.594-0.271-0.787
			c-0.183-0.194-0.405-0.29-0.672-0.29H212.386z M215.959,254.962c0-0.153-0.026-0.302-0.079-0.442
			c-0.053-0.14-0.123-0.265-0.212-0.369s-0.194-0.188-0.314-0.248c-0.121-0.062-0.255-0.092-0.399-0.092h-2.567v2.266h2.482
			c0.153,0,0.297-0.027,0.431-0.085c0.133-0.056,0.247-0.134,0.346-0.235c0.098-0.102,0.173-0.22,0.229-0.357
			C215.93,255.26,215.959,255.115,215.959,254.962z"/>
	</g>
</g>
</svg>
