<?xml version="1.0" encoding="utf-8"?>
<!-- Generator: Adobe Illustrator 16.0.0, SVG Export Plug-In . SVG Version: 6.00 Build 0)  -->
<!DOCTYPE svg PUBLIC "-//W3C//DTD SVG 1.1//EN" "http://www.w3.org/Graphics/SVG/1.1/DTD/svg11.dtd">
<svg version="1.1" id="Capa_1" xmlns="http://www.w3.org/2000/svg" xmlns:xlink="http://www.w3.org/1999/xlink" x="0px" y="0px"
	 width="741px" height="439px" viewBox="0 0 741 439" enable-background="new 0 0 741 439" xml:space="preserve">
<path fill-rule="evenodd" clip-rule="evenodd" d="M641.34,74.615c-0.604-3.808,0.313-7.916-0.664-11.146
	c-1.417-4.687-4.922-9.18-8.359-11.942c-3.262-2.621-6.813-5.253-10.881-7.033c-16.935-7.408-45.991-8.645-65.945-2.653
	c-36.703,11.02-68.577,28.635-96.73,48.431c-7.684,5.403-15.114,10.753-22.425,16.454c-3.36,3.05-6.723,6.104-10.083,9.155
	c-2.478,2.388-4.955,4.777-7.432,7.165c-6.592,8.188-13.751,15.802-19.902,24.547c-2.301,3.539-4.601,7.077-6.9,10.615
	c-0.859,1.38-1.229,3.164-2.521,4.113c-1.055-6.296-4.626-10.307-5.972-15.79c-0.994-4.056,1.662-8.635,0.53-12.871
	c-0.371-1.395-1.809-1.377-2.387-2.521c-0.39-1.288,1.189-3.343,1.724-4.379c1.959-3.803,3.95-7.485,6.104-11.013
	c6.211-10.178,13.377-20.271,22.955-27.068c4.708-3.342,10.826-5.321,15.524-8.758c4.011-2.934,7.524-7.042,10.084-11.411
	c0.93-1.586,1.199-4.74-0.266-5.971c-1.624-1.365-5.651-0.732-7.829-0.265c-7.101,1.522-10.773,4.382-15.392,8.094
	c-4.409,3.544-8.356,7.693-12.34,11.676c-7.304,7.304-14.394,14.781-20.035,23.751c-2.849,4.527-5.352,9.319-7.83,14.197
	c-0.822,1.62-1.456,5.01-3.052,5.838c-0.221,0.044-0.442,0.088-0.662,0.133c-1.7-1.701-2.336-4.926-3.45-7.165
	c-2.598-5.218-5.359-10.487-8.625-15.126C349.619,90.943,338.514,80.54,327,70.37c-4.344-3.837-8.561-6.724-15.392-8.227
	c-2.099-0.462-6.438-0.951-7.563,0.531c-2.927,3.851,1.096,7.581,2.786,9.686c3.397,4.23,8.085,8.342,12.871,11.146
	c2.388,1.106,4.777,2.212,7.165,3.317c10.873,6.522,19.648,18.945,26.272,29.855c1.825,3.005,5.99,8.801,6.37,12.605
	c0.194,1.954-2.443,5.235-2.919,7.696c-0.668,3.445,1.171,6.078,0.53,9.421c-0.56,2.923-4.017,11.954-5.573,14.064
	c0,0.088,0,0.177,0,0.266c-3.449-5.219-6.9-10.438-10.35-15.658c-5.213-7.404-11.124-14.021-16.718-20.964
	c-2.93-3.637-6.836-7.153-10.482-10.084c-10.024-8.06-19.814-16.202-30.519-23.751c-19.606-13.829-40.831-26.035-64.088-36.224
	c-19.148-8.388-37.344-16.658-65.549-16.188c-1.547,0.044-3.096,0.089-4.644,0.133c-3.953,0-7.723-0.136-11.146,0.53
	c-14.727,2.867-28.09,8.452-34.631,19.505c-3.745,6.328-5.495,19.764-3.317,29.589c3.556,16.042,10.576,29.482,17.25,42.593
	c4.958,9.739,9.368,18.116,12.075,30.386c3.856,17.485,2.907,39.048,10.748,52.412c7.512,12.802,17.563,22.878,32.11,28.66
	c5.16,2.052,11.588,2.489,17.383,4.114c-1.681,1.416-3.362,2.831-5.042,4.247c-1.725,1.68-3.45,3.361-5.175,5.041
	c-7.343,5.895-12.531,12.48-14.861,23.486c-3.001,14.182,2.416,30.489,6.37,40.072c11.554,28.005,31.493,55.185,54.535,71.651
	c5.25,3.751,11.188,8.467,17.647,10.748c5.103,1.802,18.288,0.867,23.353-0.265c28.012-6.261,45.673-25.12,60.506-44.717
	c6.591-8.708,13.451-17.388,19.373-26.804c3.095-5.174,6.192-10.35,9.287-15.524c1.521-2.588,2.599-5.424,4.379-7.695
	c0.133-0.044,0.265-0.089,0.398-0.133c-0.144,12.219-0.055,24.843,1.725,36.091c1.154,7.298,0.249,13.516,7.298,14.861
	c8.713,1.662,8.802-4.73,9.952-10.88c2.145-11.471,2.645-25.019,2.521-38.082c2.58,1.936,3.752,5.935,5.439,8.758
	c3.937,6.279,7.874,12.562,11.81,18.842c19.042,27.038,39.738,58.362,77.49,66.344c5.949,1.258,18.237,0.968,23.088-0.93
	c4.985-1.947,9.881-5.207,14.197-8.092c6.271-4.193,12.834-9.711,17.515-15.526c3.871-4.808,8.772-8.874,12.605-13.799
	c10.833-13.919,20.149-28.619,27.201-46.441c3.687-9.315,8.298-25.699,5.573-39.143c-2.596-12.806-10.979-19.854-19.505-26.671
	c-2.31-1.846-4.931-3.664-6.635-6.104c29.818,0.093,49.586-21.064,55.73-45.113c3.68-14.409,3.323-32.313,7.562-46.441
	c4.879-16.261,13.962-28.454,20.302-43.389C638.114,101.209,643.544,88.52,641.34,74.615z M599.145,111.636
	c-6.955,17.932-17.257,32.096-22.292,51.881c-1.855,7.29-1.846,15.389-3.317,23.354c-2.952,15.982-6.456,28.951-16.852,37.285
	c-6.709,5.38-13.979,9.37-24.281,11.278c-2.697,0.499-6.389,0.797-9.288,0.266c-2.389-0.438-6.268-2.655-8.094,0
	c-2.835,4.123,3.66,7.803,5.705,9.155c9.426,6.24,19.959,12.425,23.618,24.415c1.891,6.194,1.189,15.888-0.398,21.761
	c-3.93,14.543-9.971,26.346-17.116,37.684c-8.085,12.829-18.345,24.267-30.12,33.438c-5.712,4.449-12.419,9.601-20.567,11.412
	c-6.995,1.554-19.734-3.928-24.414-5.972c-21.67-9.468-34.904-28.165-47.768-46.441c-7.217-10.252-13.913-20.815-18.974-33.172
	c-1.222-2.979-3.126-11.687-7.432-11.014c-4.917,0.77-2.34,6.071-3.186,10.881c-1.738,9.897,0.055,22.713-1.592,33.172
	c-0.539,3.431,0.318,9.896-2.122,11.411c-1.495-0.796-0.504-8.787-0.93-11.411c-0.486-6.102-0.973-12.207-1.459-18.311
	c-0.661-4.034-1.205-9.958-0.531-14.198c0.785-4.938-0.166-12.126-5.44-11.145c-3.001,0.557-3.108,3.424-4.113,5.971
	c-2.079,4.732-4.158,9.465-6.236,14.198c-9.297,18.162-21.646,33.201-33.836,48.431c-4.742,5.924-11.094,11.575-17.647,15.657
	c-6.809,4.24-23.529,13.472-35.295,11.013c-9.878-2.064-16.728-8.229-23.485-13.534c-9.31-7.308-16.611-16.653-23.486-26.404
	c-7.538-10.695-14.757-22.438-19.107-36.225c-2.539-8.048-4.618-22.704-0.929-31.315c2.344-5.469,7.273-9.679,11.676-13.135
	c3.627-2.742,7.254-5.485,10.881-8.228c1.548-0.929,3.096-1.857,4.644-2.786c1.257-0.946,2.072-2.947,1.194-4.909
	c-0.314-0.704-1.185-1.518-1.99-1.726c-1.77,0.178-3.539,0.354-5.308,0.531c-3.801,0.616-8.82,0.306-12.208-0.397
	c-10.927-2.273-20.117-7.269-26.006-14.597c-5.354-6.661-9-13.825-11.412-23.619c-2.688-10.917-1.716-23.972-4.776-34.233
	c-5.267-17.656-14.899-31.189-21.363-47.768c-3.569-9.152-7.271-23.868-1.858-33.039c5.364-9.089,16.279-12.121,28.13-14.729
	c3.892-0.442,7.785-0.885,11.677-1.327c27.225-0.031,44.834,10.74,63.823,19.107c16.029,7.063,30.891,16.511,44.583,26.14
	c14.664,10.312,29.105,20.658,40.072,34.631c5.547,7.069,10.708,14.469,15.392,22.424c1.813,3.273,3.626,6.547,5.44,9.819
	c0.757,1.526,1.092,3.235,1.99,4.511c1.634,0.385,4.507,0.698,5.573-0.531c1.238-1.428,0.901-4.877,1.328-7.033
	c0.828-4.195,1.616-8.216,3.052-11.809c0.916-2.295,4.025-4.424,4.378-5.705c1.088-3.952-6.508-11.689,2.123-13.27
	c2.799-0.512,5.396,0.836,6.369,2.256c2.313,3.377-1.791,6.236-0.93,10.481c0.457,2.249,1.793,3.755,2.787,5.441
	c1.709,2.898,2.826,6.446,3.715,10.084c0.947,3.872-0.525,13.125,5.44,11.013c4.713-1.669,5.856-8.672,8.227-12.738
	c6.083-10.435,12.755-19.361,20.036-28.396c9.614-11.931,23.029-20.945,35.693-29.855c11.237-7.907,23.368-14.38,35.56-21.496
	c13.214-7.711,27.545-14.406,43.39-19.373c23.652-7.413,50.869-7.07,67.539,6.635C604.859,83.977,602.812,102.181,599.145,111.636z"
	/>
</svg>
