<?xml version="1.0" encoding="utf-8"?>
<!-- Generator: Adobe Illustrator 16.0.0, SVG Export Plug-In . SVG Version: 6.00 Build 0)  -->
<!DOCTYPE svg PUBLIC "-//W3C//DTD SVG 1.1//EN" "http://www.w3.org/Graphics/SVG/1.1/DTD/svg11.dtd">
<svg version="1.1" id="Capa_1" xmlns="http://www.w3.org/2000/svg" xmlns:xlink="http://www.w3.org/1999/xlink" x="0px" y="0px"
	 width="741px" height="439px" viewBox="0 0 741 439" enable-background="new 0 0 741 439" xml:space="preserve">
<path fill-rule="evenodd" clip-rule="evenodd" d="M5161.743,4234.682c-0.736-4.645,0.381-9.653-0.81-13.591
	c-1.728-5.715-6.001-11.194-10.192-14.562c-3.978-3.195-8.309-6.406-13.268-8.575c-20.649-9.033-56.079-10.542-80.409-3.235
	c-44.753,13.438-83.618,34.915-117.946,59.054c-9.369,6.589-18.43,13.111-27.344,20.063c-4.098,3.72-8.197,7.442-12.295,11.163
	c-3.021,2.912-6.041,5.825-9.061,8.736c-8.038,9.984-16.768,19.268-24.269,29.932c-2.805,4.314-5.609,8.629-8.413,12.943
	c-1.048,1.684-1.499,3.857-3.074,5.016c-1.285-7.677-5.641-12.567-7.28-19.253c-1.213-4.945,2.026-10.529,0.646-15.694
	c-0.453-1.7-2.206-1.679-2.911-3.073c-0.475-1.569,1.451-4.075,2.102-5.34c2.389-4.637,4.817-9.126,7.443-13.429
	c7.573-12.409,16.312-24.717,27.99-33.005c5.74-4.075,13.201-6.488,18.93-10.679c4.891-3.577,9.175-8.587,12.296-13.914
	c1.134-1.934,1.462-5.779-0.324-7.28c-1.98-1.665-6.891-0.893-9.546-0.323c-8.658,1.855-13.137,5.343-18.768,9.869
	c-5.376,4.322-10.189,9.381-15.047,14.237c-8.905,8.906-17.55,18.023-24.43,28.961c-3.473,5.521-6.524,11.363-9.547,17.312
	c-1.003,1.975-1.775,6.108-3.721,7.119c-0.27,0.053-0.539,0.107-0.808,0.162c-2.073-2.075-2.849-6.007-4.207-8.737
	c-3.168-6.362-6.534-12.787-10.517-18.444c-10.927-15.523-24.468-28.209-38.507-40.609c-5.297-4.68-10.438-8.198-18.768-10.031
	c-2.559-0.563-7.85-1.16-9.222,0.647c-3.568,4.696,1.337,9.244,3.397,11.811c4.142,5.157,9.858,10.171,15.693,13.591
	c2.912,1.348,5.826,2.696,8.736,4.045c13.258,7.951,23.958,23.1,32.035,36.402c2.225,3.664,7.304,10.73,7.767,15.37
	c0.236,2.382-2.979,6.384-3.56,9.384c-0.814,4.201,1.428,7.411,0.646,11.488c-0.683,3.564-4.897,14.576-6.795,17.148
	c0,0.108,0,0.217,0,0.324c-4.206-6.363-8.414-12.729-12.62-19.092c-6.356-9.028-13.563-17.096-20.385-25.563
	c-3.572-4.434-8.336-8.722-12.782-12.297c-12.223-9.827-24.159-19.754-37.212-28.96c-23.907-16.862-49.786-31.745-78.145-44.169
	c-23.348-10.229-45.535-20.313-79.926-19.738c-1.887,0.053-3.774,0.107-5.662,0.162c-4.819-0.001-9.416-0.166-13.591,0.646
	c-17.957,3.495-34.252,10.306-42.228,23.783c-4.565,7.715-6.7,24.1-4.044,36.079c4.336,19.561,12.895,35.948,21.032,51.935
	c6.044,11.875,11.423,22.09,14.724,37.051c4.701,21.32,3.544,47.613,13.104,63.908c9.159,15.609,21.416,27.896,39.153,34.945
	c6.291,2.501,14.129,3.034,21.195,5.016c-2.05,1.727-4.1,3.453-6.148,5.179c-2.104,2.049-4.207,4.099-6.311,6.147
	c-8.953,7.188-15.279,15.218-18.121,28.638c-3.659,17.292,2.946,37.176,7.768,48.86c14.088,34.147,38.399,67.289,66.496,87.367
	c6.4,4.574,13.642,10.323,21.518,13.105c6.221,2.197,22.299,1.058,28.475-0.323c34.156-7.633,55.691-30.629,73.777-54.524
	c8.037-10.618,16.401-21.201,23.622-32.682c3.774-6.31,7.551-12.62,11.324-18.93c1.855-3.155,3.169-6.613,5.34-9.384
	c0.162-0.054,0.323-0.108,0.485-0.162c-0.176,14.899-0.066,30.292,2.104,44.007c1.407,8.898,0.303,16.48,8.898,18.121
	c10.624,2.027,10.732-5.768,12.135-13.267c2.614-13.986,3.224-30.505,3.074-46.434c3.146,2.359,4.574,7.236,6.633,10.678
	c4.8,7.657,9.601,15.317,14.399,22.975c23.219,32.969,48.454,71.163,94.486,80.896c7.254,1.533,22.237,1.18,28.151-1.134
	c6.079-2.375,12.048-6.35,17.312-9.867c7.646-5.112,15.648-11.841,21.356-18.931c4.72-5.862,10.696-10.821,15.37-16.826
	c13.209-16.972,24.568-34.896,33.167-56.627c4.495-11.358,10.118-31.336,6.796-47.729c-3.165-15.614-13.387-24.209-23.783-32.52
	c-2.816-2.251-6.013-4.468-8.09-7.443c36.358,0.112,60.461-25.686,67.953-55.008c4.487-17.568,4.053-39.4,9.221-56.627
	c5.948-19.828,17.023-34.695,24.754-52.906C5157.81,4267.107,5164.431,4251.635,5161.743,4234.682z M5110.293,4279.82
	c-8.48,21.865-21.042,39.137-27.181,63.261c-2.263,8.889-2.251,18.764-4.045,28.476c-3.6,19.488-7.873,35.301-20.548,45.463
	c-8.181,6.56-17.046,11.426-29.607,13.752c-3.288,0.608-7.79,0.972-11.325,0.324c-2.912-0.533-7.643-3.238-9.869,0
	c-3.456,5.027,4.464,9.514,6.957,11.163c11.493,7.608,24.336,15.149,28.798,29.77c2.306,7.554,1.45,19.373-0.485,26.534
	c-4.792,17.732-12.157,32.124-20.87,45.948c-9.858,15.644-22.368,29.589-36.727,40.771c-6.965,5.425-15.143,11.706-25.078,13.915
	c-8.53,1.895-24.063-4.789-29.77-7.281c-26.423-11.544-42.56-34.343-58.244-56.627c-8.8-12.501-16.965-25.381-23.136-40.448
	c-1.489-3.632-3.811-14.249-9.061-13.429c-5.996,0.938-2.854,7.402-3.885,13.268c-2.119,12.068,0.066,27.694-1.94,40.447
	c-0.658,4.183,0.388,12.066-2.588,13.914c-1.823-0.971-0.615-10.715-1.134-13.914c-0.593-7.44-1.187-14.885-1.779-22.327
	c-0.807-4.919-1.469-12.142-0.647-17.312c0.957-6.021-0.202-14.786-6.634-13.59c-3.659,0.68-3.79,4.175-5.015,7.28
	c-2.535,5.771-5.07,11.541-7.604,17.313c-11.337,22.146-26.393,40.483-41.258,59.053c-5.782,7.224-13.527,14.114-21.518,19.092
	c-8.303,5.171-28.689,16.427-43.037,13.429c-12.045-2.518-20.397-10.035-28.637-16.503c-11.352-8.91-20.255-20.306-28.638-32.196
	c-9.191-13.04-17.994-27.359-23.298-44.169c-3.096-9.813-5.63-27.685-1.132-38.184c2.857-6.669,8.868-11.802,14.237-16.017
	c4.422-3.344,8.846-6.688,13.268-10.031c1.887-1.133,3.774-2.265,5.662-3.397c1.532-1.154,2.525-3.594,1.455-5.986
	c-0.383-0.858-1.444-1.85-2.426-2.104c-2.157,0.217-4.314,0.431-6.473,0.647c-4.634,0.752-10.754,0.373-14.885-0.484
	c-13.323-2.772-24.528-8.863-31.71-17.799c-6.528-8.121-10.974-16.856-13.915-28.799c-3.277-13.311-2.092-29.229-5.823-41.742
	c-6.422-21.527-18.167-38.029-26.049-58.244c-4.352-11.16-8.865-29.104-2.265-40.285c6.539-11.083,19.85-14.779,34.299-17.959
	c4.746-0.54,9.492-1.079,14.238-1.619c33.196-0.037,54.668,13.096,77.821,23.299c19.544,8.612,37.667,20.133,54.362,31.873
	c17.88,12.573,35.489,25.188,48.86,42.227c6.765,8.62,13.057,17.643,18.769,27.343c2.211,3.991,4.422,7.983,6.633,11.973
	c0.923,1.861,1.331,3.944,2.427,5.501c1.992,0.47,5.496,0.852,6.795-0.646c1.51-1.742,1.099-5.947,1.619-8.576
	c1.01-5.115,1.971-10.018,3.721-14.398c1.117-2.799,4.908-5.395,5.339-6.957c1.327-4.818-7.936-14.252,2.589-16.18
	c3.412-0.625,6.58,1.02,7.766,2.751c2.82,4.118-2.184,7.604-1.133,12.78c0.557,2.742,2.186,4.579,3.397,6.635
	c2.084,3.533,3.446,7.859,4.53,12.296c1.155,4.722-0.641,16.005,6.634,13.429c5.746-2.035,7.141-10.574,10.031-15.532
	c7.417-12.724,15.552-23.607,24.431-34.624c11.723-14.547,28.08-25.538,43.521-36.402c13.702-9.641,28.493-17.534,43.359-26.21
	c16.111-9.402,33.586-17.566,52.906-23.622c28.84-9.038,62.026-8.62,82.353,8.09
	C5117.261,4246.096,5114.765,4268.293,5110.293,4279.82z"/>
<path fill-rule="evenodd" clip-rule="evenodd" fill="#FFFFFF" d="M641.34,74.615c-0.604-3.808,0.313-7.916-0.664-11.146
	c-1.417-4.687-4.922-9.18-8.359-11.942c-3.262-2.621-6.813-5.253-10.881-7.033c-16.935-7.408-45.991-8.645-65.945-2.653
	c-36.703,11.02-68.577,28.635-96.73,48.431c-7.684,5.403-15.114,10.753-22.425,16.454c-3.36,3.05-6.723,6.104-10.083,9.155
	c-2.478,2.388-4.955,4.777-7.432,7.165c-6.592,8.188-13.751,15.802-19.902,24.547c-2.301,3.539-4.601,7.077-6.9,10.615
	c-0.859,1.38-1.229,3.164-2.521,4.113c-1.055-6.296-4.626-10.307-5.972-15.79c-0.994-4.056,1.662-8.635,0.53-12.871
	c-0.371-1.395-1.809-1.377-2.387-2.521c-0.39-1.288,1.189-3.343,1.724-4.379c1.959-3.803,3.95-7.485,6.104-11.013
	c6.211-10.178,13.377-20.271,22.955-27.068c4.708-3.342,10.826-5.321,15.524-8.758c4.011-2.934,7.524-7.042,10.084-11.411
	c0.93-1.586,1.199-4.74-0.266-5.971c-1.624-1.365-5.651-0.732-7.829-0.265c-7.101,1.522-10.773,4.382-15.392,8.094
	c-4.409,3.544-8.356,7.693-12.34,11.676c-7.304,7.304-14.394,14.781-20.035,23.751c-2.849,4.527-5.352,9.319-7.83,14.197
	c-0.822,1.62-1.456,5.01-3.052,5.838c-0.221,0.044-0.442,0.088-0.662,0.133c-1.7-1.701-2.336-4.926-3.45-7.165
	c-2.598-5.218-5.359-10.487-8.625-15.126C349.619,90.943,338.514,80.54,327,70.37c-4.344-3.837-8.561-6.724-15.392-8.227
	c-2.099-0.462-6.438-0.951-7.563,0.531c-2.927,3.851,1.096,7.581,2.786,9.686c3.397,4.23,8.085,8.342,12.871,11.146
	c2.388,1.106,4.777,2.212,7.165,3.317c10.873,6.522,19.648,18.945,26.272,29.855c1.825,3.005,5.99,8.801,6.37,12.605
	c0.194,1.954-2.443,5.235-2.919,7.696c-0.668,3.445,1.171,6.078,0.53,9.421c-0.56,2.923-4.017,11.954-5.573,14.064
	c0,0.088,0,0.177,0,0.266c-3.449-5.219-6.9-10.438-10.35-15.658c-5.213-7.404-11.124-14.021-16.718-20.964
	c-2.93-3.637-6.836-7.153-10.482-10.084c-10.024-8.06-19.814-16.202-30.519-23.751c-19.606-13.829-40.831-26.035-64.088-36.224
	c-19.148-8.388-37.344-16.658-65.549-16.188c-1.547,0.044-3.096,0.089-4.644,0.133c-3.953,0-7.723-0.136-11.146,0.53
	c-14.727,2.867-28.09,8.452-34.631,19.505c-3.745,6.328-5.495,19.764-3.317,29.589c3.556,16.042,10.576,29.482,17.25,42.593
	c4.958,9.739,9.368,18.116,12.075,30.386c3.856,17.485,2.907,39.048,10.748,52.412c7.512,12.802,17.563,22.878,32.11,28.66
	c5.16,2.052,11.588,2.489,17.383,4.114c-1.681,1.416-3.362,2.831-5.042,4.247c-1.725,1.68-3.45,3.361-5.175,5.041
	c-7.343,5.895-12.531,12.48-14.861,23.486c-3.001,14.182,2.416,30.489,6.37,40.072c11.554,28.005,31.493,55.185,54.535,71.651
	c5.25,3.751,11.188,8.467,17.647,10.748c5.103,1.802,18.288,0.867,23.353-0.265c28.012-6.261,45.673-25.12,60.506-44.717
	c6.591-8.708,13.451-17.388,19.373-26.804c3.095-5.174,6.192-10.35,9.287-15.524c1.521-2.588,2.599-5.424,4.379-7.695
	c0.133-0.044,0.265-0.089,0.398-0.133c-0.144,12.219-0.055,24.843,1.725,36.091c1.154,7.298,0.249,13.516,7.298,14.861
	c8.713,1.662,8.802-4.73,9.952-10.88c2.145-11.471,2.645-25.019,2.521-38.082c2.58,1.936,3.752,5.935,5.439,8.758
	c3.937,6.279,7.874,12.562,11.81,18.842c19.042,27.038,39.738,58.362,77.49,66.344c5.949,1.258,18.237,0.968,23.088-0.93
	c4.985-1.947,9.881-5.207,14.197-8.092c6.271-4.193,12.834-9.711,17.515-15.526c3.871-4.808,8.772-8.874,12.605-13.799
	c10.833-13.919,20.149-28.619,27.201-46.441c3.687-9.315,8.298-25.699,5.573-39.143c-2.596-12.806-10.979-19.854-19.505-26.671
	c-2.31-1.846-4.931-3.664-6.635-6.104c29.818,0.093,49.586-21.064,55.73-45.113c3.68-14.409,3.323-32.313,7.562-46.441
	c4.879-16.261,13.962-28.454,20.302-43.389C638.114,101.209,643.544,88.52,641.34,74.615z M599.145,111.636
	c-6.955,17.932-17.257,32.096-22.292,51.881c-1.855,7.29-1.846,15.389-3.317,23.354c-2.952,15.982-6.456,28.951-16.852,37.285
	c-6.709,5.38-13.979,9.37-24.281,11.278c-2.697,0.499-6.389,0.797-9.288,0.266c-2.389-0.438-6.268-2.655-8.094,0
	c-2.835,4.123,3.66,7.803,5.705,9.155c9.426,6.24,19.959,12.425,23.618,24.415c1.891,6.194,1.189,15.888-0.398,21.761
	c-3.93,14.543-9.971,26.346-17.116,37.684c-8.085,12.829-18.345,24.267-30.12,33.438c-5.712,4.449-12.419,9.601-20.567,11.412
	c-6.995,1.554-19.734-3.928-24.414-5.972c-21.67-9.468-34.904-28.165-47.768-46.441c-7.217-10.252-13.913-20.815-18.974-33.172
	c-1.222-2.979-3.126-11.687-7.432-11.014c-4.917,0.77-2.34,6.071-3.186,10.881c-1.738,9.897,0.055,22.713-1.592,33.172
	c-0.539,3.431,0.318,9.896-2.122,11.411c-1.495-0.796-0.504-8.787-0.93-11.411c-0.486-6.102-0.973-12.207-1.459-18.311
	c-0.661-4.034-1.205-9.958-0.531-14.198c0.785-4.938-0.166-12.126-5.44-11.145c-3.001,0.557-3.108,3.424-4.113,5.971
	c-2.079,4.732-4.158,9.465-6.236,14.198c-9.297,18.162-21.646,33.201-33.836,48.431c-4.742,5.924-11.094,11.575-17.647,15.657
	c-6.809,4.24-23.529,13.472-35.295,11.013c-9.878-2.064-16.728-8.229-23.485-13.534c-9.31-7.308-16.611-16.653-23.486-26.404
	c-7.538-10.695-14.757-22.438-19.107-36.225c-2.539-8.048-4.618-22.704-0.929-31.315c2.344-5.469,7.273-9.679,11.676-13.135
	c3.627-2.742,7.254-5.485,10.881-8.228c1.548-0.929,3.096-1.857,4.644-2.786c1.257-0.946,2.072-2.947,1.194-4.909
	c-0.314-0.704-1.185-1.518-1.99-1.726c-1.77,0.178-3.539,0.354-5.308,0.531c-3.801,0.616-8.82,0.306-12.208-0.397
	c-10.927-2.273-20.117-7.269-26.006-14.597c-5.354-6.661-9-13.825-11.412-23.619c-2.688-10.917-1.716-23.972-4.776-34.233
	c-5.267-17.656-14.899-31.189-21.363-47.768c-3.569-9.152-7.271-23.868-1.858-33.039c5.364-9.089,16.279-12.121,28.13-14.729
	c3.892-0.442,7.785-0.885,11.677-1.327c27.225-0.031,44.834,10.74,63.823,19.107c16.029,7.063,30.891,16.511,44.583,26.14
	c14.664,10.312,29.105,20.658,40.072,34.631c5.547,7.069,10.708,14.469,15.392,22.424c1.813,3.273,3.626,6.547,5.44,9.819
	c0.757,1.526,1.092,3.235,1.99,4.511c1.634,0.385,4.507,0.698,5.573-0.531c1.238-1.428,0.901-4.877,1.328-7.033
	c0.828-4.195,1.616-8.216,3.052-11.809c0.916-2.295,4.025-4.424,4.378-5.705c1.088-3.952-6.508-11.689,2.123-13.27
	c2.799-0.512,5.396,0.836,6.369,2.256c2.313,3.377-1.791,6.236-0.93,10.481c0.457,2.249,1.793,3.755,2.787,5.441
	c1.709,2.898,2.826,6.446,3.715,10.084c0.947,3.872-0.525,13.125,5.44,11.013c4.713-1.669,5.856-8.672,8.227-12.738
	c6.083-10.435,12.755-19.361,20.036-28.396c9.614-11.931,23.029-20.945,35.693-29.855c11.237-7.907,23.368-14.38,35.56-21.496
	c13.214-7.711,27.545-14.406,43.39-19.373c23.652-7.413,50.869-7.07,67.539,6.635C604.859,83.977,602.812,102.181,599.145,111.636z"
	/>
</svg>
